Mayek Rounded-Light.ufo
<glyph name="numbersign" format="1">
  <advance width="744"/>
  <unicode hex="0023"/>
  <note>
	numbersign
  </note>
  <outline>
    <contour>
      <point x="126" y="423" type="line"/>
      <point x="282" y="423" type="line"/>
      <point x="323" y="550" type="line"/>
      <point x="380" y="550" type="line"/>
      <point x="341" y="423" type="line"/>
      <point x="499" y="423" type="line"/>
      <point x="538" y="550" type="line"/>
      <point x="597" y="550" type="line"/>
      <point x="556" y="423" type="line"/>
      <point x="674" y="423" type="line"/>
      <point x="674" y="364" type="line"/>
      <point x="537" y="364" type="line"/>
      <point x="487" y="207" type="line"/>
      <point x="620" y="207" type="line"/>
      <point x="620" y="148" type="line"/>
      <point x="467" y="148" type="line"/>
      <point x="419" y="0" type="line"/>
      <point x="363" y="0" type="line"/>
      <point x="408" y="148" type="line"/>
      <point x="252" y="148" type="line"/>
      <point x="203" y="0" type="line"/>
      <point x="145" y="0" type="line"/>
      <point x="192" y="148" type="line"/>
      <point x="70" y="148" type="line"/>
      <point x="70" y="207" type="line"/>
      <point x="212" y="207" type="line"/>
      <point x="261" y="364" type="line"/>
      <point x="126" y="364" type="line"/>
    </contour>
    <contour>
      <point x="322" y="364" type="line"/>
      <point x="269" y="207" type="line"/>
      <point x="428" y="207" type="line"/>
      <point x="479" y="364" type="line"/>
    </contour>
  </outline>
</glyph>
<glyph name="dollar" format="1">
  <advance width="570"/>
  <unicode hex="0024"/>
  <note>
	dollar
  </note>
  <outline>
    <contour>
      <point x="95" y="495"/>
      <point x="165" y="562"/>
      <point x="253" y="563" type="curve"/>
      <point x="253" y="658" type="line"/>
      <point x="298" y="658" type="line"/>
      <point x="298" y="561" type="line"/>
      <point x="310" y="561"/>
      <point x="328" y="557"/>
      <point x="351" y="550" type="curve"/>
      <point x="374" y="542"/>
      <point x="392" y="538"/>
      <point x="404" y="538" type="curve" smooth="yes"/>
      <point x="420" y="538"/>
      <point x="434" y="548"/>
      <point x="438" y="563" type="curve"/>
      <point x="466" y="563" type="line"/>
      <point x="480" y="384" type="line"/>
      <point x="463" y="384" type="line"/>
      <point x="443" y="456"/>
      <point x="379" y="511"/>
      <point x="298" y="524" type="curve"/>
      <point x="298" y="323" type="line"/>
      <point x="417" y="291"/>
      <point x="500" y="222"/>
      <point x="500" y="155" type="curve" smooth="yes"/>
      <point x="500" y="59"/>
      <point x="411" y="-20"/>
      <point x="298" y="-24" type="curve"/>
      <point x="298" y="-115" type="line"/>
      <point x="253" y="-115" type="line"/>
      <point x="253" y="-23" type="line"/>
      <point x="242" y="-23"/>
      <point x="227" y="-19"/>
      <point x="207" y="-12" type="curve" smooth="yes"/>
      <point x="187" y="-5"/>
      <point x="172" y="-1"/>
      <point x="161" y="-1" type="curve" smooth="yes"/>
      <point x="140" y="-1"/>
      <point x="122" y="-9"/>
      <point x="122" y="-20" type="curve"/>
      <point x="95" y="-20" type="line"/>
      <point x="70" y="165" type="line"/>
      <point x="93" y="165" type="line"/>
      <point x="113" y="89"/>
      <point x="176" y="31"/>
      <point x="253" y="18" type="curve"/>
      <point x="253" y="255" type="line"/>
      <point x="160" y="280"/>
      <point x="95" y="345"/>
      <point x="95" y="414" type="curve" smooth="yes"/>
    </contour>
    <contour>
      <point x="369" y="14"/>
      <point x="427" y="64"/>
      <point x="427" y="127" type="curve" smooth="yes"/>
      <point x="427" y="180"/>
      <point x="373" y="228"/>
      <point x="298" y="241" type="curve"/>
      <point x="298" y="14" type="line"/>
    </contour>
    <contour>
      <point x="196" y="525"/>
      <point x="148" y="489"/>
      <point x="148" y="444" type="curve" smooth="yes"/>
      <point x="148" y="397"/>
      <point x="192" y="354"/>
      <point x="253" y="338" type="curve"/>
      <point x="253" y="525" type="line"/>
    </contour>
  </outline>
</glyph>
<glyph name="ampersand" format="1">
  <advance width="761"/>
  <unicode hex="0026"/>
  <note>
	ampersand
  </note>
  <outline>
    <contour>
      <point x="133" y="-24"/>
      <point x="70" y="38"/>
      <point x="70" y="114" type="curve" smooth="yes"/>
      <point x="70" y="195"/>
      <point x="142" y="282"/>
      <point x="255" y="334" type="curve"/>
      <point x="228" y="380"/>
      <point x="215" y="419"/>
      <point x="215" y="452" type="curve" smooth="yes"/>
      <point x="215" y="528"/>
      <point x="277" y="590"/>
      <point x="353" y="590" type="curve" smooth="yes"/>
      <point x="416" y="590"/>
      <point x="466" y="547"/>
      <point x="466" y="492" type="curve" smooth="yes"/>
      <point x="466" y="440"/>
      <point x="412" y="378"/>
      <point x="325" y="327" type="curve"/>
      <point x="376" y="239"/>
      <point x="414" y="180"/>
      <point x="439" y="150" type="curve"/>
      <point x="490" y="210"/>
      <point x="517" y="265"/>
      <point x="517" y="308" type="curve" smooth="yes"/>
      <point x="517" y="328"/>
      <point x="498" y="345"/>
      <point x="475" y="345" type="curve" smooth="yes"/>
      <point x="457" y="345" type="line"/>
      <point x="457" y="366" type="line"/>
      <point x="653" y="366" type="line"/>
      <point x="653" y="345" type="line"/>
      <point x="635" y="345" type="line" smooth="yes"/>
      <point x="615" y="345"/>
      <point x="585" y="315"/>
      <point x="557" y="266" type="curve" smooth="yes"/>
      <point x="513" y="189"/>
      <point x="481" y="143"/>
      <point x="462" y="127" type="curve"/>
      <point x="502" y="70"/>
      <point x="550" y="35"/>
      <point x="587" y="35" type="curve" smooth="yes"/>
      <point x="619" y="35"/>
      <point x="651" y="55"/>
      <point x="671" y="90" type="curve"/>
      <point x="691" y="79" type="line"/>
      <point x="654" y="15"/>
      <point x="610" y="-24"/>
      <point x="575" y="-24" type="curve" smooth="yes"/>
      <point x="528" y="-24"/>
      <point x="471" y="10"/>
      <point x="422" y="70" type="curve"/>
      <point x="373" y="10"/>
      <point x="294" y="-24"/>
      <point x="210" y="-24" type="curve" smooth="yes"/>
    </contour>
    <contour>
      <point x="303" y="28"/>
      <point x="354" y="53"/>
      <point x="399" y="98" type="curve"/>
      <point x="354" y="151"/>
      <point x="310" y="217"/>
      <point x="265" y="294" type="curve"/>
      <point x="182" y="255"/>
      <point x="129" y="194"/>
      <point x="129" y="137" type="curve" smooth="yes"/>
      <point x="129" y="77"/>
      <point x="186" y="28"/>
      <point x="255" y="28" type="curve" smooth="yes"/>
    </contour>
    <contour>
      <point x="368" y="392"/>
      <point x="408" y="439"/>
      <point x="408" y="484" type="curve" smooth="yes"/>
      <point x="408" y="523"/>
      <point x="381" y="555"/>
      <point x="346" y="555" type="curve" smooth="yes"/>
      <point x="305" y="555"/>
      <point x="272" y="520"/>
      <point x="272" y="476" type="curve" smooth="yes"/>
      <point x="272" y="434"/>
      <point x="284" y="396"/>
      <point x="307" y="363" type="curve"/>
    </contour>
  </outline>
</glyph>
<glyph name="parenright" format="1">
  <advance width="325"/>
  <unicode hex="0029"/>
  <note>
	parenright
  </note>
  <outline>
    <contour>
      <point x="155" y="11"/>
      <point x="197" y="131"/>
      <point x="197" y="252" type="curve" smooth="yes"/>
      <point x="197" y="373"/>
      <point x="155" y="494"/>
      <point x="70" y="615" type="curve"/>
      <point x="96" y="630" type="line"/>
      <point x="199" y="507"/>
      <point x="255" y="373"/>
      <point x="255" y="252" type="curve" smooth="yes"/>
      <point x="255" y="124"/>
      <point x="200" y="-11"/>
      <point x="100" y="-130" type="curve"/>
      <point x="70" y="-110" type="line"/>
    </contour>
  </outline>
</glyph>
<glyph name="asterisk" format="1">
  <advance width="720"/>
  <unicode hex="002A"/>
  <note>
	asterisk
  </note>
  <outline>
    <contour>
      <point x="70" y="289"/>
      <point x="104" y="319"/>
      <point x="143" y="312" type="curve" smooth="yes"/>
      <point x="298" y="285" type="line"/>
      <point x="191" y="408" type="line" smooth="yes"/>
      <point x="168" y="436"/>
      <point x="179" y="480"/>
      <point x="214" y="500" type="curve" smooth="yes"/>
      <point x="247" y="519"/>
      <point x="291" y="499"/>
      <point x="306" y="458" type="curve" smooth="yes"/>
      <point x="360" y="319" type="line"/>
      <point x="414" y="469" type="line" smooth="yes"/>
      <point x="427" y="505"/>
      <point x="471" y="520"/>
      <point x="504" y="500" type="curve" smooth="yes"/>
      <point x="536" y="481"/>
      <point x="546" y="440"/>
      <point x="523" y="413" type="curve"/>
      <point x="422" y="285" type="line"/>
      <point x="583" y="312" type="line" smooth="yes"/>
      <point x="618" y="319"/>
      <point x="650" y="289"/>
      <point x="650" y="250" type="curve" smooth="yes"/>
      <point x="650" y="211"/>
      <point x="618" y="181"/>
      <point x="583" y="188" type="curve" smooth="yes"/>
      <point x="422" y="215" type="line"/>
      <point x="527" y="87" type="line" smooth="yes"/>
      <point x="548" y="62"/>
      <point x="537" y="20"/>
      <point x="504" y="0" type="curve" smooth="yes"/>
      <point x="471" y="-20"/>
      <point x="427" y="-5"/>
      <point x="414" y="31" type="curve" smooth="yes"/>
      <point x="360" y="181" type="line"/>
      <point x="306" y="31" type="line" smooth="yes"/>
      <point x="293" y="-5"/>
      <point x="249" y="-20"/>
      <point x="214" y="0" type="curve" smooth="yes"/>
      <point x="181" y="20"/>
      <point x="171" y="64"/>
      <point x="195" y="92" type="curve" smooth="yes"/>
      <point x="298" y="215" type="line"/>
      <point x="143" y="188" type="line"/>
      <point x="103" y="188"/>
      <point x="70" y="215"/>
      <point x="70" y="250" type="curve" smooth="yes"/>
    </contour>
  </outline>
</glyph>
<glyph name="hyphen" format="1">
  <advance width="486"/>
  <unicode hex="002D"/>
  <note>
	hyphen
  </note>
  <outline>
    <contour>
      <point x="70" y="277" type="line"/>
      <point x="416" y="277" type="line"/>
      <point x="416" y="223" type="line"/>
      <point x="70" y="223" type="line"/>
    </contour>
  </outline>
</glyph>
<glyph name="five" format="1">
  <advance width="401"/>
  <unicode hex="0035"/>
  <note>
	five
  </note>
  <outline>
    <contour>
      <point x="86" y="-8"/>
      <point x="45" y="14"/>
      <point x="45" y="39" type="curve" smooth="yes"/>
      <point x="45" y="56"/>
      <point x="62" y="70"/>
      <point x="82" y="70" type="curve" smooth="yes"/>
      <point x="87" y="70"/>
      <point x="95" y="68"/>
      <point x="105" y="63" type="curve"/>
      <point x="145" y="41" type="line" smooth="yes"/>
      <point x="156" y="35"/>
      <point x="172" y="32"/>
      <point x="193" y="32" type="curve" smooth="yes"/>
      <point x="249" y="32"/>
      <point x="295" y="92"/>
      <point x="295" y="165" type="curve" smooth="yes"/>
      <point x="295" y="242"/>
      <point x="198" y="316"/>
      <point x="65" y="340" type="curve"/>
      <point x="150" y="536" type="line"/>
      <point x="311" y="536" type="line" smooth="yes"/>
      <point x="320" y="536"/>
      <point x="330" y="541"/>
      <point x="338" y="550" type="curve"/>
      <point x="356" y="550" type="line"/>
      <point x="326" y="472" type="line"/>
      <point x="162" y="472" type="line"/>
      <point x="129" y="402" type="line"/>
      <point x="258" y="367"/>
      <point x="348" y="282"/>
      <point x="348" y="194" type="curve" smooth="yes"/>
      <point x="348" y="66"/>
      <point x="270" y="-8"/>
      <point x="137" y="-8" type="curve" smooth="yes"/>
    </contour>
  </outline>
</glyph>
<glyph name="six" format="1">
  <advance width="401"/>
  <unicode hex="0036"/>
  <note>
	six
  </note>
  <outline>
    <contour>
      <point x="113" y="-8"/>
      <point x="34" y="94"/>
      <point x="34" y="219" type="curve" smooth="yes"/>
      <point x="34" y="406"/>
      <point x="173" y="558"/>
      <point x="344" y="558" type="curve"/>
      <point x="344" y="528" type="line"/>
      <point x="247" y="520"/>
      <point x="162" y="438"/>
      <point x="131" y="323" type="curve"/>
      <point x="144" y="339"/>
      <point x="179" y="348"/>
      <point x="224" y="348" type="curve" smooth="yes"/>
      <point x="303" y="348"/>
      <point x="367" y="281"/>
      <point x="367" y="197" type="curve" smooth="yes"/>
      <point x="367" y="84"/>
      <point x="297" y="-8"/>
      <point x="210" y="-8" type="curve" smooth="yes"/>
    </contour>
    <contour>
      <point x="262" y="25"/>
      <point x="298" y="84"/>
      <point x="298" y="159" type="curve" smooth="yes"/>
      <point x="298" y="246"/>
      <point x="249" y="315"/>
      <point x="189" y="315" type="curve" smooth="yes"/>
      <point x="164" y="315"/>
      <point x="137" y="302"/>
      <point x="117" y="278" type="curve"/>
      <point x="110" y="240"/>
      <point x="107" y="215"/>
      <point x="107" y="204" type="curve" smooth="yes"/>
      <point x="107" y="105"/>
      <point x="156" y="25"/>
      <point x="217" y="25" type="curve" smooth="yes"/>
    </contour>
  </outline>
</glyph>
<glyph name="question" format="1">
  <advance width="522"/>
  <unicode hex="003F"/>
  <note>
	question
  </note>
  <outline>
    <contour>
      <point x="285" y="118" type="line" smooth="yes"/>
      <point x="285" y="135"/>
      <point x="297" y="176"/>
      <point x="322" y="243" type="curve" smooth="yes"/>
      <point x="340" y="292" type="line" smooth="yes"/>
      <point x="354" y="331"/>
      <point x="361" y="370"/>
      <point x="361" y="410" type="curve" smooth="yes"/>
      <point x="361" y="469"/>
      <point x="316" y="517"/>
      <point x="261" y="517" type="curve" smooth="yes"/>
      <point x="222" y="517"/>
      <point x="192" y="490"/>
      <point x="192" y="457" type="curve"/>
      <point x="211" y="450"/>
      <point x="223" y="426"/>
      <point x="223" y="398" type="curve" smooth="yes"/>
      <point x="223" y="377"/>
      <point x="207" y="359"/>
      <point x="187" y="359" type="curve" smooth="yes"/>
      <point x="162" y="359"/>
      <point x="140" y="389"/>
      <point x="140" y="425" type="curve" smooth="yes"/>
      <point x="140" y="494"/>
      <point x="208" y="550"/>
      <point x="292" y="550" type="curve" smooth="yes"/>
      <point x="380" y="550"/>
      <point x="452" y="487"/>
      <point x="452" y="410" type="curve" smooth="yes"/>
      <point x="452" y="369"/>
      <point x="428" y="318"/>
      <point x="385" y="266" type="curve" smooth="yes"/>
      <point x="337" y="209"/>
      <point x="310" y="150"/>
      <point x="310" y="99" type="curve"/>
      <point x="285" y="99" type="line"/>
    </contour>
    <contour>
      <point x="272" y="-50"/>
      <point x="250" y="-28"/>
      <point x="250" y="0" type="curve" smooth="yes"/>
      <point x="250" y="27"/>
      <point x="272" y="49"/>
      <point x="300" y="49" type="curve" smooth="yes"/>
      <point x="327" y="49"/>
      <point x="349" y="27"/>
      <point x="349" y="0" type="curve" smooth="yes"/>
      <point x="349" y="-28"/>
      <point x="327" y="-50"/>
      <point x="300" y="-50" type="curve" smooth="yes"/>
    </contour>
  </outline>
</glyph>
<glyph name="H" format="1">
  <advance width="601"/>
  <unicode hex="0048"/>
  <note>
	H
  </note>
  <outline>
    <contour>
      <point x="6" y="15" type="line"/>
      <point x="53" y="15"/>
      <point x="90" y="45"/>
      <point x="90" y="82" type="curve" smooth="yes"/>
      <point x="90" y="522" type="line" smooth="yes"/>
      <point x="90" y="559"/>
      <point x="53" y="590"/>
      <point x="6" y="590" type="curve"/>
      <point x="6" y="604" type="line"/>
      <point x="225" y="604" type="line"/>
      <point x="225" y="590" type="line"/>
      <point x="184" y="590"/>
      <point x="150" y="559"/>
      <point x="150" y="522" type="curve" smooth="yes"/>
      <point x="150" y="315" type="line"/>
      <point x="460" y="315" type="line"/>
      <point x="460" y="522" type="line" smooth="yes"/>
      <point x="460" y="559"/>
      <point x="425" y="590"/>
      <point x="384" y="590" type="curve"/>
      <point x="384" y="604" type="line"/>
      <point x="594" y="604" type="line"/>
      <point x="594" y="590" type="line"/>
      <point x="553" y="590"/>
      <point x="518" y="559"/>
      <point x="518" y="522" type="curve" smooth="yes"/>
      <point x="518" y="82" type="line" smooth="yes"/>
      <point x="518" y="45"/>
      <point x="553" y="14"/>
      <point x="594" y="14" type="curve"/>
      <point x="594" y="0" type="line"/>
      <point x="384" y="0" type="line"/>
      <point x="384" y="14" type="line"/>
      <point x="425" y="14"/>
      <point x="460" y="45"/>
      <point x="460" y="82" type="curve" smooth="yes"/>
      <point x="460" y="286" type="line"/>
      <point x="150" y="286" type="line"/>
      <point x="150" y="82" type="line" smooth="yes"/>
      <point x="150" y="45"/>
      <point x="184" y="14"/>
      <point x="225" y="14" type="curve"/>
      <point x="225" y="0" type="line"/>
      <point x="6" y="0" type="line"/>
    </contour>
  </outline>
</glyph>
<glyph name="L" format="1">
  <advance width="522"/>
  <unicode hex="004C"/>
  <note>
	L
  </note>
  <outline>
    <contour>
      <point x="6" y="15" type="line"/>
      <point x="53" y="15"/>
      <point x="90" y="42"/>
      <point x="90" y="74" type="curve" smooth="yes"/>
      <point x="90" y="526" type="line" smooth="yes"/>
      <point x="90" y="562"/>
      <point x="53" y="590"/>
      <point x="6" y="590" type="curve"/>
      <point x="6" y="604" type="line"/>
      <point x="225" y="604" type="line"/>
      <point x="225" y="590" type="line"/>
      <point x="184" y="590"/>
      <point x="150" y="562"/>
      <point x="150" y="526" type="curve" smooth="yes"/>
      <point x="150" y="74" type="line" smooth="yes"/>
      <point x="150" y="50"/>
      <point x="180" y="30"/>
      <point x="216" y="30" type="curve" smooth="yes"/>
      <point x="350" y="30" type="line" smooth="yes"/>
      <point x="405" y="30"/>
      <point x="459" y="81"/>
      <point x="487" y="158" type="curve"/>
      <point x="506" y="158" type="line"/>
      <point x="480" y="0" type="line"/>
      <point x="6" y="0" type="line"/>
    </contour>
  </outline>
</glyph>
<glyph name="M" format="1">
  <advance width="753"/>
  <unicode hex="004D"/>
  <note>
	M
  </note>
  <outline>
    <contour>
      <point x="7" y="15" type="line"/>
      <point x="51" y="15"/>
      <point x="87" y="49"/>
      <point x="87" y="90" type="curve" smooth="yes"/>
      <point x="87" y="522" type="line" smooth="yes"/>
      <point x="87" y="559"/>
      <point x="51" y="590"/>
      <point x="7" y="590" type="curve"/>
      <point x="7" y="604" type="line"/>
      <point x="146" y="604" type="line"/>
      <point x="382" y="107" type="line"/>
      <point x="605" y="604" type="line"/>
      <point x="746" y="604" type="line"/>
      <point x="746" y="590" type="line"/>
      <point x="705" y="590"/>
      <point x="670" y="563"/>
      <point x="670" y="530" type="curve" smooth="yes"/>
      <point x="670" y="90" type="line" smooth="yes"/>
      <point x="670" y="49"/>
      <point x="705" y="14"/>
      <point x="746" y="14" type="curve"/>
      <point x="746" y="0" type="line"/>
      <point x="536" y="0" type="line"/>
      <point x="536" y="15" type="line"/>
      <point x="577" y="15"/>
      <point x="611" y="49"/>
      <point x="611" y="90" type="curve" smooth="yes"/>
      <point x="611" y="539" type="line"/>
      <point x="370" y="0" type="line"/>
      <point x="355" y="0" type="line"/>
      <point x="117" y="502" type="line"/>
      <point x="117" y="90" type="line" smooth="yes"/>
      <point x="117" y="49"/>
      <point x="147" y="15"/>
      <point x="184" y="15" type="curve"/>
      <point x="184" y="0" type="line"/>
      <point x="7" y="0" type="line"/>
    </contour>
  </outline>
</glyph>
<glyph name="R" format="1">
  <advance width="572"/>
  <unicode hex="0052"/>
  <note>
	R
  </note>
  <outline>
    <contour>
      <point x="6" y="15" type="line"/>
      <point x="53" y="15"/>
      <point x="90" y="45"/>
      <point x="90" y="82" type="curve" smooth="yes"/>
      <point x="90" y="522" type="line" smooth="yes"/>
      <point x="90" y="559"/>
      <point x="56" y="590"/>
      <point x="15" y="590" type="curve" smooth="yes"/>
      <point x="6" y="590" type="line"/>
      <point x="6" y="604" type="line"/>
      <point x="292" y="604" type="line" smooth="yes"/>
      <point x="393" y="604"/>
      <point x="468" y="538"/>
      <point x="468" y="447" type="curve" smooth="yes"/>
      <point x="468" y="370"/>
      <point x="399" y="301"/>
      <point x="303" y="284" type="curve"/>
      <point x="484" y="61" type="line" smooth="yes"/>
      <point x="508" y="32"/>
      <point x="540" y="14"/>
      <point x="569" y="14" type="curve"/>
      <point x="569" y="0" type="line"/>
      <point x="443" y="0" type="line"/>
      <point x="233" y="277" type="line"/>
      <point x="150" y="277" type="line"/>
      <point x="150" y="82" type="line" smooth="yes"/>
      <point x="150" y="45"/>
      <point x="182" y="15"/>
      <point x="221" y="15" type="curve" smooth="yes"/>
      <point x="225" y="15" type="line"/>
      <point x="225" y="0" type="line"/>
      <point x="6" y="0" type="line"/>
    </contour>
    <contour>
      <point x="212" y="305" type="line" smooth="yes"/>
      <point x="315" y="305"/>
      <point x="397" y="368"/>
      <point x="397" y="447" type="curve" smooth="yes"/>
      <point x="397" y="519"/>
      <point x="322" y="578"/>
      <point x="229" y="578" type="curve" smooth="yes"/>
      <point x="185" y="578"/>
      <point x="150" y="561"/>
      <point x="150" y="538" type="curve" smooth="yes"/>
      <point x="150" y="305" type="line"/>
    </contour>
  </outline>
</glyph>
<glyph name="asciicircum" format="1">
  <advance width="535"/>
  <unicode hex="005E"/>
  <note>
	asciicircum
  </note>
  <outline>
    <contour>
      <point x="303" y="399" type="line"/>
      <point x="465" y="111" type="line"/>
      <point x="433" y="111" type="line"/>
      <point x="268" y="295" type="line"/>
      <point x="101" y="111" type="line"/>
      <point x="70" y="111" type="line"/>
      <point x="229" y="399" type="line"/>
    </contour>
  </outline>
</glyph>
<glyph name="grave" format="1">
  <advance width="274"/>
  <unicode hex="0060"/>
  <note>
	grave
  </note>
  <outline>
    <contour>
      <point x="161" y="685" type="line"/>
      <point x="204" y="492" type="line"/>
      <point x="175" y="492" type="line"/>
      <point x="70" y="685" type="line"/>
    </contour>
  </outline>
</glyph>
<glyph name="b" format="1">
  <advance width="462"/>
  <unicode hex="0062"/>
  <note>
	b
  </note>
  <outline>
    <contour>
      <point x="153" y="-4"/>
      <point x="100" y="15"/>
      <point x="71" y="50" type="curve"/>
      <point x="71" y="535" type="line" smooth="yes"/>
      <point x="71" y="554"/>
      <point x="50" y="570"/>
      <point x="25" y="570" type="curve"/>
      <point x="25" y="585" type="line"/>
      <point x="122" y="617" type="line"/>
      <point x="122" y="350" type="line"/>
      <point x="157" y="391"/>
      <point x="209" y="416"/>
      <point x="264" y="416" type="curve" smooth="yes"/>
      <point x="349" y="416"/>
      <point x="419" y="334"/>
      <point x="419" y="234" type="curve" smooth="yes"/>
      <point x="419" y="102"/>
      <point x="327" y="-4"/>
      <point x="214" y="-4" type="curve" smooth="yes"/>
    </contour>
    <contour>
      <point x="301" y="18"/>
      <point x="365" y="103"/>
      <point x="365" y="208" type="curve" smooth="yes"/>
      <point x="365" y="297"/>
      <point x="303" y="369"/>
      <point x="226" y="369" type="curve" smooth="yes"/>
      <point x="187" y="369"/>
      <point x="149" y="350"/>
      <point x="122" y="318" type="curve"/>
      <point x="122" y="52" type="line"/>
      <point x="141" y="31"/>
      <point x="177" y="18"/>
      <point x="222" y="18" type="curve" smooth="yes"/>
    </contour>
  </outline>
</glyph>
<glyph name="f" format="1">
  <advance width="250"/>
  <unicode hex="0066"/>
  <note>
	f
  </note>
  <outline>
    <contour>
      <point x="9" y="15" type="line"/>
      <point x="50" y="15"/>
      <point x="84" y="38"/>
      <point x="84" y="66" type="curve" smooth="yes"/>
      <point x="84" y="390" type="line"/>
      <point x="9" y="390" type="line"/>
      <point x="9" y="411" type="line"/>
      <point x="84" y="411" type="line"/>
      <point x="84" y="464" type="line" smooth="yes"/>
      <point x="84" y="540"/>
      <point x="151" y="609"/>
      <point x="226" y="609" type="curve" smooth="yes"/>
      <point x="273" y="609"/>
      <point x="310" y="584"/>
      <point x="310" y="552" type="curve" smooth="yes"/>
      <point x="310" y="536"/>
      <point x="301" y="524"/>
      <point x="290" y="524" type="curve" smooth="yes"/>
      <point x="281" y="524"/>
      <point x="270" y="533"/>
      <point x="261" y="549" type="curve" smooth="yes"/>
      <point x="249" y="570"/>
      <point x="227" y="583"/>
      <point x="206" y="583" type="curve" smooth="yes"/>
      <point x="166" y="583"/>
      <point x="134" y="554"/>
      <point x="134" y="518" type="curve" smooth="yes"/>
      <point x="134" y="411" type="line"/>
      <point x="243" y="411" type="line"/>
      <point x="243" y="390" type="line"/>
      <point x="134" y="390" type="line"/>
      <point x="134" y="66" type="line" smooth="yes"/>
      <point x="134" y="37"/>
      <point x="171" y="14"/>
      <point x="218" y="14" type="curve"/>
      <point x="218" y="0" type="line"/>
      <point x="9" y="0" type="line"/>
    </contour>
  </outline>
</glyph>
<glyph name="n" format="1">
  <advance width="453"/>
  <unicode hex="006E"/>
  <note>
	n
  </note>
  <outline>
    <contour>
      <point x="24" y="15" type="line"/>
      <point x="56" y="15"/>
      <point x="83" y="38"/>
      <point x="83" y="66" type="curve" smooth="yes"/>
      <point x="83" y="317" type="line" smooth="yes"/>
      <point x="83" y="341"/>
      <point x="62" y="361"/>
      <point x="37" y="361" type="curve" smooth="yes"/>
      <point x="24" y="361" type="line"/>
      <point x="24" y="375" type="line"/>
      <point x="134" y="415" type="line"/>
      <point x="134" y="346" type="line"/>
      <point x="171" y="390"/>
      <point x="221" y="415"/>
      <point x="272" y="415" type="curve" smooth="yes"/>
      <point x="329" y="415"/>
      <point x="377" y="368"/>
      <point x="377" y="309" type="curve" smooth="yes"/>
      <point x="377" y="66" type="line" smooth="yes"/>
      <point x="377" y="37"/>
      <point x="403" y="14"/>
      <point x="435" y="14" type="curve"/>
      <point x="435" y="0" type="line"/>
      <point x="276" y="0" type="line"/>
      <point x="276" y="15" type="line"/>
      <point x="304" y="15"/>
      <point x="326" y="38"/>
      <point x="326" y="66" type="curve" smooth="yes"/>
      <point x="326" y="296" type="line" smooth="yes"/>
      <point x="326" y="339"/>
      <point x="289" y="374"/>
      <point x="242" y="374" type="curve" smooth="yes"/>
      <point x="201" y="374"/>
      <point x="161" y="351"/>
      <point x="134" y="314" type="curve"/>
      <point x="134" y="66" type="line" smooth="yes"/>
      <point x="134" y="38"/>
      <point x="160" y="15"/>
      <point x="192" y="15" type="curve"/>
      <point x="192" y="0" type="line"/>
      <point x="24" y="0" type="line"/>
    </contour>
  </outline>
</glyph>
<glyph name="p" format="1">
  <advance width="469"/>
  <unicode hex="0070"/>
  <note>
	p
  </note>
  <outline>
    <contour>
      <point x="13" y="-186" type="line"/>
      <point x="50" y="-186"/>
      <point x="80" y="-159"/>
      <point x="80" y="-127" type="curve" smooth="yes"/>
      <point x="80" y="317" type="line" smooth="yes"/>
      <point x="80" y="341"/>
      <point x="58" y="361"/>
      <point x="30" y="361" type="curve" smooth="yes"/>
      <point x="18" y="361" type="line"/>
      <point x="17" y="375" type="line"/>
      <point x="130" y="415" type="line"/>
      <point x="130" y="350" type="line"/>
      <point x="159" y="391"/>
      <point x="208" y="416"/>
      <point x="260" y="416" type="curve" smooth="yes"/>
      <point x="351" y="416"/>
      <point x="424" y="330"/>
      <point x="424" y="225" type="curve" smooth="yes"/>
      <point x="424" y="96"/>
      <point x="342" y="-8"/>
      <point x="239" y="-8" type="curve" smooth="yes"/>
      <point x="191" y="-8"/>
      <point x="151" y="6"/>
      <point x="130" y="31" type="curve"/>
      <point x="130" y="-127" type="line" smooth="yes"/>
      <point x="130" y="-159"/>
      <point x="165" y="-186"/>
      <point x="206" y="-186" type="curve"/>
      <point x="206" y="-202" type="line"/>
      <point x="13" y="-202" type="line"/>
    </contour>
    <contour>
      <point x="310" y="14"/>
      <point x="374" y="94"/>
      <point x="374" y="191" type="curve" smooth="yes"/>
      <point x="374" y="292"/>
      <point x="315" y="374"/>
      <point x="243" y="374" type="curve" smooth="yes"/>
      <point x="192" y="374"/>
      <point x="149" y="349"/>
      <point x="130" y="310" type="curve"/>
      <point x="130" y="73" type="line"/>
      <point x="143" y="37"/>
      <point x="183" y="14"/>
      <point x="230" y="14" type="curve" smooth="yes"/>
    </contour>
  </outline>
</glyph>
<glyph name="r" format="1">
  <advance width="316"/>
  <unicode hex="0072"/>
  <note>
	r
  </note>
  <outline>
    <contour>
      <point x="18" y="15" type="line"/>
      <point x="55" y="15"/>
      <point x="85" y="38"/>
      <point x="85" y="66" type="curve" smooth="yes"/>
      <point x="85" y="317" type="line" smooth="yes"/>
      <point x="85" y="341"/>
      <point x="61" y="361"/>
      <point x="30" y="361" type="curve" smooth="yes"/>
      <point x="18" y="361" type="line"/>
      <point x="18" y="375" type="line"/>
      <point x="135" y="415" type="line"/>
      <point x="135" y="342" type="line"/>
      <point x="167" y="389"/>
      <point x="213" y="416"/>
      <point x="257" y="416" type="curve" smooth="yes"/>
      <point x="282" y="416"/>
      <point x="303" y="396"/>
      <point x="303" y="372" type="curve" smooth="yes"/>
      <point x="303" y="352"/>
      <point x="289" y="335"/>
      <point x="270" y="335" type="curve" smooth="yes"/>
      <point x="258" y="335"/>
      <point x="247" y="340"/>
      <point x="239" y="348" type="curve" smooth="yes"/>
      <point x="228" y="359"/>
      <point x="218" y="365"/>
      <point x="210" y="365" type="curve" smooth="yes"/>
      <point x="182" y="365"/>
      <point x="154" y="340"/>
      <point x="135" y="301" type="curve"/>
      <point x="135" y="66" type="line" smooth="yes"/>
      <point x="135" y="38"/>
      <point x="169" y="15"/>
      <point x="210" y="15" type="curve"/>
      <point x="210" y="0" type="line"/>
      <point x="18" y="0" type="line"/>
    </contour>
  </outline>
</glyph>
<glyph name="uni0981.001" format="1">
  <advance width="694"/>
  <unicode hex="0080"/>
  <note>
	uni0981.001
  </note>
  <outline>
    <contour>
      <point x="281" y="-6"/>
      <point x="175" y="61"/>
      <point x="131" y="165" type="curve"/>
      <point x="75" y="165" type="line"/>
      <point x="75" y="212" type="line"/>
      <point x="116" y="212" type="line"/>
      <point x="111" y="234"/>
      <point x="109" y="259"/>
      <point x="109" y="286" type="curve" smooth="yes"/>
      <point x="109" y="307"/>
      <point x="110" y="325"/>
      <point x="112" y="341" type="curve"/>
      <point x="75" y="341" type="line"/>
      <point x="75" y="388" type="line"/>
      <point x="121" y="388" type="line"/>
      <point x="153" y="517"/>
      <point x="271" y="609"/>
      <point x="406" y="609" type="curve" smooth="yes"/>
      <point x="437" y="609"/>
      <point x="468" y="604"/>
      <point x="497" y="593" type="curve" smooth="yes"/>
      <point x="528" y="582"/>
      <point x="549" y="576"/>
      <point x="558" y="576" type="curve" smooth="yes"/>
      <point x="577" y="576"/>
      <point x="593" y="588"/>
      <point x="596" y="604" type="curve"/>
      <point x="610" y="604" type="line"/>
      <point x="615" y="411" type="line"/>
      <point x="602" y="411" type="line"/>
      <point x="575" y="511"/>
      <point x="495" y="580"/>
      <point x="406" y="580" type="curve" smooth="yes"/>
      <point x="303" y="580"/>
      <point x="212" y="500"/>
      <point x="187" y="388" type="curve"/>
      <point x="474" y="388" type="line"/>
      <point x="474" y="341" type="line"/>
      <point x="179" y="341" type="line"/>
      <point x="177" y="325"/>
      <point x="176" y="307"/>
      <point x="176" y="286" type="curve" smooth="yes"/>
      <point x="176" y="262"/>
      <point x="179" y="237"/>
      <point x="184" y="212" type="curve"/>
      <point x="474" y="212" type="line"/>
      <point x="474" y="165" type="line"/>
      <point x="199" y="165" type="line"/>
      <point x="236" y="81"/>
      <point x="322" y="26"/>
      <point x="415" y="26" type="curve" smooth="yes"/>
      <point x="484" y="26"/>
      <point x="554" y="61"/>
      <point x="607" y="122" type="curve"/>
      <point x="618" y="110" type="line"/>
      <point x="565" y="37"/>
      <point x="483" y="-6"/>
      <point x="398" y="-6" type="curve" smooth="yes"/>
    </contour>
  </outline>
</glyph>
<glyph name="exclamdown" format="1">
  <advance width="234"/>
  <unicode hex="00A1"/>
  <note>
	exclamdown
  </note>
  <outline>
    <contour>
      <point x="94" y="426"/>
      <point x="75" y="404"/>
      <point x="75" y="377" type="curve" smooth="yes"/>
      <point x="75" y="350"/>
      <point x="94" y="328"/>
      <point x="118" y="328" type="curve" smooth="yes"/>
      <point x="141" y="328"/>
      <point x="159" y="350"/>
      <point x="159" y="377" type="curve" smooth="yes"/>
      <point x="159" y="404"/>
      <point x="141" y="426"/>
      <point x="118" y="426" type="curve" smooth="yes"/>
    </contour>
    <contour>
      <point x="80" y="-126" type="line"/>
      <point x="80" y="-162"/>
      <point x="97" y="-192"/>
      <point x="118" y="-192" type="curve" smooth="yes"/>
      <point x="138" y="-192"/>
      <point x="155" y="-162"/>
      <point x="155" y="-126" type="curve"/>
      <point x="127" y="258" type="line"/>
      <point x="107" y="258" type="line"/>
    </contour>
  </outline>
</glyph>
<glyph name="cent" format="1">
  <advance width="485"/>
  <unicode hex="00A2"/>
  <note>
	cent
  </note>
  <outline>
    <contour>
      <point x="234" y="-10"/>
      <point x="204" y="-3"/>
      <point x="171" y="12" type="curve"/>
      <point x="117" y="-129" type="line"/>
      <point x="74" y="-129" type="line"/>
      <point x="135" y="34" type="line"/>
      <point x="74" y="83"/>
      <point x="39" y="159"/>
      <point x="39" y="240" type="curve" smooth="yes"/>
      <point x="39" y="384"/>
      <point x="150" y="500"/>
      <point x="289" y="500" type="curve" smooth="yes"/>
      <point x="310" y="500" type="line"/>
      <point x="378" y="681" type="line"/>
      <point x="423" y="681" type="line"/>
      <point x="351" y="494" type="line"/>
      <point x="404" y="477"/>
      <point x="441" y="441"/>
      <point x="441" y="405" type="curve" smooth="yes"/>
      <point x="441" y="381"/>
      <point x="424" y="362"/>
      <point x="403" y="362" type="curve" smooth="yes"/>
      <point x="379" y="362"/>
      <point x="358" y="380"/>
      <point x="354" y="407" type="curve"/>
      <point x="353" y="409"/>
      <point x="351" y="412"/>
      <point x="346" y="417" type="curve" smooth="yes"/>
      <point x="339" y="424"/>
      <point x="335" y="430"/>
      <point x="332" y="435" type="curve"/>
      <point x="198" y="83" type="line"/>
      <point x="225" y="65"/>
      <point x="252" y="56"/>
      <point x="279" y="56" type="curve" smooth="yes"/>
      <point x="346" y="56"/>
      <point x="408" y="92"/>
      <point x="441" y="151" type="curve"/>
      <point x="466" y="139" type="line"/>
      <point x="442" y="51"/>
      <point x="359" y="-10"/>
      <point x="263" y="-10" type="curve" smooth="yes"/>
    </contour>
    <contour>
      <point x="296" y="458" type="line"/>
      <point x="290" y="460"/>
      <point x="281" y="461"/>
      <point x="269" y="461" type="curve" smooth="yes"/>
      <point x="178" y="461"/>
      <point x="105" y="385"/>
      <point x="105" y="292" type="curve" smooth="yes"/>
      <point x="105" y="212"/>
      <point x="126" y="147"/>
      <point x="163" y="111" type="curve"/>
    </contour>
  </outline>
</glyph>
<glyph name="currency" format="1">
  <advance width="559"/>
  <unicode hex="00A4"/>
  <note>
	currency
  </note>
  <outline>
    <contour>
      <point x="240" y="0"/>
      <point x="194" y="18"/>
      <point x="158" y="50" type="curve"/>
      <point x="101" y="-2" type="line"/>
      <point x="75" y="31" type="line"/>
      <point x="129" y="78" type="line"/>
      <point x="104" y="110"/>
      <point x="90" y="155"/>
      <point x="90" y="204" type="curve" smooth="yes"/>
      <point x="90" y="259"/>
      <point x="110" y="311"/>
      <point x="146" y="350" type="curve"/>
      <point x="111" y="385" type="line"/>
      <point x="137" y="410" type="line"/>
      <point x="174" y="374" type="line"/>
      <point x="207" y="398"/>
      <point x="245" y="410"/>
      <point x="286" y="410" type="curve" smooth="yes"/>
      <point x="331" y="410"/>
      <point x="371" y="397"/>
      <point x="405" y="370" type="curve"/>
      <point x="446" y="410" type="line"/>
      <point x="471" y="381" type="line"/>
      <point x="431" y="345" type="line"/>
      <point x="466" y="308"/>
      <point x="484" y="257"/>
      <point x="484" y="204" type="curve" smooth="yes"/>
      <point x="484" y="155"/>
      <point x="469" y="112"/>
      <point x="440" y="75" type="curve"/>
      <point x="479" y="35" type="line"/>
      <point x="450" y="-2" type="line"/>
      <point x="409" y="43" type="line"/>
      <point x="374" y="14"/>
      <point x="333" y="0"/>
      <point x="287" y="0" type="curve" smooth="yes"/>
    </contour>
    <contour>
      <point x="364" y="50"/>
      <point x="426" y="119"/>
      <point x="426" y="204" type="curve" smooth="yes"/>
      <point x="426" y="293"/>
      <point x="364" y="365"/>
      <point x="287" y="365" type="curve" smooth="yes"/>
      <point x="211" y="365"/>
      <point x="149" y="293"/>
      <point x="149" y="204" type="curve" smooth="yes"/>
      <point x="149" y="119"/>
      <point x="211" y="50"/>
      <point x="287" y="50" type="curve" smooth="yes"/>
    </contour>
  </outline>
</glyph>
<glyph name="section" format="1">
  <advance width="401"/>
  <unicode hex="00A7"/>
  <note>
	section
  </note>
  <outline>
    <contour>
      <point x="75" y="135" type="line"/>
      <point x="90" y="135" type="line"/>
      <point x="102" y="66"/>
      <point x="151" y="14"/>
      <point x="204" y="14" type="curve" smooth="yes"/>
      <point x="252" y="14"/>
      <point x="292" y="46"/>
      <point x="292" y="86" type="curve" smooth="yes"/>
      <point x="292" y="119"/>
      <point x="250" y="157"/>
      <point x="186" y="180" type="curve" smooth="yes"/>
      <point x="123" y="203"/>
      <point x="82" y="254"/>
      <point x="82" y="309" type="curve" smooth="yes"/>
      <point x="82" y="345"/>
      <point x="100" y="379"/>
      <point x="131" y="399" type="curve"/>
      <point x="100" y="426"/>
      <point x="82" y="461"/>
      <point x="82" y="497" type="curve" smooth="yes"/>
      <point x="82" y="556"/>
      <point x="127" y="604"/>
      <point x="183" y="604" type="curve" smooth="yes"/>
      <point x="200" y="604"/>
      <point x="216" y="601"/>
      <point x="231" y="596" type="curve" smooth="yes"/>
      <point x="248" y="590"/>
      <point x="261" y="587"/>
      <point x="271" y="587" type="curve" smooth="yes"/>
      <point x="280" y="587"/>
      <point x="287" y="592"/>
      <point x="290" y="599" type="curve"/>
      <point x="302" y="599" type="line"/>
      <point x="311" y="478" type="line"/>
      <point x="296" y="478" type="line"/>
      <point x="280" y="539"/>
      <point x="235" y="582"/>
      <point x="187" y="582" type="curve" smooth="yes"/>
      <point x="148" y="582"/>
      <point x="116" y="555"/>
      <point x="116" y="522" type="curve" smooth="yes"/>
      <point x="116" y="486"/>
      <point x="157" y="447"/>
      <point x="218" y="424" type="curve" smooth="yes"/>
      <point x="283" y="400"/>
      <point x="326" y="352"/>
      <point x="326" y="304" type="curve" smooth="yes"/>
      <point x="326" y="264"/>
      <point x="306" y="227"/>
      <point x="274" y="206" type="curve"/>
      <point x="307" y="181"/>
      <point x="326" y="147"/>
      <point x="326" y="116" type="curve" smooth="yes"/>
      <point x="326" y="48"/>
      <point x="272" y="-8"/>
      <point x="204" y="-8" type="curve" smooth="yes"/>
      <point x="163" y="-8"/>
      <point x="127" y="5"/>
      <point x="106" y="26" type="curve"/>
      <point x="98" y="0" type="line"/>
      <point x="86" y="0" type="line"/>
    </contour>
    <contour>
      <point x="129" y="375"/>
      <point x="116" y="355"/>
      <point x="116" y="334" type="curve" smooth="yes"/>
      <point x="116" y="298"/>
      <point x="157" y="259"/>
      <point x="218" y="236" type="curve"/>
      <point x="227" y="233"/>
      <point x="237" y="228"/>
      <point x="247" y="223" type="curve"/>
      <point x="275" y="236"/>
      <point x="292" y="261"/>
      <point x="292" y="286" type="curve" smooth="yes"/>
      <point x="292" y="313"/>
      <point x="250" y="345"/>
      <point x="186" y="368" type="curve" smooth="yes"/>
      <point x="175" y="372"/>
      <point x="163" y="378"/>
      <point x="150" y="386" type="curve"/>
    </contour>
  </outline>
</glyph>
<glyph name="minus" format="1">
  <advance width="364"/>
  <unicode hex="00AD"/>
  <note>
	minus
  </note>
  <outline>
    <contour>
      <point x="9" y="272" type="line"/>
      <point x="355" y="272" type="line"/>
      <point x="355" y="218" type="line"/>
      <point x="9" y="218" type="line"/>
    </contour>
  </outline>
</glyph>
<glyph name="paragraph" format="1">
  <advance width="578"/>
  <unicode hex="00B6"/>
  <note>
	paragraph
  </note>
  <outline>
    <contour>
      <point x="235" y="344" type="line"/>
      <point x="202" y="344" type="line" smooth="yes"/>
      <point x="131" y="345"/>
      <point x="75" y="405"/>
      <point x="75" y="478" type="curve" smooth="yes"/>
      <point x="75" y="553"/>
      <point x="134" y="612"/>
      <point x="206" y="612" type="curve" smooth="yes"/>
      <point x="503" y="612" type="line"/>
      <point x="503" y="587" type="line"/>
      <point x="419" y="587" type="line"/>
      <point x="419" y="-109" type="line"/>
      <point x="386" y="-109" type="line"/>
      <point x="386" y="587" type="line"/>
      <point x="269" y="587" type="line"/>
      <point x="269" y="-109" type="line"/>
      <point x="235" y="-109" type="line"/>
    </contour>
  </outline>
</glyph>
<glyph name="periodcentered" format="1">
  <advance width="234"/>
  <unicode hex="00B7"/>
  <note>
	periodcentered
  </note>
  <outline>
    <contour>
      <point x="94" y="172"/>
      <point x="75" y="192"/>
      <point x="75" y="216" type="curve" smooth="yes"/>
      <point x="75" y="243"/>
      <point x="94" y="265"/>
      <point x="118" y="265" type="curve" smooth="yes"/>
      <point x="141" y="265"/>
      <point x="159" y="243"/>
      <point x="159" y="216" type="curve" smooth="yes"/>
      <point x="159" y="192"/>
      <point x="141" y="172"/>
      <point x="118" y="172" type="curve" smooth="yes"/>
    </contour>
  </outline>
</glyph>
<glyph name="onesuperior" format="1">
  <advance width="279"/>
  <unicode hex="00B9"/>
  <note>
	onesuperior
  </note>
  <outline>
    <contour>
      <point x="75" y="321" type="line"/>
      <point x="85" y="321" type="line" smooth="yes"/>
      <point x="110" y="321"/>
      <point x="130" y="332"/>
      <point x="130" y="345" type="curve" smooth="yes"/>
      <point x="130" y="553" type="line" smooth="yes"/>
      <point x="130" y="561"/>
      <point x="122" y="568"/>
      <point x="113" y="568" type="curve" smooth="yes"/>
      <point x="104" y="568"/>
      <point x="95" y="565"/>
      <point x="84" y="559" type="curve"/>
      <point x="80" y="564" type="line"/>
      <point x="154" y="602" type="line"/>
      <point x="154" y="347" type="line" smooth="yes"/>
      <point x="154" y="332"/>
      <point x="171" y="321"/>
      <point x="194" y="321" type="curve" smooth="yes"/>
      <point x="204" y="321" type="line"/>
      <point x="204" y="312" type="line"/>
      <point x="75" y="312" type="line"/>
    </contour>
  </outline>
</glyph>
<glyph name="questiondown" format="1">
  <advance width="457"/>
  <unicode hex="00BF"/>
  <note>
	questiondown
  </note>
  <outline>
    <contour>
      <point x="251" y="418"/>
      <point x="268" y="398"/>
      <point x="268" y="374" type="curve" smooth="yes"/>
      <point x="268" y="349"/>
      <point x="251" y="329"/>
      <point x="230" y="329" type="curve" smooth="yes"/>
      <point x="210" y="329"/>
      <point x="193" y="349"/>
      <point x="193" y="374" type="curve" smooth="yes"/>
      <point x="193" y="398"/>
      <point x="210" y="418"/>
      <point x="230" y="418" type="curve" smooth="yes"/>
    </contour>
    <contour>
      <point x="243" y="259" type="line" smooth="yes"/>
      <point x="243" y="207"/>
      <point x="218" y="144"/>
      <point x="173" y="79" type="curve" smooth="yes"/>
      <point x="147" y="42"/>
      <point x="134" y="-2"/>
      <point x="134" y="-51" type="curve" smooth="yes"/>
      <point x="134" y="-115"/>
      <point x="184" y="-166"/>
      <point x="247" y="-166" type="curve" smooth="yes"/>
      <point x="298" y="-166"/>
      <point x="339" y="-135"/>
      <point x="339" y="-98" type="curve" smooth="yes"/>
      <point x="339" y="-90"/>
      <point x="334" y="-79"/>
      <point x="323" y="-67" type="curve"/>
      <point x="315" y="-56"/>
      <point x="310" y="-47"/>
      <point x="310" y="-38" type="curve" smooth="yes"/>
      <point x="310" y="-18"/>
      <point x="324" y="-2"/>
      <point x="343" y="-2" type="curve" smooth="yes"/>
      <point x="364" y="-2"/>
      <point x="382" y="-32"/>
      <point x="382" y="-68" type="curve" smooth="yes"/>
      <point x="382" y="-136"/>
      <point x="314" y="-192"/>
      <point x="230" y="-192" type="curve" smooth="yes"/>
      <point x="145" y="-192"/>
      <point x="75" y="-128"/>
      <point x="75" y="-51" type="curve" smooth="yes"/>
      <point x="75" y="-8"/>
      <point x="101" y="44"/>
      <point x="146" y="99" type="curve" smooth="yes"/>
      <point x="197" y="160"/>
      <point x="225" y="222"/>
      <point x="225" y="274" type="curve"/>
      <point x="243" y="274" type="line"/>
    </contour>
  </outline>
</glyph>
<glyph name="Aring" format="1">
  <advance width="598"/>
  <unicode hex="00C5"/>
  <note>
	Aring
  </note>
  <outline>
    <contour>
      <point x="5" y="14" type="line"/>
      <point x="32" y="14"/>
      <point x="63" y="47"/>
      <point x="83" y="98" type="curve" smooth="yes"/>
      <point x="288" y="604" type="line"/>
      <point x="300" y="604" type="line"/>
      <point x="518" y="98" type="line" smooth="yes"/>
      <point x="539" y="47"/>
      <point x="569" y="14"/>
      <point x="592" y="14" type="curve"/>
      <point x="592" y="0" type="line"/>
      <point x="408" y="0" type="line"/>
      <point x="408" y="14" type="line"/>
      <point x="412" y="14" type="line" smooth="yes"/>
      <point x="440" y="14"/>
      <point x="462" y="32"/>
      <point x="462" y="53" type="curve" smooth="yes"/>
      <point x="462" y="61"/>
      <point x="458" y="75"/>
      <point x="449" y="96" type="curve" smooth="yes"/>
      <point x="403" y="202" type="line"/>
      <point x="158" y="202" type="line"/>
      <point x="120" y="107" type="line" smooth="yes"/>
      <point x="108" y="77"/>
      <point x="102" y="58"/>
      <point x="102" y="49" type="curve" smooth="yes"/>
      <point x="102" y="30"/>
      <point x="119" y="14"/>
      <point x="139" y="14" type="curve" smooth="yes"/>
      <point x="148" y="14" type="line"/>
      <point x="148" y="0" type="line"/>
      <point x="5" y="0" type="line"/>
    </contour>
    <contour>
      <point x="395" y="227" type="line"/>
      <point x="282" y="510" type="line"/>
      <point x="168" y="227" type="line"/>
    </contour>
    <contour>
      <point x="209" y="773"/>
      <point x="246" y="811"/>
      <point x="293" y="811" type="curve" smooth="yes"/>
      <point x="338" y="811"/>
      <point x="374" y="773"/>
      <point x="374" y="728" type="curve" smooth="yes"/>
      <point x="374" y="683"/>
      <point x="338" y="645"/>
      <point x="293" y="645" type="curve" smooth="yes"/>
      <point x="246" y="645"/>
      <point x="209" y="683"/>
      <point x="209" y="728" type="curve" smooth="yes"/>
    </contour>
    <contour>
      <point x="242" y="700"/>
      <point x="265" y="678"/>
      <point x="293" y="678" type="curve" smooth="yes"/>
      <point x="321" y="678"/>
      <point x="343" y="700"/>
      <point x="343" y="728" type="curve" smooth="yes"/>
      <point x="343" y="757"/>
      <point x="321" y="780"/>
      <point x="293" y="780" type="curve" smooth="yes"/>
      <point x="265" y="780"/>
      <point x="242" y="757"/>
      <point x="242" y="728" type="curve" smooth="yes"/>
    </contour>
  </outline>
</glyph>
<glyph name="Ccedilla" format="1">
  <advance width="575"/>
  <unicode hex="00C7"/>
  <note>
	Ccedilla
  </note>
  <outline>
    <contour>
      <point x="155" y="3"/>
      <point x="37" y="131"/>
      <point x="37" y="286" type="curve" smooth="yes"/>
      <point x="37" y="482"/>
      <point x="154" y="609"/>
      <point x="334" y="609" type="curve" smooth="yes"/>
      <point x="365" y="609"/>
      <point x="396" y="604"/>
      <point x="425" y="593" type="curve" smooth="yes"/>
      <point x="456" y="582"/>
      <point x="477" y="576"/>
      <point x="486" y="576" type="curve" smooth="yes"/>
      <point x="505" y="576"/>
      <point x="521" y="588"/>
      <point x="524" y="604" type="curve"/>
      <point x="538" y="604" type="line"/>
      <point x="543" y="411" type="line"/>
      <point x="530" y="411" type="line"/>
      <point x="503" y="511"/>
      <point x="423" y="580"/>
      <point x="334" y="580" type="curve" smooth="yes"/>
      <point x="195" y="580"/>
      <point x="104" y="463"/>
      <point x="104" y="286" type="curve" smooth="yes"/>
      <point x="104" y="129"/>
      <point x="199" y="26"/>
      <point x="343" y="26" type="curve" smooth="yes"/>
      <point x="412" y="26"/>
      <point x="482" y="61"/>
      <point x="535" y="122" type="curve"/>
      <point x="546" y="110" type="line"/>
      <point x="497" y="42"/>
      <point x="421" y="-1"/>
      <point x="342" y="-5" type="curve"/>
      <point x="330" y="-38" type="line"/>
      <point x="373" y="-50"/>
      <point x="402" y="-79"/>
      <point x="402" y="-110" type="curve" smooth="yes"/>
      <point x="402" y="-151"/>
      <point x="359" y="-186"/>
      <point x="306" y="-186" type="curve" smooth="yes"/>
      <point x="267" y="-186"/>
      <point x="236" y="-177"/>
      <point x="220" y="-161" type="curve"/>
      <point x="242" y="-137" type="line"/>
      <point x="253" y="-154"/>
      <point x="277" y="-166"/>
      <point x="306" y="-166" type="curve" smooth="yes"/>
      <point x="341" y="-166"/>
      <point x="368" y="-143"/>
      <point x="368" y="-115" type="curve" smooth="yes"/>
      <point x="368" y="-84"/>
      <point x="331" y="-60"/>
      <point x="286" y="-60" type="curve"/>
      <point x="306" y="-5" type="line"/>
    </contour>
  </outline>
</glyph>
<glyph name="Egrave" format="1">
  <advance width="521"/>
  <unicode hex="00C8"/>
  <note>
	Egrave
  </note>
  <outline>
    <contour>
      <point x="6" y="15" type="line"/>
      <point x="53" y="15"/>
      <point x="90" y="49"/>
      <point x="90" y="90" type="curve" smooth="yes"/>
      <point x="90" y="522" type="line" smooth="yes"/>
      <point x="90" y="559"/>
      <point x="53" y="590"/>
      <point x="6" y="590" type="curve"/>
      <point x="6" y="604" type="line"/>
      <point x="460" y="604" type="line"/>
      <point x="460" y="478" type="line"/>
      <point x="448" y="478" type="line"/>
      <point x="439" y="534"/>
      <point x="404" y="574"/>
      <point x="367" y="574" type="curve" smooth="yes"/>
      <point x="200" y="574" type="line" smooth="yes"/>
      <point x="172" y="574"/>
      <point x="150" y="557"/>
      <point x="150" y="534" type="curve" smooth="yes"/>
      <point x="150" y="332" type="line"/>
      <point x="326" y="332" type="line" smooth="yes"/>
      <point x="365" y="332"/>
      <point x="395" y="371"/>
      <point x="395" y="419" type="curve"/>
      <point x="410" y="419" type="line"/>
      <point x="410" y="206" type="line"/>
      <point x="395" y="206" type="line"/>
      <point x="395" y="259"/>
      <point x="365" y="302"/>
      <point x="326" y="302" type="curve" smooth="yes"/>
      <point x="150" y="302" type="line"/>
      <point x="150" y="82" type="line" smooth="yes"/>
      <point x="150" y="53"/>
      <point x="182" y="30"/>
      <point x="221" y="30" type="curve" smooth="yes"/>
      <point x="359" y="30" type="line" smooth="yes"/>
      <point x="408" y="30"/>
      <point x="457" y="74"/>
      <point x="481" y="139" type="curve"/>
      <point x="499" y="139" type="line"/>
      <point x="472" y="0" type="line"/>
      <point x="6" y="0" type="line"/>
    </contour>
    <contour>
      <point x="238" y="818" type="line"/>
      <point x="274" y="645" type="line"/>
      <point x="251" y="645" type="line"/>
      <point x="194" y="818" type="line"/>
    </contour>
  </outline>
</glyph>
<glyph name="Otilde" format="1">
  <advance width="638"/>
  <unicode hex="00D5"/>
  <note>
	Otilde
  </note>
  <outline>
    <contour>
      <point x="149" y="-6"/>
      <point x="40" y="112"/>
      <point x="40" y="292" type="curve" smooth="yes"/>
      <point x="40" y="309" type="line" smooth="yes"/>
      <point x="40" y="492"/>
      <point x="149" y="611"/>
      <point x="317" y="611" type="curve" smooth="yes"/>
      <point x="488" y="611"/>
      <point x="598" y="492"/>
      <point x="598" y="309" type="curve" smooth="yes"/>
      <point x="598" y="292" type="line" smooth="yes"/>
      <point x="598" y="112"/>
      <point x="488" y="-6"/>
      <point x="317" y="-6" type="curve" smooth="yes"/>
    </contour>
    <contour>
      <point x="448" y="18"/>
      <point x="533" y="127"/>
      <point x="533" y="292" type="curve" smooth="yes"/>
      <point x="533" y="309" type="line" smooth="yes"/>
      <point x="533" y="477"/>
      <point x="448" y="587"/>
      <point x="317" y="587" type="curve" smooth="yes"/>
      <point x="190" y="587"/>
      <point x="107" y="477"/>
      <point x="107" y="309" type="curve" smooth="yes"/>
      <point x="107" y="292" type="line" smooth="yes"/>
      <point x="107" y="127"/>
      <point x="190" y="18"/>
      <point x="317" y="18" type="curve" smooth="yes"/>
    </contour>
    <contour>
      <point x="189" y="662" type="line"/>
      <point x="196" y="701"/>
      <point x="233" y="730"/>
      <point x="277" y="730" type="curve" smooth="yes"/>
      <point x="290" y="730"/>
      <point x="307" y="724"/>
      <point x="330" y="711" type="curve" smooth="yes"/>
      <point x="352" y="698"/>
      <point x="369" y="692"/>
      <point x="382" y="692" type="curve" smooth="yes"/>
      <point x="409" y="692"/>
      <point x="433" y="705"/>
      <point x="445" y="726" type="curve"/>
      <point x="458" y="710" type="line"/>
      <point x="447" y="671"/>
      <point x="413" y="645"/>
      <point x="374" y="645" type="curve" smooth="yes"/>
      <point x="361" y="645"/>
      <point x="344" y="651"/>
      <point x="321" y="664" type="curve" smooth="yes"/>
      <point x="299" y="677"/>
      <point x="282" y="683"/>
      <point x="269" y="683" type="curve" smooth="yes"/>
      <point x="242" y="683"/>
      <point x="217" y="670"/>
      <point x="202" y="649" type="curve"/>
    </contour>
  </outline>
</glyph>
<glyph name="egrave" format="1">
  <advance width="434"/>
  <unicode hex="00E8"/>
  <note>
	egrave
  </note>
  <outline>
    <contour>
      <point x="127" y="-6"/>
      <point x="44" y="89"/>
      <point x="44" y="208" type="curve" smooth="yes"/>
      <point x="44" y="323"/>
      <point x="123" y="416"/>
      <point x="220" y="416" type="curve" smooth="yes"/>
      <point x="316" y="416"/>
      <point x="393" y="331"/>
      <point x="393" y="226" type="curve"/>
      <point x="90" y="226" type="line"/>
      <point x="90" y="127"/>
      <point x="158" y="47"/>
      <point x="242" y="47" type="curve" smooth="yes"/>
      <point x="303" y="47"/>
      <point x="360" y="83"/>
      <point x="387" y="140" type="curve"/>
      <point x="404" y="133" type="line"/>
      <point x="383" y="52"/>
      <point x="309" y="-6"/>
      <point x="228" y="-6" type="curve" smooth="yes"/>
    </contour>
    <contour>
      <point x="342" y="248" type="line"/>
      <point x="342" y="328"/>
      <point x="288" y="394"/>
      <point x="220" y="394" type="curve" smooth="yes"/>
      <point x="160" y="394"/>
      <point x="105" y="332"/>
      <point x="90" y="248" type="curve"/>
    </contour>
    <contour>
      <point x="194" y="626" type="line"/>
      <point x="230" y="453" type="line"/>
      <point x="207" y="453" type="line"/>
      <point x="150" y="626" type="line"/>
    </contour>
  </outline>
</glyph>
<glyph name="icircumflex" format="1">
  <advance width="214"/>
  <unicode hex="00EE"/>
  <note>
	icircumflex
  </note>
  <outline>
    <contour>
      <point x="17" y="15" type="line"/>
      <point x="54" y="15"/>
      <point x="84" y="39"/>
      <point x="84" y="68" type="curve" smooth="yes"/>
      <point x="84" y="334" type="line" smooth="yes"/>
      <point x="84" y="349"/>
      <point x="65" y="361"/>
      <point x="42" y="361" type="curve" smooth="yes"/>
      <point x="17" y="361" type="line"/>
      <point x="17" y="375" type="line"/>
      <point x="134" y="415" type="line"/>
      <point x="134" y="68" type="line" smooth="yes"/>
      <point x="134" y="39"/>
      <point x="161" y="14"/>
      <point x="193" y="14" type="curve"/>
      <point x="193" y="0" type="line"/>
      <point x="17" y="0" type="line"/>
    </contour>
    <contour>
      <point x="114" y="613" type="line"/>
      <point x="198" y="453" type="line"/>
      <point x="166" y="453" type="line"/>
      <point x="87" y="577" type="line"/>
      <point x="9" y="453" type="line"/>
      <point x="-23" y="453" type="line"/>
      <point x="65" y="613" type="line"/>
    </contour>
  </outline>
</glyph>
<glyph name="otilde" format="1">
  <advance width="479"/>
  <unicode hex="00F5"/>
  <note>
	otilde
  </note>
  <outline>
    <contour>
      <point x="131" y="-8"/>
      <point x="42" y="89"/>
      <point x="42" y="208" type="curve" smooth="yes"/>
      <point x="42" y="323"/>
      <point x="131" y="416"/>
      <point x="240" y="416" type="curve" smooth="yes"/>
      <point x="349" y="416"/>
      <point x="437" y="323"/>
      <point x="437" y="208" type="curve" smooth="yes"/>
      <point x="437" y="89"/>
      <point x="349" y="-8"/>
      <point x="240" y="-8" type="curve" smooth="yes"/>
    </contour>
    <contour>
      <point x="324" y="14"/>
      <point x="378" y="94"/>
      <point x="378" y="191" type="curve" smooth="yes"/>
      <point x="378" y="303"/>
      <point x="308" y="394"/>
      <point x="223" y="394" type="curve" smooth="yes"/>
      <point x="156" y="394"/>
      <point x="102" y="320"/>
      <point x="102" y="229" type="curve" smooth="yes"/>
      <point x="102" y="110"/>
      <point x="172" y="14"/>
      <point x="257" y="14" type="curve" smooth="yes"/>
    </contour>
    <contour>
      <point x="113" y="470" type="line"/>
      <point x="120" y="510"/>
      <point x="157" y="539"/>
      <point x="201" y="539" type="curve" smooth="yes"/>
      <point x="214" y="539"/>
      <point x="231" y="533"/>
      <point x="253" y="520" type="curve" smooth="yes"/>
      <point x="276" y="507"/>
      <point x="293" y="501"/>
      <point x="306" y="501" type="curve" smooth="yes"/>
      <point x="333" y="501"/>
      <point x="357" y="514"/>
      <point x="369" y="535" type="curve"/>
      <point x="382" y="519" type="line"/>
      <point x="371" y="480"/>
      <point x="337" y="454"/>
      <point x="298" y="454" type="curve" smooth="yes"/>
      <point x="285" y="454"/>
      <point x="268" y="460"/>
      <point x="245" y="473" type="curve" smooth="yes"/>
      <point x="223" y="486"/>
      <point x="206" y="492"/>
      <point x="193" y="492" type="curve" smooth="yes"/>
      <point x="166" y="492"/>
      <point x="141" y="479"/>
      <point x="126" y="458" type="curve"/>
    </contour>
  </outline>
</glyph>
<glyph name="OE" format="1">
  <advance width="970"/>
  <unicode hex="0152"/>
  <note>
	OE
  </note>
  <outline>
    <contour>
      <point x="149" y="-6"/>
      <point x="40" y="112"/>
      <point x="40" y="292" type="curve" smooth="yes"/>
      <point x="40" y="309" type="line" smooth="yes"/>
      <point x="40" y="492"/>
      <point x="149" y="611"/>
      <point x="317" y="611" type="curve" smooth="yes"/>
      <point x="410" y="611"/>
      <point x="494" y="569"/>
      <point x="539" y="498" type="curve"/>
      <point x="539" y="522" type="line" smooth="yes"/>
      <point x="539" y="559"/>
      <point x="502" y="590"/>
      <point x="455" y="590" type="curve"/>
      <point x="455" y="604" type="line"/>
      <point x="909" y="604" type="line"/>
      <point x="909" y="478" type="line"/>
      <point x="897" y="478" type="line"/>
      <point x="888" y="534"/>
      <point x="853" y="574"/>
      <point x="816" y="574" type="curve" smooth="yes"/>
      <point x="649" y="574" type="line" smooth="yes"/>
      <point x="621" y="574"/>
      <point x="598" y="557"/>
      <point x="598" y="534" type="curve" smooth="yes"/>
      <point x="598" y="332" type="line"/>
      <point x="774" y="332" type="line" smooth="yes"/>
      <point x="813" y="332"/>
      <point x="844" y="371"/>
      <point x="844" y="419" type="curve"/>
      <point x="858" y="419" type="line"/>
      <point x="858" y="206" type="line"/>
      <point x="844" y="206" type="line"/>
      <point x="844" y="259"/>
      <point x="813" y="302"/>
      <point x="774" y="302" type="curve" smooth="yes"/>
      <point x="598" y="302" type="line"/>
      <point x="598" y="82" type="line" smooth="yes"/>
      <point x="598" y="53"/>
      <point x="630" y="30"/>
      <point x="670" y="30" type="curve" smooth="yes"/>
      <point x="808" y="30" type="line" smooth="yes"/>
      <point x="857" y="30"/>
      <point x="906" y="74"/>
      <point x="930" y="139" type="curve"/>
      <point x="948" y="139" type="line"/>
      <point x="921" y="0" type="line"/>
      <point x="455" y="0" type="line"/>
      <point x="455" y="15" type="line"/>
      <point x="502" y="15"/>
      <point x="539" y="49"/>
      <point x="539" y="90" type="curve" smooth="yes"/>
      <point x="539" y="106" type="line"/>
      <point x="492" y="35"/>
      <point x="409" y="-6"/>
      <point x="317" y="-6" type="curve" smooth="yes"/>
    </contour>
    <contour>
      <point x="448" y="18"/>
      <point x="533" y="127"/>
      <point x="533" y="292" type="curve" smooth="yes"/>
      <point x="533" y="309" type="line" smooth="yes"/>
      <point x="533" y="477"/>
      <point x="448" y="587"/>
      <point x="317" y="587" type="curve" smooth="yes"/>
      <point x="190" y="587"/>
      <point x="107" y="477"/>
      <point x="107" y="309" type="curve" smooth="yes"/>
      <point x="107" y="292" type="line" smooth="yes"/>
      <point x="107" y="127"/>
      <point x="190" y="18"/>
      <point x="317" y="18" type="curve" smooth="yes"/>
    </contour>
  </outline>
</glyph>
<glyph name="oe" format="1">
  <advance width="780"/>
  <unicode hex="0153"/>
  <note>
	oe
  </note>
  <outline>
    <contour>
      <point x="131" y="-8"/>
      <point x="42" y="89"/>
      <point x="42" y="208" type="curve" smooth="yes"/>
      <point x="42" y="323"/>
      <point x="131" y="416"/>
      <point x="240" y="416" type="curve" smooth="yes"/>
      <point x="311" y="416"/>
      <point x="377" y="373"/>
      <point x="410" y="305" type="curve"/>
      <point x="441" y="373"/>
      <point x="501" y="416"/>
      <point x="566" y="416" type="curve" smooth="yes"/>
      <point x="662" y="416"/>
      <point x="739" y="331"/>
      <point x="739" y="226" type="curve"/>
      <point x="437" y="226" type="line"/>
      <point x="437" y="127"/>
      <point x="504" y="47"/>
      <point x="588" y="47" type="curve" smooth="yes"/>
      <point x="651" y="47"/>
      <point x="707" y="83"/>
      <point x="734" y="140" type="curve"/>
      <point x="750" y="133" type="line"/>
      <point x="729" y="52"/>
      <point x="655" y="-6"/>
      <point x="574" y="-6" type="curve" smooth="yes"/>
      <point x="506" y="-6"/>
      <point x="442" y="40"/>
      <point x="411" y="109" type="curve"/>
      <point x="378" y="37"/>
      <point x="311" y="-8"/>
      <point x="240" y="-8" type="curve" smooth="yes"/>
    </contour>
    <contour>
      <point x="324" y="14"/>
      <point x="378" y="94"/>
      <point x="378" y="191" type="curve" smooth="yes"/>
      <point x="378" y="303"/>
      <point x="308" y="394"/>
      <point x="223" y="394" type="curve" smooth="yes"/>
      <point x="156" y="394"/>
      <point x="102" y="320"/>
      <point x="102" y="229" type="curve" smooth="yes"/>
      <point x="102" y="110"/>
      <point x="172" y="14"/>
      <point x="257" y="14" type="curve" smooth="yes"/>
    </contour>
    <contour>
      <point x="689" y="248" type="line"/>
      <point x="689" y="328"/>
      <point x="634" y="394"/>
      <point x="566" y="394" type="curve" smooth="yes"/>
      <point x="506" y="394"/>
      <point x="452" y="332"/>
      <point x="437" y="248" type="curve"/>
    </contour>
  </outline>
</glyph>
<glyph name="florin" format="1">
  <advance width="586"/>
  <unicode hex="0192"/>
  <note>
	florin
  </note>
  <outline>
    <contour>
      <point x="76" y="-110"/>
      <point x="89" y="-97"/>
      <point x="104" y="-98" type="curve"/>
      <point x="108" y="-99"/>
      <point x="113" y="-102"/>
      <point x="120" y="-108" type="curve"/>
      <point x="143" y="-134" type="line" smooth="yes"/>
      <point x="154" y="-146"/>
      <point x="167" y="-154"/>
      <point x="183" y="-155" type="curve"/>
      <point x="206" y="-158"/>
      <point x="227" y="-125"/>
      <point x="231" y="-84" type="curve" smooth="yes"/>
      <point x="274" y="386" type="line"/>
      <point x="198" y="386" type="line"/>
      <point x="200" y="411" type="line"/>
      <point x="276" y="411" type="line"/>
      <point x="279" y="460" type="line" smooth="yes"/>
      <point x="287" y="547"/>
      <point x="358" y="621"/>
      <point x="427" y="614" type="curve" smooth="yes"/>
      <point x="476" y="610"/>
      <point x="514" y="579"/>
      <point x="511" y="546" type="curve" smooth="yes"/>
      <point x="510" y="529"/>
      <point x="496" y="515"/>
      <point x="483" y="516" type="curve" smooth="yes"/>
      <point x="472" y="517"/>
      <point x="460" y="532"/>
      <point x="449" y="553" type="curve"/>
      <point x="440" y="574"/>
      <point x="420" y="589"/>
      <point x="397" y="590" type="curve"/>
      <point x="372" y="593"/>
      <point x="349" y="573"/>
      <point x="346" y="546" type="curve" smooth="yes"/>
      <point x="334" y="411" type="line"/>
      <point x="442" y="411" type="line"/>
      <point x="441" y="386" type="line"/>
      <point x="333" y="386" type="line"/>
      <point x="292" y="-45" type="line" smooth="yes"/>
      <point x="283" y="-133"/>
      <point x="224" y="-193"/>
      <point x="155" y="-186" type="curve" smooth="yes"/>
      <point x="108" y="-182"/>
      <point x="72" y="-157"/>
      <point x="75" y="-129" type="curve"/>
    </contour>
  </outline>
</glyph>
<glyph name="uni0981" format="1">
  <advance width="0"/>
  <unicode hex="0981"/>
  <note>
	uni0981
  </note>
  <outline>
    <contour>
      <point x="-73" y="646"/>
      <point x="-43" y="668"/>
      <point x="-24" y="700" type="curve" smooth="yes"/>
      <point x="-16" y="714"/>
      <point x="-12" y="725"/>
      <point x="-12" y="732" type="curve" smooth="yes"/>
      <point x="-12" y="741"/>
      <point x="-17" y="745"/>
      <point x="-23" y="745" type="curve" smooth="yes"/>
      <point x="-34" y="745"/>
      <point x="-46" y="720"/>
      <point x="-52" y="713" type="curve" smooth="yes"/>
      <point x="-70" y="689"/>
      <point x="-93" y="676"/>
      <point x="-118" y="676" type="curve" smooth="yes"/>
      <point x="-146" y="676"/>
      <point x="-175" y="692"/>
      <point x="-199" y="724" type="curve" smooth="yes"/>
      <point x="-208" y="736"/>
      <point x="-219" y="754"/>
      <point x="-230" y="748" type="curve" smooth="yes"/>
      <point x="-234" y="746"/>
      <point x="-236" y="742"/>
      <point x="-236" y="737" type="curve" smooth="yes"/>
      <point x="-236" y="730"/>
      <point x="-232" y="721"/>
      <point x="-225" y="709" type="curve" smooth="yes"/>
      <point x="-202" y="671"/>
      <point x="-164" y="646"/>
      <point x="-117" y="646" type="curve" smooth="yes"/>
    </contour>
    <contour>
      <point x="-97" y="724"/>
      <point x="-74" y="737"/>
      <point x="-74" y="766" type="curve" smooth="yes"/>
      <point x="-74" y="794"/>
      <point x="-96" y="815"/>
      <point x="-123" y="815" type="curve" smooth="yes"/>
      <point x="-148" y="815"/>
      <point x="-168" y="797"/>
      <point x="-168" y="773" type="curve" smooth="yes"/>
      <point x="-168" y="748"/>
      <point x="-148" y="724"/>
      <point x="-119" y="724" type="curve" smooth="yes"/>
    </contour>
    <contour>
      <point x="-134" y="747"/>
      <point x="-143" y="760"/>
      <point x="-143" y="771" type="curve" smooth="yes"/>
      <point x="-143" y="782"/>
      <point x="-135" y="793"/>
      <point x="-121" y="793" type="curve" smooth="yes"/>
      <point x="-106" y="793"/>
      <point x="-99" y="780"/>
      <point x="-99" y="769" type="curve" smooth="yes"/>
      <point x="-99" y="756"/>
      <point x="-107" y="747"/>
      <point x="-119" y="747" type="curve" smooth="yes"/>
    </contour>
  </outline>
</glyph>
<glyph name="uni0986" format="1">
  <advance width="965"/>
  <unicode hex="0986"/>
  <note>
	uni0986
  </note>
  <outline>
    <contour>
      <point x="482" y="207" type="line"/>
      <point x="537" y="160"/>
      <point x="606" y="97"/>
      <point x="606" y="56" type="curve" smooth="yes"/>
      <point x="606" y="8"/>
      <point x="609" y="-12"/>
      <point x="627" y="-12" type="curve" smooth="yes"/>
      <point x="651" y="-12"/>
      <point x="646" y="20"/>
      <point x="646" y="71" type="curve" smooth="yes"/>
      <point x="646" y="362"/>
      <point x="646" y="488"/>
      <point x="654" y="573" type="curve"/>
      <point x="647" y="574" type="line"/>
      <point x="653" y="564"/>
      <point x="669" y="554"/>
      <point x="690" y="554" type="curve" smooth="yes"/>
      <point x="743" y="554" type="line" smooth="yes"/>
      <point x="752" y="554"/>
      <point x="761" y="558"/>
      <point x="761" y="571" type="curve" smooth="yes"/>
      <point x="761" y="581"/>
      <point x="752" y="587"/>
      <point x="743" y="587" type="curve" smooth="yes"/>
      <point x="677" y="587" type="line" smooth="yes"/>
      <point x="645" y="587"/>
      <point x="659" y="609"/>
      <point x="641" y="609" type="curve" smooth="yes"/>
      <point x="627" y="609"/>
      <point x="619" y="574"/>
      <point x="614" y="515" type="curve"/>
      <point x="621" y="527" type="line"/>
      <point x="605" y="565"/>
      <point x="574" y="587"/>
      <point x="517" y="587" type="curve" smooth="yes"/>
      <point x="-8" y="587" type="line" smooth="yes"/>
      <point x="-15" y="587"/>
      <point x="-23" y="582"/>
      <point x="-23" y="571" type="curve" smooth="yes"/>
      <point x="-23" y="562"/>
      <point x="-17" y="554"/>
      <point x="-8" y="554" type="curve" smooth="yes"/>
      <point x="534" y="554" type="line" smooth="yes"/>
      <point x="580" y="554"/>
      <point x="610" y="525"/>
      <point x="610" y="462" type="curve" smooth="yes"/>
      <point x="610" y="374"/>
      <point x="606" y="252"/>
      <point x="606" y="114" type="curve"/>
      <point x="612" y="120" type="line"/>
      <point x="585" y="162"/>
      <point x="545" y="203"/>
      <point x="498" y="251" type="curve"/>
    </contour>
    <contour>
      <point x="286" y="353"/>
      <point x="269" y="369"/>
      <point x="269" y="392" type="curve" smooth="yes"/>
      <point x="269" y="412"/>
      <point x="283" y="433"/>
      <point x="312" y="433" type="curve" smooth="yes"/>
      <point x="335" y="433"/>
      <point x="350" y="416"/>
      <point x="350" y="393" type="curve" smooth="yes"/>
      <point x="350" y="368"/>
      <point x="330" y="353"/>
      <point x="308" y="353" type="curve" smooth="yes"/>
    </contour>
    <contour>
      <point x="511" y="184"/>
      <point x="511" y="284" type="curve" smooth="yes"/>
      <point x="511" y="384"/>
      <point x="437" y="472"/>
      <point x="339" y="472" type="curve" smooth="yes"/>
      <point x="279" y="472"/>
      <point x="236" y="440"/>
      <point x="236" y="392" type="curve" smooth="yes"/>
      <point x="236" y="352"/>
      <point x="266" y="317"/>
      <point x="310" y="317" type="curve" smooth="yes"/>
      <point x="352" y="317"/>
      <point x="380" y="349"/>
      <point x="380" y="387" type="curve" smooth="yes"/>
      <point x="380" y="415"/>
      <point x="366" y="436"/>
      <point x="342" y="447" type="curve"/>
      <point x="342" y="442" type="line"/>
      <point x="405" y="441"/>
      <point x="475" y="390"/>
      <point x="475" y="296" type="curve" smooth="yes"/>
      <point x="475" y="205"/>
      <point x="411" y="149"/>
      <point x="328" y="149" type="curve" smooth="yes"/>
      <point x="183" y="149"/>
      <point x="126" y="319"/>
      <point x="86" y="440" type="curve" smooth="yes"/>
      <point x="83" y="450"/>
      <point x="75" y="455"/>
      <point x="68" y="455" type="curve" smooth="yes"/>
      <point x="61" y="455"/>
      <point x="55" y="448"/>
      <point x="55" y="439" type="curve" smooth="yes"/>
      <point x="55" y="403"/>
      <point x="136" y="107"/>
      <point x="336" y="107" type="curve" smooth="yes"/>
      <point x="440" y="107"/>
    </contour>
    <contour>
      <point x="864" y="-12"/>
      <point x="865" y="17"/>
      <point x="865" y="58" type="curve" smooth="yes"/>
      <point x="865" y="359"/>
      <point x="866" y="487"/>
      <point x="874" y="573" type="curve"/>
      <point x="867" y="574" type="line"/>
      <point x="873" y="564"/>
      <point x="889" y="554"/>
      <point x="910" y="554" type="curve" smooth="yes"/>
      <point x="965" y="554" type="line" smooth="yes"/>
      <point x="974" y="554"/>
      <point x="985" y="559"/>
      <point x="985" y="570" type="curve" smooth="yes"/>
      <point x="985" y="582"/>
      <point x="974" y="587"/>
      <point x="965" y="587" type="curve" smooth="yes"/>
      <point x="894" y="587" type="line" smooth="yes"/>
      <point x="868" y="587"/>
      <point x="877" y="609"/>
      <point x="861" y="609" type="curve" smooth="yes"/>
      <point x="847" y="609"/>
      <point x="838" y="575"/>
      <point x="834" y="517" type="curve"/>
      <point x="841" y="527" type="line"/>
      <point x="828" y="566"/>
      <point x="800" y="587"/>
      <point x="760" y="587" type="curve" smooth="yes"/>
      <point x="725" y="587" type="line" smooth="yes"/>
      <point x="713" y="587"/>
      <point x="707" y="579"/>
      <point x="707" y="570" type="curve" smooth="yes"/>
      <point x="707" y="561"/>
      <point x="713" y="554"/>
      <point x="725" y="554" type="curve" smooth="yes"/>
      <point x="766" y="554" type="line" smooth="yes"/>
      <point x="810" y="554"/>
      <point x="831" y="529"/>
      <point x="831" y="467" type="curve" smooth="yes"/>
      <point x="831" y="371"/>
      <point x="826" y="229"/>
      <point x="826" y="71" type="curve" smooth="yes"/>
      <point x="826" y="23"/>
      <point x="826" y="-12"/>
      <point x="846" y="-12" type="curve" smooth="yes"/>
    </contour>
  </outline>
</glyph>
<glyph name="uni0988" format="1">
  <advance width="538"/>
  <unicode hex="0988"/>
  <note>
	uni0988
  </note>
  <outline>
    <contour>
      <point x="485" y="27"/>
      <point x="487" y="32"/>
      <point x="487" y="37" type="curve" smooth="yes"/>
      <point x="487" y="70"/>
      <point x="415" y="151"/>
      <point x="415" y="270" type="curve" smooth="yes"/>
      <point x="415" y="404"/>
      <point x="505" y="403"/>
      <point x="505" y="434" type="curve" smooth="yes"/>
      <point x="505" y="442"/>
      <point x="498" y="451"/>
      <point x="487" y="451" type="curve" smooth="yes"/>
      <point x="406" y="451"/>
      <point x="290" y="168"/>
      <point x="176" y="168" type="curve" smooth="yes"/>
      <point x="126" y="168"/>
      <point x="116" y="206"/>
      <point x="98" y="206" type="curve" smooth="yes"/>
      <point x="89" y="206"/>
      <point x="81" y="199"/>
      <point x="81" y="190" type="curve" smooth="yes"/>
      <point x="81" y="167"/>
      <point x="131" y="134"/>
      <point x="176" y="134" type="curve" smooth="yes"/>
      <point x="280" y="134"/>
      <point x="358" y="271"/>
      <point x="392" y="323" type="curve"/>
      <point x="373" y="322" type="line"/>
      <point x="373" y="232"/>
      <point x="390" y="142"/>
      <point x="441" y="55" type="curve" smooth="yes"/>
      <point x="452" y="35"/>
      <point x="466" y="18"/>
      <point x="480" y="25" type="curve" smooth="yes"/>
    </contour>
    <contour>
      <point x="113" y="349"/>
      <point x="92" y="358"/>
      <point x="92" y="381" type="curve" smooth="yes"/>
      <point x="92" y="401"/>
      <point x="107" y="413"/>
      <point x="125" y="413" type="curve" smooth="yes"/>
      <point x="146" y="413"/>
      <point x="158" y="398"/>
      <point x="158" y="381" type="curve" smooth="yes"/>
      <point x="158" y="359"/>
      <point x="139" y="349"/>
      <point x="126" y="349" type="curve" smooth="yes"/>
    </contour>
    <contour>
      <point x="329" y="249"/>
      <point x="340" y="287"/>
      <point x="340" y="326" type="curve" smooth="yes"/>
      <point x="340" y="406"/>
      <point x="290" y="491"/>
      <point x="193" y="491" type="curve" smooth="yes"/>
      <point x="120" y="491"/>
      <point x="55" y="443"/>
      <point x="55" y="384" type="curve" smooth="yes"/>
      <point x="55" y="347"/>
      <point x="80" y="313"/>
      <point x="123" y="313" type="curve" smooth="yes"/>
      <point x="163" y="313"/>
      <point x="191" y="342"/>
      <point x="191" y="376" type="curve" smooth="yes"/>
      <point x="191" y="409"/>
      <point x="164" y="437"/>
      <point x="135" y="437" type="curve" smooth="yes"/>
      <point x="125" y="437"/>
      <point x="116" y="434"/>
      <point x="107" y="427" type="curve"/>
      <point x="111" y="423" type="line"/>
      <point x="129" y="445"/>
      <point x="162" y="457"/>
      <point x="194" y="457" type="curve" smooth="yes"/>
      <point x="277" y="457"/>
      <point x="311" y="378"/>
      <point x="311" y="314" type="curve" smooth="yes"/>
      <point x="311" y="285"/>
      <point x="304" y="259"/>
      <point x="292" y="244" type="curve"/>
      <point x="305" y="222" type="line"/>
    </contour>
    <contour>
      <point x="538" y="554" type="line" smooth="yes"/>
      <point x="547" y="554"/>
      <point x="553" y="562"/>
      <point x="553" y="571" type="curve" smooth="yes"/>
      <point x="553" y="582"/>
      <point x="545" y="587"/>
      <point x="538" y="587" type="curve" smooth="yes"/>
      <point x="0" y="587" type="line" smooth="yes"/>
      <point x="-7" y="587"/>
      <point x="-15" y="582"/>
      <point x="-15" y="571" type="curve" smooth="yes"/>
      <point x="-15" y="562"/>
      <point x="-9" y="554"/>
      <point x="0" y="554" type="curve" smooth="yes"/>
    </contour>
    <contour>
      <point x="463" y="564" type="line"/>
      <point x="463" y="702"/>
      <point x="408" y="726"/>
      <point x="320" y="726" type="curve" smooth="yes"/>
      <point x="237" y="726"/>
      <point x="69" y="671"/>
      <point x="69" y="799" type="curve" smooth="yes"/>
      <point x="69" y="814"/>
      <point x="62" y="821"/>
      <point x="54" y="821" type="curve" smooth="yes"/>
      <point x="47" y="821"/>
      <point x="39" y="813"/>
      <point x="39" y="799" type="curve" smooth="yes"/>
      <point x="39" y="636"/>
      <point x="257" y="697"/>
      <point x="324" y="697" type="curve" smooth="yes"/>
      <point x="432" y="697"/>
      <point x="424" y="631"/>
      <point x="424" y="564" type="curve"/>
    </contour>
  </outline>
</glyph>
<glyph name="uni098A" format="1">
  <advance width="643"/>
  <unicode hex="098A"/>
  <note>
	uni098A
  </note>
  <outline>
    <contour>
      <point x="528" y="30"/>
      <point x="603" y="109"/>
      <point x="603" y="236" type="curve" smooth="yes"/>
      <point x="603" y="318"/>
      <point x="568" y="394"/>
      <point x="520" y="394" type="curve" smooth="yes"/>
      <point x="486" y="394"/>
      <point x="514" y="263"/>
      <point x="412" y="263" type="curve" smooth="yes"/>
      <point x="366" y="263"/>
      <point x="332" y="317"/>
      <point x="332" y="397" type="curve" smooth="yes"/>
      <point x="332" y="498"/>
      <point x="350" y="554"/>
      <point x="418" y="554" type="curve" smooth="yes"/>
      <point x="645" y="554" type="line" smooth="yes"/>
      <point x="654" y="554"/>
      <point x="662" y="561"/>
      <point x="662" y="572" type="curve" smooth="yes"/>
      <point x="662" y="580"/>
      <point x="653" y="587"/>
      <point x="645" y="587" type="curve" smooth="yes"/>
      <point x="398" y="587" type="line" smooth="yes"/>
      <point x="366" y="587"/>
      <point x="332" y="563"/>
      <point x="326" y="544" type="curve"/>
      <point x="335" y="543" type="line"/>
      <point x="323" y="573"/>
      <point x="281" y="587"/>
      <point x="233" y="587" type="curve" smooth="yes"/>
      <point x="-2" y="587" type="line" smooth="yes"/>
      <point x="-9" y="587"/>
      <point x="-17" y="582"/>
      <point x="-17" y="571" type="curve" smooth="yes"/>
      <point x="-17" y="562"/>
      <point x="-11" y="554"/>
      <point x="-2" y="554" type="curve" smooth="yes"/>
      <point x="246" y="554" type="line" smooth="yes"/>
      <point x="278" y="554"/>
      <point x="309" y="547"/>
      <point x="309" y="517" type="curve" smooth="yes"/>
      <point x="309" y="499"/>
      <point x="296" y="472"/>
      <point x="296" y="397" type="curve" smooth="yes"/>
      <point x="296" y="295"/>
      <point x="343" y="229"/>
      <point x="419" y="229" type="curve" smooth="yes"/>
      <point x="514" y="229"/>
      <point x="532" y="335"/>
      <point x="536" y="355" type="curve"/>
      <point x="530" y="355" type="line"/>
      <point x="547" y="340"/>
      <point x="568" y="290"/>
      <point x="568" y="235" type="curve" smooth="yes"/>
      <point x="568" y="133"/>
      <point x="493" y="75"/>
      <point x="413" y="75" type="curve" smooth="yes"/>
      <point x="260" y="75"/>
      <point x="183" y="265"/>
      <point x="183" y="422" type="curve" smooth="yes"/>
      <point x="183" y="454"/>
      <point x="191" y="485"/>
      <point x="167" y="485" type="curve" smooth="yes"/>
      <point x="152" y="485"/>
      <point x="150" y="463"/>
      <point x="150" y="426" type="curve" smooth="yes"/>
      <point x="150" y="315"/>
      <point x="190" y="196"/>
      <point x="255" y="121" type="curve"/>
      <point x="257" y="123" type="line"/>
      <point x="168" y="189"/>
      <point x="105" y="314"/>
      <point x="98" y="446" type="curve" smooth="yes"/>
      <point x="97" y="458"/>
      <point x="90" y="466"/>
      <point x="80" y="466" type="curve" smooth="yes"/>
      <point x="71" y="466"/>
      <point x="65" y="458"/>
      <point x="65" y="448" type="curve" smooth="yes"/>
      <point x="65" y="258"/>
      <point x="216" y="30"/>
      <point x="401" y="30" type="curve" smooth="yes"/>
    </contour>
    <contour>
      <point x="563" y="564" type="line"/>
      <point x="563" y="702"/>
      <point x="508" y="733"/>
      <point x="387" y="733" type="curve" smooth="yes"/>
      <point x="255" y="733"/>
      <point x="63" y="656"/>
      <point x="63" y="795" type="curve" smooth="yes"/>
      <point x="63" y="810"/>
      <point x="56" y="817"/>
      <point x="48" y="817" type="curve" smooth="yes"/>
      <point x="41" y="817"/>
      <point x="33" y="809"/>
      <point x="33" y="795" type="curve" smooth="yes"/>
      <point x="33" y="615"/>
      <point x="262" y="704"/>
      <point x="397" y="704" type="curve" smooth="yes"/>
      <point x="532" y="704"/>
      <point x="524" y="631"/>
      <point x="524" y="564" type="curve"/>
    </contour>
  </outline>
</glyph>
<glyph name="uni098C" format="1">
  <advance width="562"/>
  <unicode hex="098C"/>
  <note>
	uni098C
  </note>
  <outline>
    <contour>
      <point x="434" y="-12"/>
      <point x="523" y="115"/>
      <point x="523" y="238" type="curve" smooth="yes"/>
      <point x="523" y="540"/>
      <point x="94" y="493"/>
      <point x="94" y="662" type="curve" smooth="yes"/>
      <point x="94" y="683"/>
      <point x="87" y="693"/>
      <point x="76" y="693" type="curve" smooth="yes"/>
      <point x="67" y="693"/>
      <point x="59" y="687"/>
      <point x="59" y="671" type="curve" smooth="yes"/>
      <point x="59" y="448"/>
      <point x="485" y="514"/>
      <point x="485" y="245" type="curve" smooth="yes"/>
      <point x="485" y="143"/>
      <point x="421" y="28"/>
      <point x="327" y="20" type="curve"/>
      <point x="357" y="52"/>
      <point x="383" y="104"/>
      <point x="383" y="152" type="curve" smooth="yes"/>
      <point x="383" y="252"/>
      <point x="311" y="318"/>
      <point x="218" y="318" type="curve" smooth="yes"/>
      <point x="125" y="318"/>
      <point x="49" y="247"/>
      <point x="49" y="162" type="curve" smooth="yes"/>
      <point x="49" y="79"/>
      <point x="111" y="9"/>
      <point x="183" y="9" type="curve" smooth="yes"/>
      <point x="279" y="9"/>
      <point x="281" y="133"/>
      <point x="194" y="133" type="curve" smooth="yes"/>
      <point x="147" y="133"/>
      <point x="122" y="86"/>
      <point x="146" y="50" type="curve"/>
      <point x="114" y="66"/>
      <point x="85" y="99"/>
      <point x="85" y="150" type="curve" smooth="yes"/>
      <point x="85" y="226"/>
      <point x="149" y="276"/>
      <point x="224" y="276" type="curve" smooth="yes"/>
      <point x="292" y="276"/>
      <point x="343" y="223"/>
      <point x="343" y="153" type="curve" smooth="yes"/>
      <point x="343" y="64"/>
      <point x="285" y="35"/>
      <point x="285" y="15" type="curve" smooth="yes"/>
      <point x="285" y="0"/>
      <point x="299" y="-12"/>
      <point x="327" y="-12" type="curve" smooth="yes"/>
    </contour>
    <contour>
      <point x="156" y="42"/>
      <point x="152" y="103"/>
      <point x="194" y="103" type="curve" smooth="yes"/>
      <point x="231" y="103"/>
      <point x="240" y="39"/>
      <point x="190" y="39" type="curve"/>
    </contour>
  </outline>
</glyph>
<glyph name="uni098F" format="1">
  <advance width="598"/>
  <unicode hex="098F"/>
  <note>
	uni098F
  </note>
  <outline>
    <contour>
      <point x="523" y="-12"/>
      <point x="522" y="9"/>
      <point x="522" y="42" type="curve" smooth="yes"/>
      <point x="525" y="468" type="line" smooth="yes"/>
      <point x="526" y="546"/>
      <point x="516" y="595"/>
      <point x="457" y="595" type="curve" smooth="yes"/>
      <point x="354" y="595"/>
      <point x="192" y="443"/>
      <point x="192" y="326" type="curve" smooth="yes"/>
      <point x="192" y="274"/>
      <point x="223" y="240"/>
      <point x="269" y="240" type="curve" smooth="yes"/>
      <point x="306" y="240"/>
      <point x="340" y="263"/>
      <point x="340" y="307" type="curve" smooth="yes"/>
      <point x="340" y="346"/>
      <point x="312" y="377"/>
      <point x="272" y="377" type="curve" smooth="yes"/>
      <point x="253" y="377"/>
      <point x="239" y="370"/>
      <point x="227" y="356" type="curve"/>
      <point x="233" y="353" type="line"/>
      <point x="257" y="454"/>
      <point x="390" y="566"/>
      <point x="452" y="566" type="curve" smooth="yes"/>
      <point x="484" y="566"/>
      <point x="485" y="535"/>
      <point x="486" y="468" type="curve" smooth="yes"/>
      <point x="486" y="456"/>
      <point x="487" y="103"/>
      <point x="487" y="86" type="curve"/>
      <point x="495" y="88" type="line"/>
      <point x="469" y="116"/>
      <point x="429" y="137"/>
      <point x="379" y="137" type="curve" smooth="yes"/>
      <point x="320" y="137"/>
      <point x="278" y="107"/>
      <point x="216" y="107" type="curve" smooth="yes"/>
      <point x="141" y="107"/>
      <point x="72" y="152"/>
      <point x="72" y="241" type="curve" smooth="yes"/>
      <point x="72" y="305"/>
      <point x="107" y="341"/>
      <point x="107" y="364" type="curve" smooth="yes"/>
      <point x="107" y="375"/>
      <point x="100" y="380"/>
      <point x="92" y="380" type="curve" smooth="yes"/>
      <point x="62" y="380"/>
      <point x="37" y="300"/>
      <point x="37" y="243" type="curve" smooth="yes"/>
      <point x="37" y="139"/>
      <point x="118" y="65"/>
      <point x="216" y="65" type="curve" smooth="yes"/>
      <point x="282" y="65"/>
      <point x="322" y="99"/>
      <point x="384" y="99" type="curve" smooth="yes"/>
      <point x="433" y="99"/>
      <point x="484" y="78"/>
      <point x="487" y="27" type="curve" smooth="yes"/>
      <point x="488" y="9"/>
      <point x="490" y="-12"/>
      <point x="506" y="-12" type="curve" smooth="yes"/>
    </contour>
    <contour>
      <point x="250" y="272"/>
      <point x="231" y="285"/>
      <point x="231" y="309" type="curve" smooth="yes"/>
      <point x="231" y="333"/>
      <point x="249" y="349"/>
      <point x="270" y="349" type="curve" smooth="yes"/>
      <point x="294" y="349"/>
      <point x="306" y="328"/>
      <point x="306" y="308" type="curve" smooth="yes"/>
      <point x="306" y="285"/>
      <point x="289" y="272"/>
      <point x="270" y="272" type="curve" smooth="yes"/>
    </contour>
  </outline>
</glyph>
<glyph name="uni0990" format="1">
  <advance width="700"/>
  <unicode hex="0990"/>
  <note>
	uni0990
  </note>
  <outline>
    <contour>
      <point x="523" y="-12"/>
      <point x="522" y="9"/>
      <point x="522" y="42" type="curve" smooth="yes"/>
      <point x="525" y="468" type="line" smooth="yes"/>
      <point x="526" y="546"/>
      <point x="516" y="595"/>
      <point x="457" y="595" type="curve" smooth="yes"/>
      <point x="354" y="595"/>
      <point x="192" y="443"/>
      <point x="192" y="326" type="curve" smooth="yes"/>
      <point x="192" y="274"/>
      <point x="223" y="240"/>
      <point x="269" y="240" type="curve" smooth="yes"/>
      <point x="306" y="240"/>
      <point x="340" y="263"/>
      <point x="340" y="307" type="curve" smooth="yes"/>
      <point x="340" y="346"/>
      <point x="312" y="377"/>
      <point x="272" y="377" type="curve" smooth="yes"/>
      <point x="253" y="377"/>
      <point x="239" y="370"/>
      <point x="227" y="356" type="curve"/>
      <point x="233" y="353" type="line"/>
      <point x="257" y="454"/>
      <point x="390" y="566"/>
      <point x="452" y="566" type="curve" smooth="yes"/>
      <point x="484" y="566"/>
      <point x="485" y="535"/>
      <point x="486" y="468" type="curve" smooth="yes"/>
      <point x="486" y="456"/>
      <point x="487" y="103"/>
      <point x="487" y="86" type="curve"/>
      <point x="495" y="88" type="line"/>
      <point x="469" y="116"/>
      <point x="429" y="137"/>
      <point x="379" y="137" type="curve" smooth="yes"/>
      <point x="320" y="137"/>
      <point x="278" y="107"/>
      <point x="216" y="107" type="curve" smooth="yes"/>
      <point x="141" y="107"/>
      <point x="72" y="152"/>
      <point x="72" y="241" type="curve" smooth="yes"/>
      <point x="72" y="305"/>
      <point x="107" y="341"/>
      <point x="107" y="364" type="curve" smooth="yes"/>
      <point x="107" y="375"/>
      <point x="100" y="380"/>
      <point x="92" y="380" type="curve" smooth="yes"/>
      <point x="62" y="380"/>
      <point x="37" y="300"/>
      <point x="37" y="243" type="curve" smooth="yes"/>
      <point x="37" y="139"/>
      <point x="118" y="65"/>
      <point x="216" y="65" type="curve" smooth="yes"/>
      <point x="282" y="65"/>
      <point x="322" y="99"/>
      <point x="384" y="99" type="curve" smooth="yes"/>
      <point x="433" y="99"/>
      <point x="484" y="78"/>
      <point x="487" y="27" type="curve" smooth="yes"/>
      <point x="488" y="9"/>
      <point x="490" y="-12"/>
      <point x="506" y="-12" type="curve" smooth="yes"/>
    </contour>
    <contour>
      <point x="250" y="272"/>
      <point x="231" y="285"/>
      <point x="231" y="309" type="curve" smooth="yes"/>
      <point x="231" y="333"/>
      <point x="249" y="349"/>
      <point x="270" y="349" type="curve" smooth="yes"/>
      <point x="294" y="349"/>
      <point x="306" y="328"/>
      <point x="306" y="308" type="curve" smooth="yes"/>
      <point x="306" y="285"/>
      <point x="289" y="272"/>
      <point x="270" y="272" type="curve" smooth="yes"/>
    </contour>
    <contour>
      <point x="599" y="317"/>
      <point x="666" y="395"/>
      <point x="666" y="501" type="curve" smooth="yes"/>
      <point x="666" y="636"/>
      <point x="559" y="680"/>
      <point x="408" y="739" type="curve" smooth="yes"/>
      <point x="343" y="765"/>
      <point x="299" y="797"/>
      <point x="297" y="870" type="curve" smooth="yes"/>
      <point x="297" y="881"/>
      <point x="296" y="893"/>
      <point x="282" y="893" type="curve" smooth="yes"/>
      <point x="264" y="893"/>
      <point x="261" y="876"/>
      <point x="261" y="858" type="curve" smooth="yes"/>
      <point x="261" y="786"/>
      <point x="308" y="748"/>
      <point x="406" y="705" type="curve" smooth="yes"/>
      <point x="519" y="655"/>
      <point x="635" y="624"/>
      <point x="635" y="503" type="curve" smooth="yes"/>
      <point x="635" y="425"/>
      <point x="587" y="363"/>
      <point x="495" y="330" type="curve"/>
      <point x="508" y="291" type="line"/>
    </contour>
  </outline>
</glyph>
<glyph name="uni0996" format="1">
  <advance width="542"/>
  <unicode hex="0996"/>
  <note>
	uni0996
  </note>
  <outline>
    <contour>
      <point x="439" y="-12"/>
      <point x="442" y="3"/>
      <point x="442" y="27" type="curve" smooth="yes"/>
      <point x="442" y="279"/>
      <point x="439" y="443"/>
      <point x="451" y="576" type="curve"/>
      <point x="444" y="574" type="line"/>
      <point x="450" y="564"/>
      <point x="466" y="554"/>
      <point x="487" y="554" type="curve" smooth="yes"/>
      <point x="542" y="554" type="line" smooth="yes"/>
      <point x="551" y="554"/>
      <point x="562" y="559"/>
      <point x="562" y="570" type="curve" smooth="yes"/>
      <point x="562" y="582"/>
      <point x="551" y="587"/>
      <point x="542" y="587" type="curve" smooth="yes"/>
      <point x="475" y="587" type="line" smooth="yes"/>
      <point x="442" y="587"/>
      <point x="456" y="609"/>
      <point x="438" y="609" type="curve" smooth="yes"/>
      <point x="404" y="609"/>
      <point x="403" y="398"/>
      <point x="403" y="109" type="curve"/>
      <point x="410" y="120" type="line"/>
      <point x="355" y="209"/>
      <point x="235" y="270"/>
      <point x="177" y="287" type="curve"/>
      <point x="170" y="283" type="line"/>
      <point x="273" y="293"/>
      <point x="340" y="359"/>
      <point x="340" y="448" type="curve" smooth="yes"/>
      <point x="341" y="534"/>
      <point x="273" y="583"/>
      <point x="239" y="583" type="curve" smooth="yes"/>
      <point x="202" y="583"/>
      <point x="293" y="430"/>
      <point x="109" y="430" type="curve"/>
      <point x="109" y="422" type="line"/>
      <point x="131" y="431"/>
      <point x="154" y="448"/>
      <point x="154" y="485" type="curve" smooth="yes"/>
      <point x="154" y="526"/>
      <point x="119" y="545"/>
      <point x="89" y="545" type="curve" smooth="yes"/>
      <point x="56" y="545"/>
      <point x="26" y="522"/>
      <point x="26" y="483" type="curve" smooth="yes"/>
      <point x="26" y="429"/>
      <point x="82" y="404"/>
      <point x="137" y="404" type="curve" smooth="yes"/>
      <point x="215" y="404"/>
      <point x="276" y="452"/>
      <point x="264" y="535" type="curve"/>
      <point x="283" y="518"/>
      <point x="305" y="492"/>
      <point x="305" y="446" type="curve" smooth="yes"/>
      <point x="305" y="328"/>
      <point x="182" y="317"/>
      <point x="116" y="312" type="curve" smooth="yes"/>
      <point x="97" y="311"/>
      <point x="88" y="301"/>
      <point x="88" y="291" type="curve" smooth="yes"/>
      <point x="88" y="281"/>
      <point x="98" y="270"/>
      <point x="118" y="267" type="curve" smooth="yes"/>
      <point x="208" y="254"/>
      <point x="403" y="132"/>
      <point x="403" y="42" type="curve" smooth="yes"/>
      <point x="403" y="22"/>
      <point x="405" y="-12"/>
      <point x="424" y="-12" type="curve" smooth="yes"/>
    </contour>
    <contour>
      <point x="54" y="464"/>
      <point x="54" y="482" type="curve" smooth="yes"/>
      <point x="54" y="499"/>
      <point x="67" y="514"/>
      <point x="88" y="514" type="curve" smooth="yes"/>
      <point x="108" y="514"/>
      <point x="122" y="499"/>
      <point x="122" y="481" type="curve" smooth="yes"/>
      <point x="122" y="461"/>
      <point x="106" y="446"/>
      <point x="88" y="446" type="curve" smooth="yes"/>
      <point x="68" y="446"/>
    </contour>
  </outline>
</glyph>
<glyph name="uni0997" format="1">
  <advance width="548"/>
  <unicode hex="0997"/>
  <note>
	uni0997
  </note>
  <outline>
    <contour>
      <point x="445" y="-12"/>
      <point x="448" y="15"/>
      <point x="448" y="59" type="curve" smooth="yes"/>
      <point x="448" y="243"/>
      <point x="448" y="478"/>
      <point x="457" y="574" type="curve"/>
      <point x="450" y="574" type="line"/>
      <point x="456" y="564"/>
      <point x="472" y="554"/>
      <point x="493" y="554" type="curve" smooth="yes"/>
      <point x="548" y="554" type="line" smooth="yes"/>
      <point x="557" y="554"/>
      <point x="568" y="559"/>
      <point x="568" y="570" type="curve" smooth="yes"/>
      <point x="568" y="582"/>
      <point x="557" y="587"/>
      <point x="548" y="587" type="curve" smooth="yes"/>
      <point x="478" y="587" type="line" smooth="yes"/>
      <point x="450" y="587"/>
      <point x="460" y="609"/>
      <point x="444" y="609" type="curve" smooth="yes"/>
      <point x="424" y="609"/>
      <point x="415" y="532"/>
      <point x="411" y="407" type="curve"/>
      <point x="417" y="417" type="line"/>
      <point x="382" y="524"/>
      <point x="297" y="588"/>
      <point x="198" y="588" type="curve" smooth="yes"/>
      <point x="95" y="588"/>
      <point x="19" y="519"/>
      <point x="19" y="439" type="curve" smooth="yes"/>
      <point x="19" y="382"/>
      <point x="56" y="338"/>
      <point x="114" y="338" type="curve" smooth="yes"/>
      <point x="158" y="338"/>
      <point x="191" y="365"/>
      <point x="220" y="365" type="curve" smooth="yes"/>
      <point x="250" y="365"/>
      <point x="265" y="336"/>
      <point x="265" y="308" type="curve" smooth="yes"/>
      <point x="265" y="226"/>
      <point x="163" y="174"/>
      <point x="132" y="158" type="curve" smooth="yes"/>
      <point x="116" y="150"/>
      <point x="106" y="143"/>
      <point x="106" y="131" type="curve" smooth="yes"/>
      <point x="106" y="120"/>
      <point x="113" y="114"/>
      <point x="125" y="114" type="curve" smooth="yes"/>
      <point x="183" y="114"/>
      <point x="299" y="217"/>
      <point x="299" y="302" type="curve" smooth="yes"/>
      <point x="299" y="344"/>
      <point x="277" y="398"/>
      <point x="218" y="398" type="curve" smooth="yes"/>
      <point x="178" y="398"/>
      <point x="146" y="373"/>
      <point x="112" y="373" type="curve" smooth="yes"/>
      <point x="78" y="373"/>
      <point x="57" y="399"/>
      <point x="57" y="438" type="curve" smooth="yes"/>
      <point x="57" y="504"/>
      <point x="119" y="554"/>
      <point x="202" y="554" type="curve" smooth="yes"/>
      <point x="322" y="554"/>
      <point x="404" y="440"/>
      <point x="410" y="297" type="curve"/>
      <point x="409" y="229"/>
      <point x="409" y="153"/>
      <point x="409" y="71" type="curve" smooth="yes"/>
      <point x="409" y="23"/>
      <point x="409" y="-12"/>
      <point x="430" y="-12" type="curve" smooth="yes"/>
    </contour>
  </outline>
</glyph>
<glyph name="uni0998" format="1">
  <advance width="524"/>
  <unicode hex="0998"/>
  <note>
	uni0998
  </note>
  <outline>
    <contour>
      <point x="423" y="-12"/>
      <point x="425" y="10"/>
      <point x="425" y="43" type="curve" smooth="yes"/>
      <point x="425" y="361"/>
      <point x="425" y="482"/>
      <point x="433" y="574" type="curve"/>
      <point x="426" y="574" type="line"/>
      <point x="432" y="564"/>
      <point x="448" y="554"/>
      <point x="469" y="554" type="curve" smooth="yes"/>
      <point x="524" y="554" type="line" smooth="yes"/>
      <point x="533" y="554"/>
      <point x="544" y="559"/>
      <point x="544" y="570" type="curve" smooth="yes"/>
      <point x="544" y="582"/>
      <point x="533" y="587"/>
      <point x="524" y="587" type="curve" smooth="yes"/>
      <point x="454" y="587" type="line" smooth="yes"/>
      <point x="426" y="587"/>
      <point x="437" y="609"/>
      <point x="420" y="609" type="curve" smooth="yes"/>
      <point x="406" y="609"/>
      <point x="399" y="572"/>
      <point x="394" y="507" type="curve"/>
      <point x="401" y="520" type="line"/>
      <point x="384" y="563"/>
      <point x="350" y="587"/>
      <point x="290" y="587" type="curve" smooth="yes"/>
      <point x="-25" y="587" type="line" smooth="yes"/>
      <point x="-32" y="587"/>
      <point x="-40" y="582"/>
      <point x="-40" y="571" type="curve" smooth="yes"/>
      <point x="-40" y="562"/>
      <point x="-34" y="554"/>
      <point x="-25" y="554" type="curve" smooth="yes"/>
      <point x="92" y="554" type="line"/>
      <point x="65" y="530"/>
      <point x="55" y="499"/>
      <point x="55" y="471" type="curve" smooth="yes"/>
      <point x="55" y="390"/>
      <point x="133" y="350"/>
      <point x="214" y="371" type="curve"/>
      <point x="215" y="378" type="line"/>
      <point x="153" y="336"/>
      <point x="116" y="312"/>
      <point x="85" y="292" type="curve" smooth="yes"/>
      <point x="75" y="286"/>
      <point x="71" y="278"/>
      <point x="71" y="270" type="curve" smooth="yes"/>
      <point x="71" y="259"/>
      <point x="79" y="248"/>
      <point x="93" y="245" type="curve" smooth="yes"/>
      <point x="193" y="219"/>
      <point x="385" y="119"/>
      <point x="385" y="50" type="curve" smooth="yes"/>
      <point x="385" y="27"/>
      <point x="384" y="-12"/>
      <point x="406" y="-12" type="curve" smooth="yes"/>
    </contour>
    <contour>
      <point x="337" y="183"/>
      <point x="219" y="247"/>
      <point x="116" y="278" type="curve"/>
      <point x="119" y="268" type="line"/>
      <point x="240" y="356"/>
      <point x="294" y="382"/>
      <point x="294" y="401" type="curve" smooth="yes"/>
      <point x="294" y="413"/>
      <point x="283" y="417"/>
      <point x="274" y="417" type="curve" smooth="yes"/>
      <point x="260" y="417"/>
      <point x="244" y="394"/>
      <point x="192" y="394" type="curve" smooth="yes"/>
      <point x="144" y="394"/>
      <point x="97" y="422"/>
      <point x="97" y="468" type="curve" smooth="yes"/>
      <point x="97" y="506"/>
      <point x="128" y="554"/>
      <point x="182" y="554" type="curve" smooth="yes"/>
      <point x="307" y="554" type="line" smooth="yes"/>
      <point x="358" y="554"/>
      <point x="390" y="517"/>
      <point x="390" y="455" type="curve" smooth="yes"/>
      <point x="390" y="366"/>
      <point x="385" y="241"/>
      <point x="385" y="103" type="curve"/>
      <point x="392" y="110" type="line"/>
    </contour>
  </outline>
</glyph>
<glyph name="uni0999" format="1">
  <advance width="555"/>
  <unicode hex="0999"/>
  <note>
	uni0999
  </note>
  <outline>
    <contour>
      <point x="447" y="28"/>
      <point x="528" y="107"/>
      <point x="528" y="216" type="curve" smooth="yes"/>
      <point x="528" y="296"/>
      <point x="469" y="374"/>
      <point x="438" y="374" type="curve" smooth="yes"/>
      <point x="416" y="374"/>
      <point x="415" y="345"/>
      <point x="405" y="316" type="curve" smooth="yes"/>
      <point x="392" y="278"/>
      <point x="367" y="238"/>
      <point x="325" y="238" type="curve" smooth="yes"/>
      <point x="269" y="238"/>
      <point x="255" y="307"/>
      <point x="255" y="375" type="curve" smooth="yes"/>
      <point x="255" y="402"/>
      <point x="261" y="430"/>
      <point x="270" y="453" type="curve"/>
      <point x="253" y="445" type="line"/>
      <point x="282" y="437"/>
      <point x="310" y="433"/>
      <point x="337" y="433" type="curve" smooth="yes"/>
      <point x="402" y="433"/>
      <point x="456" y="476"/>
      <point x="456" y="528" type="curve" smooth="yes"/>
      <point x="456" y="547"/>
      <point x="443" y="597"/>
      <point x="374" y="597" type="curve" smooth="yes"/>
      <point x="314" y="597"/>
      <point x="254" y="526"/>
      <point x="238" y="470" type="curve"/>
      <point x="255" y="477" type="line"/>
      <point x="198" y="494"/>
      <point x="172" y="525"/>
      <point x="122" y="561" type="curve" smooth="yes"/>
      <point x="97" y="579"/>
      <point x="67" y="587"/>
      <point x="18" y="587" type="curve" smooth="yes"/>
      <point x="6" y="587"/>
      <point x="0" y="579"/>
      <point x="0" y="571" type="curve" smooth="yes"/>
      <point x="0" y="562"/>
      <point x="6" y="554"/>
      <point x="18" y="554" type="curve" smooth="yes"/>
      <point x="60" y="554"/>
      <point x="84" y="549"/>
      <point x="114" y="528" type="curve" smooth="yes"/>
      <point x="155" y="500"/>
      <point x="189" y="464"/>
      <point x="246" y="449" type="curve"/>
      <point x="236" y="465" type="line"/>
      <point x="226" y="436"/>
      <point x="219" y="406"/>
      <point x="219" y="375" type="curve" smooth="yes"/>
      <point x="219" y="286"/>
      <point x="253" y="204"/>
      <point x="332" y="204" type="curve" smooth="yes"/>
      <point x="415" y="204"/>
      <point x="443" y="311"/>
      <point x="446" y="330" type="curve"/>
      <point x="440" y="331" type="line"/>
      <point x="457" y="312"/>
      <point x="488" y="270"/>
      <point x="488" y="217" type="curve" smooth="yes"/>
      <point x="488" y="135"/>
      <point x="424" y="69"/>
      <point x="334" y="69" type="curve" smooth="yes"/>
      <point x="189" y="69"/>
      <point x="78" y="252"/>
      <point x="68" y="446" type="curve" smooth="yes"/>
      <point x="67" y="458"/>
      <point x="60" y="466"/>
      <point x="50" y="466" type="curve" smooth="yes"/>
      <point x="41" y="466"/>
      <point x="35" y="458"/>
      <point x="35" y="448" type="curve" smooth="yes"/>
      <point x="35" y="257"/>
      <point x="159" y="28"/>
      <point x="334" y="28" type="curve" smooth="yes"/>
    </contour>
    <contour>
      <point x="292" y="510"/>
      <point x="331" y="562"/>
      <point x="382" y="562" type="curve" smooth="yes"/>
      <point x="410" y="562"/>
      <point x="423" y="551"/>
      <point x="423" y="532" type="curve" smooth="yes"/>
      <point x="423" y="497"/>
      <point x="383" y="463"/>
      <point x="337" y="463" type="curve" smooth="yes"/>
      <point x="314" y="463"/>
      <point x="288" y="467"/>
      <point x="265" y="474" type="curve"/>
      <point x="272" y="459" type="line"/>
    </contour>
  </outline>
</glyph>
<glyph name="uni099A" format="1">
  <advance width="488"/>
  <unicode hex="099A"/>
  <note>
	uni099A
  </note>
  <outline>
    <contour>
      <point x="281" y="-7"/>
      <point x="432" y="184"/>
      <point x="432" y="288" type="curve" smooth="yes"/>
      <point x="432" y="329"/>
      <point x="411" y="361"/>
      <point x="357" y="370" type="curve" smooth="yes"/>
      <point x="201" y="397"/>
      <point x="139" y="428"/>
      <point x="137" y="519" type="curve" smooth="yes"/>
      <point x="137" y="551"/>
      <point x="150" y="554"/>
      <point x="169" y="554" type="curve" smooth="yes"/>
      <point x="488" y="554" type="line" smooth="yes"/>
      <point x="497" y="554"/>
      <point x="504" y="561"/>
      <point x="504" y="571" type="curve" smooth="yes"/>
      <point x="504" y="580"/>
      <point x="496" y="587"/>
      <point x="488" y="587" type="curve" smooth="yes"/>
      <point x="166" y="587" type="line" smooth="yes"/>
      <point x="125" y="586"/>
      <point x="98" y="578"/>
      <point x="98" y="533" type="curve"/>
      <point x="105" y="539" type="line"/>
      <point x="91" y="568"/>
      <point x="60" y="587"/>
      <point x="20" y="587" type="curve" smooth="yes"/>
      <point x="0" y="587" type="line" smooth="yes"/>
      <point x="-14" y="587"/>
      <point x="-26" y="582"/>
      <point x="-26" y="571" type="curve" smooth="yes"/>
      <point x="-26" y="559"/>
      <point x="-14" y="554"/>
      <point x="0" y="554" type="curve" smooth="yes"/>
      <point x="32" y="554" type="line" smooth="yes"/>
      <point x="117" y="554"/>
      <point x="103" y="458"/>
      <point x="103" y="297" type="curve" smooth="yes"/>
      <point x="103" y="113"/>
      <point x="73" y="-7"/>
      <point x="195" y="-7" type="curve" smooth="yes"/>
    </contour>
    <contour>
      <point x="124" y="26"/>
      <point x="140" y="110"/>
      <point x="140" y="222" type="curve" smooth="yes"/>
      <point x="140" y="297"/>
      <point x="139" y="364"/>
      <point x="138" y="435" type="curve"/>
      <point x="130" y="434" type="line"/>
      <point x="179" y="349"/>
      <point x="307" y="340"/>
      <point x="357" y="328" type="curve" smooth="yes"/>
      <point x="381" y="322"/>
      <point x="392" y="305"/>
      <point x="392" y="280" type="curve" smooth="yes"/>
      <point x="392" y="201"/>
      <point x="256" y="26"/>
      <point x="185" y="26" type="curve" smooth="yes"/>
    </contour>
  </outline>
</glyph>
<glyph name="uni099B" format="1">
  <advance width="528"/>
  <unicode hex="099B"/>
  <note>
	uni099B
  </note>
  <outline>
    <contour>
      <point x="509" y="-83"/>
      <point x="517" y="-73"/>
      <point x="517" y="-64" type="curve" smooth="yes"/>
      <point x="517" y="-56"/>
      <point x="512" y="-49"/>
      <point x="499" y="-49" type="curve" smooth="yes"/>
      <point x="411" y="-49"/>
      <point x="286" y="142"/>
      <point x="183" y="142" type="curve" smooth="yes"/>
      <point x="150" y="142"/>
      <point x="126" y="126"/>
      <point x="126" y="100" type="curve" smooth="yes"/>
      <point x="126" y="65"/>
      <point x="158" y="53"/>
      <point x="200" y="53" type="curve" smooth="yes"/>
      <point x="313" y="53"/>
      <point x="453" y="156"/>
      <point x="453" y="270" type="curve" smooth="yes"/>
      <point x="453" y="356"/>
      <point x="377" y="425"/>
      <point x="280" y="425" type="curve" smooth="yes"/>
      <point x="181" y="425"/>
      <point x="136" y="456"/>
      <point x="136" y="523" type="curve" smooth="yes"/>
      <point x="137" y="552"/>
      <point x="154" y="554"/>
      <point x="182" y="554" type="curve" smooth="yes"/>
      <point x="528" y="554" type="line" smooth="yes"/>
      <point x="537" y="554"/>
      <point x="544" y="561"/>
      <point x="544" y="571" type="curve" smooth="yes"/>
      <point x="544" y="580"/>
      <point x="536" y="587"/>
      <point x="528" y="587" type="curve" smooth="yes"/>
      <point x="176" y="587" type="line" smooth="yes"/>
      <point x="127" y="586"/>
      <point x="105" y="577"/>
      <point x="102" y="536" type="curve"/>
      <point x="109" y="539" type="line"/>
      <point x="97" y="567"/>
      <point x="77" y="587"/>
      <point x="24" y="587" type="curve" smooth="yes"/>
      <point x="0" y="587" type="line" smooth="yes"/>
      <point x="-12" y="587"/>
      <point x="-18" y="579"/>
      <point x="-18" y="570" type="curve" smooth="yes"/>
      <point x="-18" y="561"/>
      <point x="-12" y="554"/>
      <point x="0" y="554" type="curve" smooth="yes"/>
      <point x="35" y="554" type="line" smooth="yes"/>
      <point x="84" y="554"/>
      <point x="102" y="513"/>
      <point x="102" y="482" type="curve" smooth="yes"/>
      <point x="102" y="419"/>
      <point x="100" y="356"/>
      <point x="100" y="299" type="curve" smooth="yes"/>
      <point x="100" y="203"/>
      <point x="138" y="184"/>
      <point x="185" y="184" type="curve" smooth="yes"/>
      <point x="258" y="184"/>
      <point x="382" y="310"/>
      <point x="353" y="385" type="curve"/>
      <point x="345" y="381" type="line"/>
      <point x="388" y="362"/>
      <point x="419" y="319"/>
      <point x="419" y="273" type="curve" smooth="yes"/>
      <point x="419" y="181"/>
      <point x="294" y="88"/>
      <point x="199" y="88" type="curve" smooth="yes"/>
      <point x="180" y="88"/>
      <point x="169" y="96"/>
      <point x="169" y="102" type="curve" smooth="yes"/>
      <point x="169" y="107"/>
      <point x="174" y="110"/>
      <point x="183" y="110" type="curve" smooth="yes"/>
      <point x="244" y="110"/>
      <point x="415" y="-83"/>
      <point x="495" y="-83" type="curve" smooth="yes"/>
    </contour>
    <contour>
      <point x="123" y="213"/>
      <point x="140" y="292"/>
      <point x="135" y="468" type="curve"/>
      <point x="129" y="456" type="line"/>
      <point x="153" y="402"/>
      <point x="213" y="391"/>
      <point x="257" y="391" type="curve" smooth="yes"/>
      <point x="297" y="391"/>
      <point x="318" y="380"/>
      <point x="318" y="356" type="curve" smooth="yes"/>
      <point x="318" y="309"/>
      <point x="230" y="213"/>
      <point x="176" y="213" type="curve" smooth="yes"/>
    </contour>
  </outline>
</glyph>
<glyph name="uni099D" format="1">
  <advance width="655"/>
  <unicode hex="099D"/>
  <note>
	uni099D
  </note>
  <outline>
    <contour>
      <point x="402" y="-12"/>
      <point x="404" y="7"/>
      <point x="404" y="34" type="curve" smooth="yes"/>
      <point x="404" y="74"/>
      <point x="404" y="183"/>
      <point x="404" y="212" type="curve"/>
      <point x="393" y="223" type="line"/>
      <point x="465" y="130"/>
      <point x="518" y="129"/>
      <point x="518" y="69" type="curve" smooth="yes"/>
      <point x="518" y="50"/>
      <point x="525" y="33"/>
      <point x="538" y="33" type="curve" smooth="yes"/>
      <point x="555" y="33"/>
      <point x="557" y="61"/>
      <point x="555" y="143" type="curve" smooth="yes"/>
      <point x="551" y="323"/>
      <point x="555" y="477"/>
      <point x="565" y="576" type="curve"/>
      <point x="558" y="574" type="line"/>
      <point x="564" y="564"/>
      <point x="580" y="554"/>
      <point x="601" y="554" type="curve" smooth="yes"/>
      <point x="655" y="554" type="line" smooth="yes"/>
      <point x="664" y="554"/>
      <point x="673" y="558"/>
      <point x="673" y="571" type="curve" smooth="yes"/>
      <point x="673" y="582"/>
      <point x="664" y="587"/>
      <point x="655" y="587" type="curve" smooth="yes"/>
      <point x="582" y="587" type="line" smooth="yes"/>
      <point x="559" y="587"/>
      <point x="568" y="609"/>
      <point x="552" y="609" type="curve" smooth="yes"/>
      <point x="516" y="609"/>
      <point x="517" y="417"/>
      <point x="517" y="117" type="curve"/>
      <point x="525" y="131" type="line"/>
      <point x="489" y="175"/>
      <point x="405" y="229"/>
      <point x="405" y="283" type="curve" smooth="yes"/>
      <point x="405" y="441"/>
      <point x="410" y="517"/>
      <point x="416" y="583" type="curve" smooth="yes"/>
      <point x="417" y="597"/>
      <point x="415" y="609"/>
      <point x="403" y="609" type="curve" smooth="yes"/>
      <point x="391" y="609"/>
      <point x="383" y="581"/>
      <point x="378" y="533" type="curve"/>
      <point x="387" y="548" type="line"/>
      <point x="371" y="573"/>
      <point x="335" y="587"/>
      <point x="286" y="587" type="curve" smooth="yes"/>
      <point x="0" y="587" type="line" smooth="yes"/>
      <point x="-7" y="587"/>
      <point x="-17" y="582"/>
      <point x="-17" y="571" type="curve" smooth="yes"/>
      <point x="-17" y="562"/>
      <point x="-9" y="554"/>
      <point x="0" y="554" type="curve" smooth="yes"/>
      <point x="292" y="554" type="line" smooth="yes"/>
      <point x="338" y="554"/>
      <point x="363" y="539"/>
      <point x="363" y="520" type="curve" smooth="yes"/>
      <point x="363" y="490"/>
      <point x="320" y="457"/>
      <point x="60" y="343" type="curve" smooth="yes"/>
      <point x="41" y="334"/>
      <point x="32" y="320"/>
      <point x="32" y="307" type="curve" smooth="yes"/>
      <point x="32" y="292"/>
      <point x="43" y="278"/>
      <point x="62" y="274" type="curve" smooth="yes"/>
      <point x="125" y="260"/>
      <point x="368" y="174"/>
      <point x="368" y="37" type="curve" smooth="yes"/>
      <point x="368" y="12"/>
      <point x="372" y="-12"/>
      <point x="388" y="-12" type="curve" smooth="yes"/>
    </contour>
    <contour>
      <point x="320" y="207"/>
      <point x="207" y="280"/>
      <point x="57" y="312" type="curve"/>
      <point x="52" y="300" type="line"/>
      <point x="245" y="388"/>
      <point x="342" y="426"/>
      <point x="377" y="472" type="curve"/>
      <point x="373" y="476" type="line"/>
      <point x="369" y="389"/>
      <point x="368" y="264"/>
      <point x="368" y="120" type="curve"/>
      <point x="374" y="127" type="line"/>
    </contour>
  </outline>
</glyph>
<glyph name="uni099E" format="1">
  <advance width="784"/>
  <unicode hex="099E"/>
  <note>
	uni099E
  </note>
  <outline>
    <contour>
      <point x="716" y="116"/>
      <point x="772" y="159"/>
      <point x="772" y="226" type="curve" smooth="yes"/>
      <point x="772" y="295"/>
      <point x="717" y="347"/>
      <point x="666" y="347" type="curve" smooth="yes"/>
      <point x="631" y="347"/>
      <point x="613" y="326"/>
      <point x="613" y="306" type="curve" smooth="yes"/>
      <point x="613" y="288"/>
      <point x="628" y="270"/>
      <point x="659" y="270" type="curve" smooth="yes"/>
      <point x="723" y="270"/>
      <point x="767" y="348"/>
      <point x="767" y="401" type="curve" smooth="yes"/>
      <point x="767" y="456"/>
      <point x="718" y="508"/>
      <point x="653" y="508" type="curve" smooth="yes"/>
      <point x="548" y="508"/>
      <point x="476" y="382"/>
      <point x="476" y="335" type="curve"/>
      <point x="500" y="312" type="line"/>
      <point x="500" y="377"/>
      <point x="571" y="478"/>
      <point x="652" y="478" type="curve" smooth="yes"/>
      <point x="697" y="478"/>
      <point x="731" y="445"/>
      <point x="731" y="394" type="curve" smooth="yes"/>
      <point x="731" y="338"/>
      <point x="689" y="296"/>
      <point x="661" y="296" type="curve" smooth="yes"/>
      <point x="649" y="296"/>
      <point x="643" y="303"/>
      <point x="643" y="309" type="curve" smooth="yes"/>
      <point x="643" y="316"/>
      <point x="649" y="322"/>
      <point x="662" y="322" type="curve" smooth="yes"/>
      <point x="687" y="322"/>
      <point x="736" y="291"/>
      <point x="736" y="236" type="curve" smooth="yes"/>
      <point x="736" y="177"/>
      <point x="685" y="148"/>
      <point x="646" y="148" type="curve" smooth="yes"/>
      <point x="588" y="148"/>
      <point x="500" y="210"/>
      <point x="500" y="300" type="curve"/>
      <point x="477" y="284" type="line"/>
      <point x="477" y="194"/>
      <point x="569" y="116"/>
      <point x="655" y="116" type="curve" smooth="yes"/>
    </contour>
    <contour>
      <point x="499" y="-12"/>
      <point x="498" y="9"/>
      <point x="498" y="42" type="curve" smooth="yes"/>
      <point x="501" y="468" type="line" smooth="yes"/>
      <point x="502" y="546"/>
      <point x="492" y="595"/>
      <point x="433" y="595" type="curve" smooth="yes"/>
      <point x="330" y="595"/>
      <point x="168" y="443"/>
      <point x="168" y="326" type="curve" smooth="yes"/>
      <point x="168" y="274"/>
      <point x="199" y="240"/>
      <point x="245" y="240" type="curve" smooth="yes"/>
      <point x="282" y="240"/>
      <point x="316" y="263"/>
      <point x="316" y="307" type="curve" smooth="yes"/>
      <point x="316" y="346"/>
      <point x="288" y="377"/>
      <point x="248" y="377" type="curve" smooth="yes"/>
      <point x="229" y="377"/>
      <point x="215" y="370"/>
      <point x="203" y="356" type="curve"/>
      <point x="209" y="353" type="line"/>
      <point x="233" y="454"/>
      <point x="366" y="566"/>
      <point x="428" y="566" type="curve" smooth="yes"/>
      <point x="460" y="566"/>
      <point x="461" y="535"/>
      <point x="462" y="468" type="curve" smooth="yes"/>
      <point x="462" y="456"/>
      <point x="463" y="103"/>
      <point x="463" y="86" type="curve"/>
      <point x="471" y="88" type="line"/>
      <point x="445" y="116"/>
      <point x="405" y="137"/>
      <point x="355" y="137" type="curve" smooth="yes"/>
      <point x="296" y="137"/>
      <point x="254" y="107"/>
      <point x="192" y="107" type="curve" smooth="yes"/>
      <point x="117" y="107"/>
      <point x="48" y="152"/>
      <point x="48" y="241" type="curve" smooth="yes"/>
      <point x="48" y="305"/>
      <point x="83" y="341"/>
      <point x="83" y="364" type="curve" smooth="yes"/>
      <point x="83" y="375"/>
      <point x="76" y="380"/>
      <point x="68" y="380" type="curve" smooth="yes"/>
      <point x="38" y="380"/>
      <point x="13" y="300"/>
      <point x="13" y="243" type="curve" smooth="yes"/>
      <point x="13" y="139"/>
      <point x="94" y="65"/>
      <point x="192" y="65" type="curve" smooth="yes"/>
      <point x="258" y="65"/>
      <point x="298" y="99"/>
      <point x="360" y="99" type="curve" smooth="yes"/>
      <point x="409" y="99"/>
      <point x="460" y="78"/>
      <point x="463" y="27" type="curve" smooth="yes"/>
      <point x="464" y="9"/>
      <point x="466" y="-12"/>
      <point x="482" y="-12" type="curve" smooth="yes"/>
    </contour>
    <contour>
      <point x="226" y="272"/>
      <point x="207" y="285"/>
      <point x="207" y="309" type="curve" smooth="yes"/>
      <point x="207" y="333"/>
      <point x="225" y="349"/>
      <point x="246" y="349" type="curve" smooth="yes"/>
      <point x="270" y="349"/>
      <point x="282" y="328"/>
      <point x="282" y="308" type="curve" smooth="yes"/>
      <point x="282" y="285"/>
      <point x="265" y="272"/>
      <point x="246" y="272" type="curve" smooth="yes"/>
    </contour>
  </outline>
</glyph>
<glyph name="uni09A3" format="1">
  <advance width="522"/>
  <unicode hex="09A3"/>
  <note>
	uni09A3
  </note>
  <outline>
    <contour>
      <point x="451" y="587" type="line" smooth="yes"/>
      <point x="425" y="587"/>
      <point x="434" y="609"/>
      <point x="418" y="609" type="curve" smooth="yes"/>
      <point x="397" y="609"/>
      <point x="389" y="529"/>
      <point x="385" y="398" type="curve"/>
      <point x="390" y="409" type="line"/>
      <point x="358" y="504"/>
      <point x="287" y="590"/>
      <point x="183" y="590" type="curve" smooth="yes"/>
      <point x="133" y="590"/>
      <point x="20" y="556"/>
      <point x="20" y="434" type="curve" smooth="yes"/>
      <point x="20" y="330"/>
      <point x="117" y="283"/>
      <point x="172" y="283" type="curve" smooth="yes"/>
      <point x="218" y="283"/>
      <point x="247" y="315"/>
      <point x="247" y="350" type="curve" smooth="yes"/>
      <point x="247" y="387"/>
      <point x="220" y="413"/>
      <point x="183" y="413" type="curve" smooth="yes"/>
      <point x="128" y="413"/>
      <point x="95" y="355"/>
      <point x="134" y="316" type="curve"/>
      <point x="135" y="323" type="line"/>
      <point x="97" y="338"/>
      <point x="61" y="372"/>
      <point x="61" y="434" type="curve" smooth="yes"/>
      <point x="61" y="518"/>
      <point x="135" y="553"/>
      <point x="186" y="553" type="curve" smooth="yes"/>
      <point x="291" y="553"/>
      <point x="384" y="403"/>
      <point x="384" y="296" type="curve" smooth="yes"/>
      <point x="384" y="228"/>
      <point x="383" y="152"/>
      <point x="383" y="71" type="curve" smooth="yes"/>
      <point x="383" y="23"/>
      <point x="383" y="-12"/>
      <point x="404" y="-12" type="curve" smooth="yes"/>
      <point x="425" y="-12"/>
      <point x="422" y="23"/>
      <point x="422" y="71" type="curve" smooth="yes"/>
      <point x="422" y="369"/>
      <point x="423" y="485"/>
      <point x="431" y="574" type="curve"/>
      <point x="424" y="574" type="line"/>
      <point x="430" y="564"/>
      <point x="446" y="554"/>
      <point x="467" y="554" type="curve" smooth="yes"/>
      <point x="522" y="554" type="line" smooth="yes"/>
      <point x="531" y="554"/>
      <point x="542" y="559"/>
      <point x="542" y="570" type="curve" smooth="yes"/>
      <point x="542" y="582"/>
      <point x="531" y="587"/>
      <point x="522" y="587" type="curve" smooth="yes"/>
    </contour>
    <contour>
      <point x="146" y="369"/>
      <point x="165" y="383"/>
      <point x="183" y="383" type="curve" smooth="yes"/>
      <point x="200" y="383"/>
      <point x="217" y="370"/>
      <point x="217" y="350" type="curve" smooth="yes"/>
      <point x="217" y="332"/>
      <point x="204" y="313"/>
      <point x="181" y="313" type="curve" smooth="yes"/>
      <point x="161" y="313"/>
      <point x="146" y="330"/>
      <point x="146" y="347" type="curve" smooth="yes"/>
    </contour>
  </outline>
</glyph>
<glyph name="uni09A5" format="1">
  <advance width="522"/>
  <unicode hex="09A5"/>
  <note>
	uni09A5
  </note>
  <outline>
    <contour>
      <point x="420" y="-12"/>
      <point x="422" y="8"/>
      <point x="422" y="37" type="curve" smooth="yes"/>
      <point x="422" y="265"/>
      <point x="423" y="486"/>
      <point x="431" y="573" type="curve"/>
      <point x="424" y="574" type="line"/>
      <point x="430" y="564"/>
      <point x="446" y="554"/>
      <point x="467" y="554" type="curve" smooth="yes"/>
      <point x="522" y="554" type="line" smooth="yes"/>
      <point x="531" y="554"/>
      <point x="542" y="559"/>
      <point x="542" y="570" type="curve" smooth="yes"/>
      <point x="542" y="582"/>
      <point x="531" y="587"/>
      <point x="522" y="587" type="curve" smooth="yes"/>
      <point x="450" y="587" type="line" smooth="yes"/>
      <point x="426" y="587"/>
      <point x="434" y="609"/>
      <point x="418" y="609" type="curve" smooth="yes"/>
      <point x="384" y="609"/>
      <point x="383" y="392"/>
      <point x="383" y="96" type="curve"/>
      <point x="391" y="113" type="line"/>
      <point x="331" y="195"/>
      <point x="248" y="245"/>
      <point x="143" y="285" type="curve"/>
      <point x="141" y="278" type="line"/>
      <point x="237" y="291"/>
      <point x="321" y="343"/>
      <point x="321" y="440" type="curve" smooth="yes"/>
      <point x="321" y="542"/>
      <point x="254" y="590"/>
      <point x="174" y="590" type="curve" smooth="yes"/>
      <point x="108" y="590"/>
      <point x="30" y="546"/>
      <point x="30" y="479" type="curve" smooth="yes"/>
      <point x="30" y="446"/>
      <point x="56" y="415"/>
      <point x="96" y="415" type="curve" smooth="yes"/>
      <point x="135" y="415"/>
      <point x="160" y="445"/>
      <point x="160" y="476" type="curve" smooth="yes"/>
      <point x="160" y="516"/>
      <point x="117" y="546"/>
      <point x="83" y="526" type="curve"/>
      <point x="87" y="523" type="line"/>
      <point x="105" y="546"/>
      <point x="144" y="558"/>
      <point x="177" y="558" type="curve" smooth="yes"/>
      <point x="245" y="558"/>
      <point x="288" y="505"/>
      <point x="288" y="447" type="curve" smooth="yes"/>
      <point x="288" y="362"/>
      <point x="195" y="307"/>
      <point x="99" y="307" type="curve" smooth="yes"/>
      <point x="77" y="307"/>
      <point x="71" y="295"/>
      <point x="71" y="285" type="curve" smooth="yes"/>
      <point x="71" y="273"/>
      <point x="80" y="263"/>
      <point x="93" y="259" type="curve" smooth="yes"/>
      <point x="203" y="225"/>
      <point x="383" y="134"/>
      <point x="383" y="41" type="curve" smooth="yes"/>
      <point x="383" y="17"/>
      <point x="386" y="-12"/>
      <point x="404" y="-12" type="curve" smooth="yes"/>
    </contour>
    <contour>
      <point x="78" y="446"/>
      <point x="65" y="461"/>
      <point x="65" y="478" type="curve" smooth="yes"/>
      <point x="65" y="495"/>
      <point x="79" y="509"/>
      <point x="96" y="509" type="curve" smooth="yes"/>
      <point x="111" y="509"/>
      <point x="127" y="500"/>
      <point x="127" y="477" type="curve" smooth="yes"/>
      <point x="127" y="459"/>
      <point x="111" y="446"/>
      <point x="96" y="446" type="curve" smooth="yes"/>
    </contour>
  </outline>
</glyph>
<glyph name="uni09A6" format="1">
  <advance width="528"/>
  <unicode hex="09A6"/>
  <note>
	uni09A6
  </note>
  <outline>
    <contour>
      <point x="429" y="-12"/>
      <point x="428" y="26"/>
      <point x="428" y="49" type="curve" smooth="yes"/>
      <point x="427" y="151"/>
      <point x="415" y="184"/>
      <point x="415" y="236" type="curve" smooth="yes"/>
      <point x="415" y="318"/>
      <point x="444" y="387"/>
      <point x="444" y="415" type="curve" smooth="yes"/>
      <point x="444" y="427"/>
      <point x="439" y="437"/>
      <point x="426" y="437" type="curve" smooth="yes"/>
      <point x="382" y="437"/>
      <point x="224" y="326"/>
      <point x="128" y="203" type="curve"/>
      <point x="129" y="230"/>
      <point x="130" y="293"/>
      <point x="130" y="327" type="curve" smooth="yes"/>
      <point x="130" y="489"/>
      <point x="107" y="554"/>
      <point x="168" y="554" type="curve" smooth="yes"/>
      <point x="528" y="554" type="line" smooth="yes"/>
      <point x="537" y="554"/>
      <point x="544" y="561"/>
      <point x="544" y="570" type="curve" smooth="yes"/>
      <point x="544" y="580"/>
      <point x="536" y="587"/>
      <point x="528" y="587" type="curve" smooth="yes"/>
      <point x="158" y="587" type="line" smooth="yes"/>
      <point x="129" y="587"/>
      <point x="106" y="574"/>
      <point x="96" y="546" type="curve"/>
      <point x="83" y="571"/>
      <point x="53" y="587"/>
      <point x="17" y="587" type="curve" smooth="yes"/>
      <point x="0" y="587" type="line" smooth="yes"/>
      <point x="-12" y="587"/>
      <point x="-20" y="579"/>
      <point x="-20" y="570" type="curve" smooth="yes"/>
      <point x="-20" y="561"/>
      <point x="-12" y="554"/>
      <point x="0" y="554" type="curve" smooth="yes"/>
      <point x="23" y="554" type="line" smooth="yes"/>
      <point x="89" y="554"/>
      <point x="94" y="504"/>
      <point x="92" y="361" type="curve" smooth="yes"/>
      <point x="90" y="207"/>
      <point x="86" y="165"/>
      <point x="86" y="150" type="curve" smooth="yes"/>
      <point x="86" y="126"/>
      <point x="97" y="122"/>
      <point x="105" y="122" type="curve" smooth="yes"/>
      <point x="112" y="122"/>
      <point x="118" y="125"/>
      <point x="122" y="130" type="curve" smooth="yes"/>
      <point x="183" y="201"/>
      <point x="242" y="297"/>
      <point x="399" y="381" type="curve"/>
      <point x="382" y="337"/>
      <point x="377" y="291"/>
      <point x="377" y="246" type="curve" smooth="yes"/>
      <point x="377" y="183"/>
      <point x="387" y="174"/>
      <point x="389" y="50" type="curve" smooth="yes"/>
      <point x="390" y="23"/>
      <point x="389" y="-12"/>
      <point x="409" y="-12" type="curve" smooth="yes"/>
    </contour>
  </outline>
</glyph>
<glyph name="uni09A7" format="1">
  <advance width="489"/>
  <unicode hex="09A7"/>
  <note>
	uni09A7
  </note>
  <outline>
    <contour>
      <point x="389" y="-12"/>
      <point x="389" y="10"/>
      <point x="389" y="39" type="curve" smooth="yes"/>
      <point x="389" y="266"/>
      <point x="391" y="489"/>
      <point x="397" y="573" type="curve"/>
      <point x="391" y="574" type="line"/>
      <point x="397" y="564"/>
      <point x="413" y="554"/>
      <point x="434" y="554" type="curve" smooth="yes"/>
      <point x="489" y="554" type="line" smooth="yes"/>
      <point x="498" y="554"/>
      <point x="509" y="559"/>
      <point x="509" y="570" type="curve" smooth="yes"/>
      <point x="509" y="582"/>
      <point x="498" y="587"/>
      <point x="489" y="587" type="curve" smooth="yes"/>
      <point x="417" y="587" type="line" smooth="yes"/>
      <point x="392" y="587"/>
      <point x="401" y="609"/>
      <point x="385" y="609" type="curve" smooth="yes"/>
      <point x="367" y="609"/>
      <point x="361" y="535"/>
      <point x="358" y="510" type="curve" smooth="yes"/>
      <point x="354" y="473"/>
      <point x="322" y="454"/>
      <point x="266" y="426" type="curve" smooth="yes"/>
      <point x="206" y="396"/>
      <point x="81" y="455"/>
      <point x="120" y="534" type="curve"/>
      <point x="113" y="534" type="line"/>
      <point x="113" y="501"/>
      <point x="144" y="481"/>
      <point x="178" y="481" type="curve" smooth="yes"/>
      <point x="211" y="481"/>
      <point x="240" y="505"/>
      <point x="238" y="548" type="curve" smooth="yes"/>
      <point x="235" y="582"/>
      <point x="208" y="605"/>
      <point x="173" y="605" type="curve" smooth="yes"/>
      <point x="130" y="605"/>
      <point x="75" y="567"/>
      <point x="75" y="498" type="curve" smooth="yes"/>
      <point x="75" y="424"/>
      <point x="142" y="391"/>
      <point x="201" y="388" type="curve"/>
      <point x="200" y="394" type="line"/>
      <point x="150" y="371"/>
      <point x="95" y="349"/>
      <point x="44" y="333" type="curve" smooth="yes"/>
      <point x="26" y="327"/>
      <point x="15" y="314"/>
      <point x="15" y="295" type="curve" smooth="yes"/>
      <point x="15" y="278"/>
      <point x="25" y="261"/>
      <point x="48" y="257" type="curve" smooth="yes"/>
      <point x="157" y="239"/>
      <point x="350" y="124"/>
      <point x="350" y="45" type="curve" smooth="yes"/>
      <point x="350" y="22"/>
      <point x="349" y="-12"/>
      <point x="372" y="-12" type="curve" smooth="yes"/>
    </contour>
    <contour>
      <point x="295" y="208"/>
      <point x="158" y="279"/>
      <point x="46" y="297" type="curve"/>
      <point x="43" y="290" type="line"/>
      <point x="178" y="339"/>
      <point x="308" y="394"/>
      <point x="360" y="442" type="curve"/>
      <point x="354" y="447" type="line"/>
      <point x="350" y="360"/>
      <point x="350" y="242"/>
      <point x="350" y="108" type="curve"/>
      <point x="356" y="113" type="line"/>
    </contour>
    <contour>
      <point x="155" y="510"/>
      <point x="141" y="525"/>
      <point x="141" y="541" type="curve" smooth="yes"/>
      <point x="141" y="559"/>
      <point x="157" y="572"/>
      <point x="175" y="572" type="curve" smooth="yes"/>
      <point x="191" y="572"/>
      <point x="207" y="560"/>
      <point x="207" y="541" type="curve" smooth="yes"/>
      <point x="207" y="526"/>
      <point x="196" y="510"/>
      <point x="176" y="510" type="curve" smooth="yes"/>
    </contour>
  </outline>
</glyph>
<glyph name="uni09AA" format="1">
  <advance width="580"/>
  <unicode hex="09AA"/>
  <note>
	uni09AA
  </note>
  <outline>
    <contour>
      <point x="477" y="-12"/>
      <point x="480" y="6"/>
      <point x="480" y="35" type="curve" smooth="yes"/>
      <point x="480" y="244"/>
      <point x="480" y="478"/>
      <point x="489" y="574" type="curve"/>
      <point x="482" y="574" type="line"/>
      <point x="488" y="564"/>
      <point x="504" y="554"/>
      <point x="525" y="554" type="curve" smooth="yes"/>
      <point x="580" y="554" type="line" smooth="yes"/>
      <point x="589" y="554"/>
      <point x="600" y="559"/>
      <point x="600" y="570" type="curve" smooth="yes"/>
      <point x="600" y="582"/>
      <point x="589" y="587"/>
      <point x="580" y="587" type="curve" smooth="yes"/>
      <point x="506" y="587" type="line" smooth="yes"/>
      <point x="485" y="587"/>
      <point x="491" y="609"/>
      <point x="476" y="609" type="curve" smooth="yes"/>
      <point x="455" y="609"/>
      <point x="447" y="527"/>
      <point x="443" y="397" type="curve"/>
      <point x="449" y="407" type="line"/>
      <point x="415" y="510"/>
      <point x="334" y="564"/>
      <point x="230" y="564" type="curve" smooth="yes"/>
      <point x="133" y="564"/>
      <point x="33" y="505"/>
      <point x="33" y="416" type="curve" smooth="yes"/>
      <point x="33" y="347"/>
      <point x="94" y="295"/>
      <point x="161" y="295" type="curve" smooth="yes"/>
      <point x="188" y="295"/>
      <point x="209" y="301"/>
      <point x="227" y="306" type="curve"/>
      <point x="229" y="316" type="line"/>
      <point x="192" y="278"/>
      <point x="164" y="236"/>
      <point x="164" y="221" type="curve" smooth="yes"/>
      <point x="164" y="216"/>
      <point x="168" y="208"/>
      <point x="178" y="208" type="curve" smooth="yes"/>
      <point x="197" y="208"/>
      <point x="219" y="272"/>
      <point x="290" y="327" type="curve" smooth="yes"/>
      <point x="346" y="370"/>
      <point x="389" y="391"/>
      <point x="426" y="405" type="curve"/>
      <point x="412" y="412" type="line"/>
      <point x="428" y="378"/>
      <point x="442" y="343"/>
      <point x="442" y="294" type="curve" smooth="yes"/>
      <point x="442" y="227"/>
      <point x="441" y="152"/>
      <point x="441" y="71" type="curve" smooth="yes"/>
      <point x="441" y="23"/>
      <point x="441" y="-12"/>
      <point x="462" y="-12" type="curve" smooth="yes"/>
    </contour>
    <contour>
      <point x="115" y="326"/>
      <point x="75" y="364"/>
      <point x="75" y="408" type="curve" smooth="yes"/>
      <point x="75" y="482"/>
      <point x="155" y="530"/>
      <point x="238" y="530" type="curve" smooth="yes"/>
      <point x="306" y="530"/>
      <point x="372" y="489"/>
      <point x="410" y="418" type="curve"/>
      <point x="420" y="436" type="line"/>
      <point x="287" y="395"/>
      <point x="290" y="326"/>
      <point x="164" y="326" type="curve" smooth="yes"/>
    </contour>
  </outline>
</glyph>
<glyph name="uni09B6" format="1">
  <advance width="579"/>
  <unicode hex="09B6"/>
  <note>
	uni09B6
  </note>
  <outline>
    <contour>
      <point x="476" y="-12"/>
      <point x="479" y="6"/>
      <point x="479" y="35" type="curve" smooth="yes"/>
      <point x="479" y="244"/>
      <point x="479" y="478"/>
      <point x="488" y="574" type="curve"/>
      <point x="481" y="574" type="line"/>
      <point x="487" y="564"/>
      <point x="503" y="554"/>
      <point x="524" y="554" type="curve" smooth="yes"/>
      <point x="579" y="554" type="line" smooth="yes"/>
      <point x="588" y="554"/>
      <point x="599" y="559"/>
      <point x="599" y="570" type="curve" smooth="yes"/>
      <point x="599" y="582"/>
      <point x="588" y="587"/>
      <point x="579" y="587" type="curve" smooth="yes"/>
      <point x="506" y="587" type="line" smooth="yes"/>
      <point x="483" y="587"/>
      <point x="491" y="609"/>
      <point x="475" y="609" type="curve" smooth="yes"/>
      <point x="456" y="609"/>
      <point x="447" y="540"/>
      <point x="443" y="427" type="curve"/>
      <point x="448" y="438" type="line"/>
      <point x="423" y="513"/>
      <point x="373" y="580"/>
      <point x="288" y="580" type="curve" smooth="yes"/>
      <point x="234" y="580"/>
      <point x="190" y="540"/>
      <point x="174" y="482" type="curve"/>
      <point x="183" y="484" type="line"/>
      <point x="159" y="540"/>
      <point x="107" y="587"/>
      <point x="44" y="587" type="curve" smooth="yes"/>
      <point x="0" y="587" type="line" smooth="yes"/>
      <point x="-11" y="587"/>
      <point x="-21" y="583"/>
      <point x="-21" y="571" type="curve" smooth="yes"/>
      <point x="-21" y="558"/>
      <point x="-11" y="554"/>
      <point x="0" y="554" type="curve" smooth="yes"/>
      <point x="57" y="554" type="line" smooth="yes"/>
      <point x="98" y="554"/>
      <point x="132" y="518"/>
      <point x="148" y="475" type="curve"/>
      <point x="156" y="490" type="line"/>
      <point x="85" y="482"/>
      <point x="29" y="427"/>
      <point x="29" y="358" type="curve" smooth="yes"/>
      <point x="29" y="321"/>
      <point x="53" y="285"/>
      <point x="93" y="285" type="curve" smooth="yes"/>
      <point x="134" y="285"/>
      <point x="175" y="322"/>
      <point x="190" y="366" type="curve"/>
      <point x="179" y="366" type="line"/>
      <point x="197" y="324"/>
      <point x="231" y="288"/>
      <point x="275" y="288" type="curve" smooth="yes"/>
      <point x="309" y="288"/>
      <point x="336" y="313"/>
      <point x="336" y="350" type="curve" smooth="yes"/>
      <point x="336" y="421"/>
      <point x="287" y="481"/>
      <point x="202" y="490" type="curve"/>
      <point x="212" y="475" type="line"/>
      <point x="225" y="519"/>
      <point x="257" y="549"/>
      <point x="298" y="549" type="curve" smooth="yes"/>
      <point x="374" y="549"/>
      <point x="441" y="414"/>
      <point x="441" y="307" type="curve" smooth="yes"/>
      <point x="441" y="267"/>
      <point x="440" y="147"/>
      <point x="440" y="71" type="curve" smooth="yes"/>
      <point x="440" y="23"/>
      <point x="440" y="-12"/>
      <point x="461" y="-12" type="curve" smooth="yes"/>
    </contour>
    <contour>
      <point x="72" y="314"/>
      <point x="65" y="334"/>
      <point x="65" y="354" type="curve" smooth="yes"/>
      <point x="65" y="408"/>
      <point x="101" y="459"/>
      <point x="168" y="463" type="curve"/>
      <point x="148" y="474" type="line"/>
      <point x="157" y="455"/>
      <point x="160" y="435"/>
      <point x="160" y="417" type="curve" smooth="yes"/>
      <point x="160" y="366"/>
      <point x="127" y="314"/>
      <point x="95" y="314" type="curve" smooth="yes"/>
    </contour>
    <contour>
      <point x="233" y="317"/>
      <point x="206" y="378"/>
      <point x="206" y="429" type="curve" smooth="yes"/>
      <point x="206" y="444"/>
      <point x="208" y="458"/>
      <point x="212" y="472" type="curve"/>
      <point x="195" y="462" type="line"/>
      <point x="259" y="455"/>
      <point x="301" y="403"/>
      <point x="301" y="352" type="curve" smooth="yes"/>
      <point x="301" y="335"/>
      <point x="293" y="317"/>
      <point x="270" y="317" type="curve" smooth="yes"/>
    </contour>
  </outline>
</glyph>
<glyph name="uni09B7" format="1">
  <advance width="511"/>
  <unicode hex="09B7"/>
  <note>
	uni09B7
  </note>
  <outline>
    <contour>
      <point x="379" y="305" type="line"/>
      <point x="125" y="496" type="line" smooth="yes"/>
      <point x="87" y="520"/>
      <point x="90" y="541"/>
      <point x="90" y="561" type="curve"/>
      <point x="50" y="565" type="line"/>
      <point x="49" y="523"/>
      <point x="72" y="495"/>
      <point x="106" y="471" type="curve" smooth="yes"/>
      <point x="378" y="273" type="line"/>
    </contour>
    <contour>
      <point x="372" y="107" type="curve"/>
      <point x="379" y="113" type="line"/>
      <point x="324" y="191"/>
      <point x="209" y="250"/>
      <point x="112" y="279" type="curve"/>
      <point x="114" y="269" type="line"/>
      <point x="160" y="296"/>
      <point x="210" y="327"/>
      <point x="263" y="360" type="curve"/>
      <point x="241" y="385" type="line"/>
      <point x="75" y="288" type="line" smooth="yes"/>
      <point x="67" y="283"/>
      <point x="63" y="276"/>
      <point x="63" y="269" type="curve" smooth="yes"/>
      <point x="63" y="258"/>
      <point x="72" y="247"/>
      <point x="92" y="243" type="curve" smooth="yes"/>
      <point x="191" y="222"/>
      <point x="372" y="128"/>
      <point x="372" y="44" type="curve" smooth="yes"/>
      <point x="372" y="12"/>
      <point x="375" y="-12"/>
      <point x="393" y="-12" type="curve" smooth="yes"/>
      <point x="403" y="-12"/>
      <point x="410" y="-4"/>
      <point x="411" y="15" type="curve" smooth="yes"/>
      <point x="413" y="43"/>
      <point x="411" y="480"/>
      <point x="420" y="574" type="curve"/>
      <point x="413" y="574" type="line"/>
      <point x="419" y="564"/>
      <point x="435" y="554"/>
      <point x="456" y="554" type="curve" smooth="yes"/>
      <point x="511" y="554" type="line" smooth="yes"/>
      <point x="520" y="554"/>
      <point x="531" y="559"/>
      <point x="531" y="570" type="curve" smooth="yes"/>
      <point x="531" y="582"/>
      <point x="520" y="587"/>
      <point x="511" y="587" type="curve" smooth="yes"/>
      <point x="437" y="587" type="line" smooth="yes"/>
      <point x="416" y="587"/>
      <point x="422" y="609"/>
      <point x="407" y="609" type="curve" smooth="yes"/>
      <point x="394" y="609"/>
      <point x="385" y="575"/>
      <point x="381" y="517" type="curve"/>
      <point x="388" y="529" type="line"/>
      <point x="373" y="567"/>
      <point x="339" y="587"/>
      <point x="284" y="587" type="curve" smooth="yes"/>
      <point x="0" y="587" type="line" smooth="yes"/>
      <point x="-11" y="587"/>
      <point x="-19" y="582"/>
      <point x="-19" y="571" type="curve" smooth="yes"/>
      <point x="-19" y="562"/>
      <point x="-13" y="554"/>
      <point x="0" y="554" type="curve" smooth="yes"/>
      <point x="301" y="554" type="line" smooth="yes"/>
      <point x="365" y="554"/>
      <point x="377" y="491"/>
      <point x="376" y="444" type="curve" smooth="yes"/>
      <point x="374" y="345"/>
      <point x="373" y="244"/>
    </contour>
  </outline>
</glyph>
<glyph name="uni09B9" format="1">
  <advance width="488"/>
  <unicode hex="09B9"/>
  <note>
	uni09B9
  </note>
  <outline>
    <contour>
      <point x="447" y="-29"/>
      <point x="452" y="-19"/>
      <point x="452" y="-10" type="curve" smooth="yes"/>
      <point x="452" y="4"/>
      <point x="441" y="9"/>
      <point x="424" y="9" type="curve" smooth="yes"/>
      <point x="302" y="9"/>
      <point x="247" y="227"/>
      <point x="147" y="227" type="curve" smooth="yes"/>
      <point x="118" y="227"/>
      <point x="97" y="212"/>
      <point x="97" y="186" type="curve" smooth="yes"/>
      <point x="97" y="154"/>
      <point x="129" y="135"/>
      <point x="179" y="135" type="curve" smooth="yes"/>
      <point x="292" y="135"/>
      <point x="408" y="228"/>
      <point x="408" y="343" type="curve" smooth="yes"/>
      <point x="408" y="440"/>
      <point x="329" y="499"/>
      <point x="235" y="499" type="curve" smooth="yes"/>
      <point x="169" y="499"/>
      <point x="88" y="469"/>
      <point x="88" y="407" type="curve" smooth="yes"/>
      <point x="88" y="373"/>
      <point x="112" y="338"/>
      <point x="155" y="338" type="curve" smooth="yes"/>
      <point x="195" y="338"/>
      <point x="224" y="367"/>
      <point x="224" y="401" type="curve" smooth="yes"/>
      <point x="224" y="433"/>
      <point x="198" y="461"/>
      <point x="165" y="457" type="curve"/>
      <point x="165" y="451" type="line"/>
      <point x="189" y="464"/>
      <point x="219" y="468"/>
      <point x="238" y="468" type="curve" smooth="yes"/>
      <point x="298" y="468"/>
      <point x="366" y="422"/>
      <point x="366" y="340" type="curve" smooth="yes"/>
      <point x="366" y="239"/>
      <point x="265" y="170"/>
      <point x="164" y="170" type="curve" smooth="yes"/>
      <point x="146" y="170"/>
      <point x="134" y="178"/>
      <point x="134" y="185" type="curve" smooth="yes"/>
      <point x="134" y="189"/>
      <point x="139" y="192"/>
      <point x="149" y="192" type="curve" smooth="yes"/>
      <point x="217" y="192"/>
      <point x="283" y="-29"/>
      <point x="420" y="-29" type="curve" smooth="yes"/>
    </contour>
    <contour>
      <point x="146" y="374"/>
      <point x="125" y="383"/>
      <point x="125" y="406" type="curve" smooth="yes"/>
      <point x="125" y="427"/>
      <point x="141" y="438"/>
      <point x="159" y="438" type="curve" smooth="yes"/>
      <point x="179" y="438"/>
      <point x="191" y="423"/>
      <point x="191" y="406" type="curve" smooth="yes"/>
      <point x="191" y="384"/>
      <point x="172" y="374"/>
      <point x="159" y="374" type="curve" smooth="yes"/>
    </contour>
    <contour>
      <point x="488" y="554" type="line" smooth="yes"/>
      <point x="497" y="554"/>
      <point x="503" y="561"/>
      <point x="503" y="570" type="curve" smooth="yes"/>
      <point x="503" y="581"/>
      <point x="495" y="587"/>
      <point x="488" y="587" type="curve" smooth="yes"/>
      <point x="0" y="587" type="line" smooth="yes"/>
      <point x="-7" y="587"/>
      <point x="-16" y="581"/>
      <point x="-16" y="570" type="curve" smooth="yes"/>
      <point x="-16" y="561"/>
      <point x="-9" y="554"/>
      <point x="0" y="554" type="curve" smooth="yes"/>
    </contour>
  </outline>
</glyph>
<glyph name="uni09BD" format="1">
  <advance width="502"/>
  <unicode hex="09BD"/>
  <note>
	uni09BD
  </note>
  <outline>
    <contour>
      <point x="447" y="41"/>
      <point x="452" y="51"/>
      <point x="452" y="60" type="curve" smooth="yes"/>
      <point x="452" y="74"/>
      <point x="441" y="79"/>
      <point x="424" y="79" type="curve" smooth="yes"/>
      <point x="302" y="79"/>
      <point x="247" y="297"/>
      <point x="147" y="297" type="curve" smooth="yes"/>
      <point x="118" y="297"/>
      <point x="97" y="282"/>
      <point x="97" y="256" type="curve" smooth="yes"/>
      <point x="97" y="224"/>
      <point x="129" y="205"/>
      <point x="179" y="205" type="curve" smooth="yes"/>
      <point x="292" y="205"/>
      <point x="408" y="298"/>
      <point x="408" y="413" type="curve" smooth="yes"/>
      <point x="408" y="510"/>
      <point x="329" y="569"/>
      <point x="235" y="569" type="curve" smooth="yes"/>
      <point x="169" y="569"/>
      <point x="88" y="539"/>
      <point x="88" y="477" type="curve" smooth="yes"/>
      <point x="88" y="443"/>
      <point x="112" y="408"/>
      <point x="155" y="408" type="curve" smooth="yes"/>
      <point x="195" y="408"/>
      <point x="224" y="437"/>
      <point x="224" y="471" type="curve" smooth="yes"/>
      <point x="224" y="503"/>
      <point x="198" y="531"/>
      <point x="165" y="527" type="curve"/>
      <point x="165" y="521" type="line"/>
      <point x="189" y="534"/>
      <point x="219" y="538"/>
      <point x="238" y="538" type="curve" smooth="yes"/>
      <point x="298" y="538"/>
      <point x="366" y="492"/>
      <point x="366" y="410" type="curve" smooth="yes"/>
      <point x="366" y="309"/>
      <point x="265" y="240"/>
      <point x="164" y="240" type="curve" smooth="yes"/>
      <point x="146" y="240"/>
      <point x="134" y="248"/>
      <point x="134" y="255" type="curve" smooth="yes"/>
      <point x="134" y="259"/>
      <point x="139" y="262"/>
      <point x="149" y="262" type="curve" smooth="yes"/>
      <point x="217" y="262"/>
      <point x="283" y="41"/>
      <point x="420" y="41" type="curve" smooth="yes"/>
    </contour>
    <contour>
      <point x="146" y="444"/>
      <point x="125" y="453"/>
      <point x="125" y="476" type="curve" smooth="yes"/>
      <point x="125" y="497"/>
      <point x="141" y="508"/>
      <point x="159" y="508" type="curve" smooth="yes"/>
      <point x="179" y="508"/>
      <point x="191" y="493"/>
      <point x="191" y="476" type="curve" smooth="yes"/>
      <point x="191" y="454"/>
      <point x="172" y="444"/>
      <point x="159" y="444" type="curve" smooth="yes"/>
    </contour>
  </outline>
</glyph>
<glyph name="uni09BF" format="1">
  <advance width="220"/>
  <unicode hex="09BF"/>
  <note>
	uni09BF
  </note>
  <outline>
    <contour>
      <point x="120" y="-12"/>
      <point x="122" y="9"/>
      <point x="122" y="41" type="curve" smooth="yes"/>
      <point x="122" y="385"/>
      <point x="123" y="483"/>
      <point x="131" y="573" type="curve"/>
      <point x="124" y="574" type="line"/>
      <point x="130" y="564"/>
      <point x="146" y="554"/>
      <point x="167" y="554" type="curve" smooth="yes"/>
      <point x="220" y="554" type="line" smooth="yes"/>
      <point x="229" y="554"/>
      <point x="238" y="558"/>
      <point x="238" y="571" type="curve" smooth="yes"/>
      <point x="238" y="582"/>
      <point x="229" y="587"/>
      <point x="220" y="587" type="curve" smooth="yes"/>
      <point x="172" y="587" type="line" smooth="yes"/>
      <point x="122" y="587"/>
      <point x="81" y="656"/>
      <point x="81" y="699" type="curve" smooth="yes"/>
      <point x="81" y="761"/>
      <point x="151" y="800"/>
      <point x="243" y="800" type="curve" smooth="yes"/>
      <point x="351" y="800"/>
      <point x="470" y="738"/>
      <point x="537" y="699" type="curve" smooth="yes"/>
      <point x="546" y="694"/>
      <point x="553" y="692"/>
      <point x="559" y="692" type="curve" smooth="yes"/>
      <point x="566" y="692"/>
      <point x="571" y="694"/>
      <point x="574" y="698" type="curve" smooth="yes"/>
      <point x="576" y="700"/>
      <point x="577" y="703"/>
      <point x="577" y="706" type="curve" smooth="yes"/>
      <point x="577" y="710"/>
      <point x="574" y="715"/>
      <point x="569" y="719" type="curve" smooth="yes"/>
      <point x="505" y="761"/>
      <point x="362" y="827"/>
      <point x="238" y="827" type="curve" smooth="yes"/>
      <point x="131" y="827"/>
      <point x="45" y="780"/>
      <point x="45" y="706" type="curve" smooth="yes"/>
      <point x="45" y="644"/>
      <point x="101" y="619"/>
      <point x="97" y="560" type="curve" smooth="yes"/>
      <point x="95" y="516" type="line"/>
      <point x="101" y="520" type="line"/>
      <point x="88" y="568"/>
      <point x="61" y="587"/>
      <point x="16" y="587" type="curve" smooth="yes"/>
      <point x="0" y="587" type="line" smooth="yes"/>
      <point x="-11" y="587"/>
      <point x="-18" y="579"/>
      <point x="-18" y="571" type="curve" smooth="yes"/>
      <point x="-18" y="561"/>
      <point x="-11" y="554"/>
      <point x="0" y="554" type="curve" smooth="yes"/>
      <point x="19" y="554" type="line" smooth="yes"/>
      <point x="82" y="554"/>
      <point x="88" y="494"/>
      <point x="88" y="454" type="curve" smooth="yes"/>
      <point x="88" y="385"/>
      <point x="83" y="325"/>
      <point x="83" y="71" type="curve" smooth="yes"/>
      <point x="83" y="23"/>
      <point x="83" y="-12"/>
      <point x="104" y="-12" type="curve" smooth="yes"/>
    </contour>
  </outline>
</glyph>
<glyph name="uni09C0" format="1">
  <advance width="220"/>
  <unicode hex="09C0"/>
  <note>
	uni09C0
  </note>
  <outline>
    <contour>
      <point x="108" y="-12"/>
      <point x="110" y="9"/>
      <point x="110" y="41" type="curve" smooth="yes"/>
      <point x="110" y="377"/>
      <point x="111" y="478"/>
      <point x="118" y="567" type="curve"/>
      <point x="126" y="560"/>
      <point x="139" y="554"/>
      <point x="155" y="554" type="curve" smooth="yes"/>
      <point x="220" y="554" type="line" smooth="yes"/>
      <point x="229" y="554"/>
      <point x="240" y="559"/>
      <point x="240" y="570" type="curve" smooth="yes"/>
      <point x="240" y="582"/>
      <point x="229" y="587"/>
      <point x="220" y="587" type="curve" smooth="yes"/>
      <point x="165" y="587" type="line" smooth="yes"/>
      <point x="139" y="587"/>
      <point x="119" y="588"/>
      <point x="111" y="621" type="curve" smooth="yes"/>
      <point x="71" y="778"/>
      <point x="-25" y="865"/>
      <point x="-198" y="865" type="curve" smooth="yes"/>
      <point x="-278" y="865"/>
      <point x="-418" y="840"/>
      <point x="-418" y="755" type="curve" smooth="yes"/>
      <point x="-418" y="717"/>
      <point x="-389" y="676"/>
      <point x="-327" y="676" type="curve" smooth="yes"/>
      <point x="-289" y="676"/>
      <point x="-240" y="695"/>
      <point x="-184" y="695" type="curve" smooth="yes"/>
      <point x="-128" y="695"/>
      <point x="-117" y="671"/>
      <point x="-104" y="647" type="curve" smooth="yes"/>
      <point x="-97" y="634"/>
      <point x="-91" y="625"/>
      <point x="-80" y="625" type="curve" smooth="yes"/>
      <point x="-69" y="625"/>
      <point x="-66" y="638"/>
      <point x="-69" y="648" type="curve" smooth="yes"/>
      <point x="-80" y="688"/>
      <point x="-118" y="729"/>
      <point x="-183" y="729" type="curve" smooth="yes"/>
      <point x="-231" y="729"/>
      <point x="-286" y="707"/>
      <point x="-328" y="707" type="curve" smooth="yes"/>
      <point x="-360" y="707"/>
      <point x="-386" y="721"/>
      <point x="-386" y="747" type="curve" smooth="yes"/>
      <point x="-386" y="812"/>
      <point x="-260" y="833"/>
      <point x="-196" y="833" type="curve" smooth="yes"/>
      <point x="-27" y="833"/>
      <point x="84" y="725"/>
      <point x="84" y="528" type="curve"/>
      <point x="89" y="520" type="line"/>
      <point x="78" y="565"/>
      <point x="54" y="587"/>
      <point x="21" y="587" type="curve" smooth="yes"/>
      <point x="0" y="587" type="line" smooth="yes"/>
      <point x="-12" y="587"/>
      <point x="-18" y="579"/>
      <point x="-18" y="570" type="curve" smooth="yes"/>
      <point x="-18" y="561"/>
      <point x="-12" y="554"/>
      <point x="0" y="554" type="curve" smooth="yes"/>
      <point x="20" y="554" type="line" smooth="yes"/>
      <point x="66" y="554"/>
      <point x="77" y="500"/>
      <point x="77" y="460" type="curve" smooth="yes"/>
      <point x="77" y="380"/>
      <point x="71" y="294"/>
      <point x="71" y="71" type="curve" smooth="yes"/>
      <point x="71" y="23"/>
      <point x="71" y="-12"/>
      <point x="92" y="-12" type="curve" smooth="yes"/>
    </contour>
  </outline>
</glyph>
<glyph name="uni09C1" format="1">
  <advance width="0"/>
  <unicode hex="09C1"/>
  <note>
	uni09C1
  </note>
  <outline>
    <contour>
      <point x="77" y="-164"/>
      <point x="39" y="-182"/>
      <point x="-3" y="-139" type="curve" smooth="yes"/>
      <point x="-47" y="-93"/>
      <point x="-108" y="-2"/>
      <point x="-212" y="-2" type="curve" smooth="yes"/>
      <point x="-288" y="-2"/>
      <point x="-334" y="-45"/>
      <point x="-334" y="-100" type="curve" smooth="yes"/>
      <point x="-334" y="-148"/>
      <point x="-292" y="-193"/>
      <point x="-225" y="-193" type="curve" smooth="yes"/>
      <point x="-152" y="-193"/>
      <point x="-100" y="-139"/>
      <point x="-100" y="-68" type="curve" smooth="yes"/>
      <point x="-100" y="-26"/>
      <point x="-100" y="17"/>
      <point x="-100" y="52" type="curve" smooth="yes"/>
      <point x="-100" y="74"/>
      <point x="-107" y="82"/>
      <point x="-118" y="82" type="curve" smooth="yes"/>
      <point x="-132" y="82"/>
      <point x="-139" y="74"/>
      <point x="-139" y="55" type="curve" smooth="yes"/>
      <point x="-139" y="12"/>
      <point x="-138" y="-37"/>
      <point x="-138" y="-67" type="curve" smooth="yes"/>
      <point x="-138" y="-108"/>
      <point x="-174" y="-160"/>
      <point x="-228" y="-160" type="curve" smooth="yes"/>
      <point x="-265" y="-160"/>
      <point x="-297" y="-134"/>
      <point x="-297" y="-100" type="curve" smooth="yes"/>
      <point x="-297" y="-69"/>
      <point x="-267" y="-34"/>
      <point x="-207" y="-32" type="curve" smooth="yes"/>
      <point x="-120" y="-29"/>
      <point x="-61" y="-129"/>
      <point x="-13" y="-170" type="curve" smooth="yes"/>
      <point x="39" y="-214"/>
      <point x="77" y="-208"/>
      <point x="77" y="-189" type="curve" smooth="yes"/>
    </contour>
  </outline>
</glyph>
<glyph name="uni09C2" format="1">
  <advance width="0"/>
  <unicode hex="09C2"/>
  <note>
	uni09C2
  </note>
  <outline>
    <contour>
      <point x="98" y="-249"/>
      <point x="96" y="-225"/>
      <point x="74" y="-219" type="curve" smooth="yes"/>
      <point x="6" y="-201"/>
      <point x="-31" y="-98"/>
      <point x="-102" y="-98" type="curve" smooth="yes"/>
      <point x="-150" y="-98"/>
      <point x="-167" y="-141"/>
      <point x="-227" y="-141" type="curve" smooth="yes"/>
      <point x="-264" y="-141"/>
      <point x="-285" y="-115"/>
      <point x="-285" y="-89" type="curve" smooth="yes"/>
      <point x="-285" y="-57"/>
      <point x="-255" y="-26"/>
      <point x="-211" y="-26" type="curve" smooth="yes"/>
      <point x="-174" y="-26"/>
      <point x="-148" y="-44"/>
      <point x="-122" y="-36" type="curve" smooth="yes"/>
      <point x="-95" y="-28"/>
      <point x="-100" y="-2"/>
      <point x="-100" y="63" type="curve" smooth="yes"/>
      <point x="-100" y="74"/>
      <point x="-107" y="92"/>
      <point x="-120" y="92" type="curve" smooth="yes"/>
      <point x="-135" y="92"/>
      <point x="-139" y="63"/>
      <point x="-139" y="50" type="curve" smooth="yes"/>
      <point x="-139" y="28"/>
      <point x="-136" y="-1"/>
      <point x="-154" y="-1" type="curve" smooth="yes"/>
      <point x="-173" y="-1"/>
      <point x="-192" y="11"/>
      <point x="-223" y="11" type="curve" smooth="yes"/>
      <point x="-279" y="11"/>
      <point x="-326" y="-31"/>
      <point x="-326" y="-84" type="curve" smooth="yes"/>
      <point x="-326" y="-133"/>
      <point x="-285" y="-178"/>
      <point x="-216" y="-178" type="curve" smooth="yes"/>
      <point x="-151" y="-178"/>
      <point x="-120" y="-137"/>
      <point x="-94" y="-137" type="curve" smooth="yes"/>
      <point x="-45" y="-137"/>
      <point x="6" y="-249"/>
      <point x="73" y="-249" type="curve" smooth="yes"/>
    </contour>
  </outline>
</glyph>
<glyph name="uni09C7" format="1">
  <advance width="292"/>
  <unicode hex="09C7"/>
  <note>
	uni09C7
  </note>
  <outline>
    <contour>
      <point x="275" y="-12"/>
      <point x="310" y="6"/>
      <point x="310" y="49" type="curve" smooth="yes"/>
      <point x="310" y="82"/>
      <point x="284" y="103"/>
      <point x="252" y="103" type="curve" smooth="yes"/>
      <point x="219" y="103"/>
      <point x="194" y="80"/>
      <point x="194" y="54" type="curve" smooth="yes"/>
      <point x="194" y="31"/>
      <point x="206" y="11"/>
      <point x="226" y="6" type="curve"/>
      <point x="228" y="16" type="line"/>
      <point x="165" y="16"/>
      <point x="84" y="115"/>
      <point x="84" y="245" type="curve" smooth="yes"/>
      <point x="84" y="377"/>
      <point x="165" y="554"/>
      <point x="235" y="554" type="curve" smooth="yes"/>
      <point x="292" y="554" type="line" smooth="yes"/>
      <point x="301" y="554"/>
      <point x="309" y="561"/>
      <point x="309" y="570" type="curve" smooth="yes"/>
      <point x="309" y="580"/>
      <point x="300" y="587"/>
      <point x="292" y="587" type="curve" smooth="yes"/>
      <point x="232" y="587" type="line" smooth="yes"/>
      <point x="129" y="587"/>
      <point x="43" y="386"/>
      <point x="43" y="258" type="curve" smooth="yes"/>
      <point x="43" y="97"/>
      <point x="124" y="-12"/>
      <point x="231" y="-12" type="curve" smooth="yes"/>
    </contour>
    <contour>
      <point x="239" y="21"/>
      <point x="225" y="30"/>
      <point x="225" y="48" type="curve" smooth="yes"/>
      <point x="225" y="61"/>
      <point x="237" y="73"/>
      <point x="252" y="73" type="curve" smooth="yes"/>
      <point x="266" y="73"/>
      <point x="278" y="61"/>
      <point x="278" y="46" type="curve" smooth="yes"/>
      <point x="278" y="30"/>
      <point x="265" y="21"/>
      <point x="252" y="21" type="curve" smooth="yes"/>
    </contour>
  </outline>
</glyph>
<glyph name="uni09C8" format="1">
  <advance width="292"/>
  <unicode hex="09C8"/>
  <note>
	uni09C8
  </note>
  <outline>
    <contour>
      <point x="184" y="544"/>
      <point x="208" y="603"/>
      <point x="208" y="646" type="curve" smooth="yes"/>
      <point x="208" y="694"/>
      <point x="178" y="722"/>
      <point x="110" y="722" type="curve" smooth="yes"/>
      <point x="75" y="722"/>
      <point x="40" y="714"/>
      <point x="12" y="714" type="curve" smooth="yes"/>
      <point x="-33" y="714"/>
      <point x="-65" y="745"/>
      <point x="-65" y="776" type="curve" smooth="yes"/>
      <point x="-65" y="788"/>
      <point x="-67" y="798"/>
      <point x="-78" y="798" type="curve" smooth="yes"/>
      <point x="-84" y="798"/>
      <point x="-92" y="793"/>
      <point x="-92" y="778" type="curve" smooth="yes"/>
      <point x="-92" y="722"/>
      <point x="-43" y="683"/>
      <point x="27" y="683" type="curve" smooth="yes"/>
      <point x="58" y="683"/>
      <point x="88" y="689"/>
      <point x="112" y="689" type="curve" smooth="yes"/>
      <point x="153" y="689"/>
      <point x="175" y="673"/>
      <point x="175" y="639" type="curve" smooth="yes"/>
      <point x="175" y="598"/>
      <point x="137" y="533"/>
      <point x="114" y="497" type="curve"/>
      <point x="142" y="476" type="line"/>
    </contour>
    <contour>
      <point x="275" y="-12"/>
      <point x="310" y="6"/>
      <point x="310" y="49" type="curve" smooth="yes"/>
      <point x="310" y="82"/>
      <point x="284" y="103"/>
      <point x="252" y="103" type="curve" smooth="yes"/>
      <point x="219" y="103"/>
      <point x="194" y="80"/>
      <point x="194" y="54" type="curve" smooth="yes"/>
      <point x="194" y="31"/>
      <point x="206" y="11"/>
      <point x="226" y="6" type="curve"/>
      <point x="228" y="16" type="line"/>
      <point x="165" y="16"/>
      <point x="84" y="115"/>
      <point x="84" y="245" type="curve" smooth="yes"/>
      <point x="84" y="377"/>
      <point x="165" y="554"/>
      <point x="235" y="554" type="curve" smooth="yes"/>
      <point x="292" y="554" type="line" smooth="yes"/>
      <point x="301" y="554"/>
      <point x="309" y="561"/>
      <point x="309" y="570" type="curve" smooth="yes"/>
      <point x="309" y="580"/>
      <point x="300" y="587"/>
      <point x="292" y="587" type="curve" smooth="yes"/>
      <point x="232" y="587" type="line" smooth="yes"/>
      <point x="129" y="587"/>
      <point x="43" y="386"/>
      <point x="43" y="258" type="curve" smooth="yes"/>
      <point x="43" y="97"/>
      <point x="124" y="-12"/>
      <point x="231" y="-12" type="curve" smooth="yes"/>
    </contour>
    <contour>
      <point x="239" y="21"/>
      <point x="225" y="30"/>
      <point x="225" y="48" type="curve" smooth="yes"/>
      <point x="225" y="61"/>
      <point x="237" y="73"/>
      <point x="252" y="73" type="curve" smooth="yes"/>
      <point x="266" y="73"/>
      <point x="278" y="61"/>
      <point x="278" y="46" type="curve" smooth="yes"/>
      <point x="278" y="30"/>
      <point x="265" y="21"/>
      <point x="252" y="21" type="curve" smooth="yes"/>
    </contour>
  </outline>
</glyph>
<glyph name="uni09D7" format="1">
  <advance width="220"/>
  <unicode hex="09D7"/>
  <note>
	uni09D7
  </note>
  <outline>
    <contour>
      <point x="184" y="587" type="line" smooth="yes"/>
      <point x="154" y="587"/>
      <point x="143" y="587"/>
      <point x="143" y="600" type="curve" smooth="yes"/>
      <point x="143" y="662"/>
      <point x="122" y="701"/>
      <point x="52" y="733" type="curve" smooth="yes"/>
      <point x="-6" y="759"/>
      <point x="-46" y="761"/>
      <point x="-124" y="788" type="curve" smooth="yes"/>
      <point x="-171" y="804"/>
      <point x="-224" y="831"/>
      <point x="-224" y="872" type="curve" smooth="yes"/>
      <point x="-224" y="896"/>
      <point x="-236" y="900"/>
      <point x="-243" y="900" type="curve" smooth="yes"/>
      <point x="-252" y="900"/>
      <point x="-259" y="894"/>
      <point x="-259" y="880" type="curve" smooth="yes"/>
      <point x="-259" y="816"/>
      <point x="-191" y="781"/>
      <point x="-129" y="760" type="curve" smooth="yes"/>
      <point x="-65" y="738"/>
      <point x="-6" y="731"/>
      <point x="50" y="704" type="curve" smooth="yes"/>
      <point x="135" y="663"/>
      <point x="107" y="600"/>
      <point x="107" y="514" type="curve"/>
      <point x="112" y="520" type="line"/>
      <point x="98" y="563"/>
      <point x="69" y="587"/>
      <point x="20" y="587" type="curve" smooth="yes"/>
      <point x="0" y="587" type="line" smooth="yes"/>
      <point x="-12" y="587"/>
      <point x="-18" y="579"/>
      <point x="-18" y="570" type="curve" smooth="yes"/>
      <point x="-18" y="561"/>
      <point x="-12" y="554"/>
      <point x="0" y="554" type="curve" smooth="yes"/>
      <point x="22" y="554" type="line" smooth="yes"/>
      <point x="71" y="554"/>
      <point x="99" y="532"/>
      <point x="99" y="448" type="curve" smooth="yes"/>
      <point x="99" y="371"/>
      <point x="94" y="283"/>
      <point x="94" y="71" type="curve" smooth="yes"/>
      <point x="94" y="23"/>
      <point x="94" y="-12"/>
      <point x="115" y="-12" type="curve" smooth="yes"/>
      <point x="129" y="-12"/>
      <point x="132" y="4"/>
      <point x="132" y="29" type="curve" smooth="yes"/>
      <point x="132" y="256"/>
      <point x="129" y="424"/>
      <point x="141" y="568" type="curve"/>
      <point x="149" y="560"/>
      <point x="162" y="554"/>
      <point x="179" y="554" type="curve" smooth="yes"/>
      <point x="220" y="554" type="line" smooth="yes"/>
      <point x="229" y="554"/>
      <point x="240" y="559"/>
      <point x="240" y="570" type="curve" smooth="yes"/>
      <point x="240" y="582"/>
      <point x="229" y="587"/>
      <point x="220" y="587" type="curve" smooth="yes"/>
    </contour>
  </outline>
</glyph>
<glyph name="uni09DC" format="1">
  <advance width="593"/>
  <unicode hex="09DC"/>
  <note>
	uni09DC
  </note>
  <outline>
    <contour>
      <point x="383" y="-101"/>
      <point x="410" y="-86"/>
      <point x="410" y="-56" type="curve" smooth="yes"/>
      <point x="410" y="-23"/>
      <point x="389" y="0"/>
      <point x="355" y="0" type="curve" smooth="yes"/>
      <point x="332" y="0"/>
      <point x="308" y="-20"/>
      <point x="308" y="-45" type="curve" smooth="yes"/>
      <point x="308" y="-74"/>
      <point x="327" y="-101"/>
      <point x="363" y="-101" type="curve" smooth="yes"/>
    </contour>
    <contour>
      <point x="384" y="-67"/>
      <point x="375" y="-77"/>
      <point x="360" y="-77" type="curve" smooth="yes"/>
      <point x="345" y="-77"/>
      <point x="334" y="-62"/>
      <point x="334" y="-49" type="curve" smooth="yes"/>
      <point x="334" y="-33"/>
      <point x="345" y="-22"/>
      <point x="358" y="-22" type="curve" smooth="yes"/>
      <point x="377" y="-22"/>
      <point x="384" y="-37"/>
      <point x="384" y="-51" type="curve" smooth="yes"/>
    </contour>
    <contour>
      <point x="485" y="30"/>
      <point x="559" y="113"/>
      <point x="559" y="233" type="curve" smooth="yes"/>
      <point x="559" y="311"/>
      <point x="523" y="393"/>
      <point x="474" y="393" type="curve" smooth="yes"/>
      <point x="441" y="393"/>
      <point x="468" y="263"/>
      <point x="369" y="263" type="curve" smooth="yes"/>
      <point x="322" y="263"/>
      <point x="292" y="317"/>
      <point x="292" y="387" type="curve" smooth="yes"/>
      <point x="292" y="498"/>
      <point x="310" y="554"/>
      <point x="378" y="554" type="curve" smooth="yes"/>
      <point x="593" y="554" type="line" smooth="yes"/>
      <point x="602" y="554"/>
      <point x="611" y="560"/>
      <point x="611" y="571" type="curve" smooth="yes"/>
      <point x="611" y="580"/>
      <point x="601" y="587"/>
      <point x="593" y="587" type="curve" smooth="yes"/>
      <point x="367" y="587" type="line" smooth="yes"/>
      <point x="335" y="587"/>
      <point x="291" y="571"/>
      <point x="286" y="541" type="curve"/>
      <point x="295" y="543" type="line"/>
      <point x="283" y="573"/>
      <point x="241" y="587"/>
      <point x="193" y="587" type="curve" smooth="yes"/>
      <point x="0" y="587" type="line" smooth="yes"/>
      <point x="-7" y="587"/>
      <point x="-17" y="582"/>
      <point x="-17" y="571" type="curve" smooth="yes"/>
      <point x="-17" y="562"/>
      <point x="-9" y="554"/>
      <point x="0" y="554" type="curve" smooth="yes"/>
      <point x="206" y="554" type="line" smooth="yes"/>
      <point x="228" y="554"/>
      <point x="271" y="547"/>
      <point x="271" y="520" type="curve" smooth="yes"/>
      <point x="271" y="503"/>
      <point x="256" y="467"/>
      <point x="256" y="397" type="curve" smooth="yes"/>
      <point x="256" y="296"/>
      <point x="296" y="229"/>
      <point x="375" y="229" type="curve" smooth="yes"/>
      <point x="469" y="229"/>
      <point x="485" y="334"/>
      <point x="490" y="354" type="curve"/>
      <point x="484" y="354" type="line"/>
      <point x="502" y="339"/>
      <point x="523" y="285"/>
      <point x="523" y="232" type="curve" smooth="yes"/>
      <point x="523" y="145"/>
      <point x="458" y="72"/>
      <point x="363" y="72" type="curve" smooth="yes"/>
      <point x="218" y="72"/>
      <point x="95" y="263"/>
      <point x="80" y="427" type="curve" smooth="yes"/>
      <point x="78" y="448"/>
      <point x="68" y="459"/>
      <point x="60" y="459" type="curve" smooth="yes"/>
      <point x="51" y="459"/>
      <point x="43" y="448"/>
      <point x="45" y="426" type="curve" smooth="yes"/>
      <point x="62" y="241"/>
      <point x="196" y="30"/>
      <point x="363" y="30" type="curve" smooth="yes"/>
    </contour>
  </outline>
</glyph>
<glyph name="uni09DD" format="1">
  <advance width="488"/>
  <unicode hex="09DD"/>
  <note>
	uni09DD
  </note>
  <outline>
    <contour>
      <point x="213" y="-141"/>
      <point x="240" y="-126"/>
      <point x="240" y="-96" type="curve" smooth="yes"/>
      <point x="240" y="-63"/>
      <point x="219" y="-40"/>
      <point x="185" y="-40" type="curve" smooth="yes"/>
      <point x="162" y="-40"/>
      <point x="138" y="-60"/>
      <point x="138" y="-85" type="curve" smooth="yes"/>
      <point x="138" y="-114"/>
      <point x="157" y="-141"/>
      <point x="193" y="-141" type="curve" smooth="yes"/>
    </contour>
    <contour>
      <point x="214" y="-107"/>
      <point x="205" y="-117"/>
      <point x="190" y="-117" type="curve" smooth="yes"/>
      <point x="175" y="-117"/>
      <point x="164" y="-102"/>
      <point x="164" y="-89" type="curve" smooth="yes"/>
      <point x="164" y="-73"/>
      <point x="175" y="-62"/>
      <point x="188" y="-62" type="curve" smooth="yes"/>
      <point x="207" y="-62"/>
      <point x="214" y="-77"/>
      <point x="214" y="-91" type="curve" smooth="yes"/>
    </contour>
    <contour>
      <point x="303" y="-7"/>
      <point x="436" y="193"/>
      <point x="436" y="307" type="curve" smooth="yes"/>
      <point x="436" y="365"/>
      <point x="407" y="406"/>
      <point x="349" y="406" type="curve" smooth="yes"/>
      <point x="312" y="406"/>
      <point x="281" y="377"/>
      <point x="281" y="338" type="curve" smooth="yes"/>
      <point x="281" y="301"/>
      <point x="315" y="272"/>
      <point x="347" y="272" type="curve" smooth="yes"/>
      <point x="372" y="272"/>
      <point x="396" y="284"/>
      <point x="404" y="303" type="curve"/>
      <point x="396" y="314" type="line"/>
      <point x="396" y="210"/>
      <point x="279" y="26"/>
      <point x="185" y="26" type="curve" smooth="yes"/>
      <point x="119" y="26"/>
      <point x="141" y="137"/>
      <point x="141" y="286" type="curve" smooth="yes"/>
      <point x="141" y="364"/>
      <point x="140" y="435"/>
      <point x="140" y="519" type="curve" smooth="yes"/>
      <point x="140" y="553"/>
      <point x="156" y="554"/>
      <point x="181" y="554" type="curve" smooth="yes"/>
      <point x="488" y="554" type="line" smooth="yes"/>
      <point x="498" y="554"/>
      <point x="508" y="560"/>
      <point x="508" y="571" type="curve" smooth="yes"/>
      <point x="508" y="581"/>
      <point x="498" y="587"/>
      <point x="488" y="587" type="curve" smooth="yes"/>
      <point x="168" y="587" type="line"/>
      <point x="167" y="587" type="line" smooth="yes"/>
      <point x="121" y="587"/>
      <point x="101" y="582"/>
      <point x="98" y="539" type="curve"/>
      <point x="105" y="546" type="line"/>
      <point x="96" y="569"/>
      <point x="62" y="587"/>
      <point x="22" y="587" type="curve" smooth="yes"/>
      <point x="0" y="587" type="line" smooth="yes"/>
      <point x="-12" y="587"/>
      <point x="-22" y="582"/>
      <point x="-22" y="570" type="curve" smooth="yes"/>
      <point x="-22" y="560"/>
      <point x="-12" y="554"/>
      <point x="0" y="554" type="curve" smooth="yes"/>
      <point x="30" y="554" type="line" smooth="yes"/>
      <point x="83" y="554"/>
      <point x="98" y="511"/>
      <point x="98" y="474" type="curve" smooth="yes"/>
      <point x="98" y="385"/>
      <point x="101" y="307"/>
      <point x="101" y="214" type="curve" smooth="yes"/>
      <point x="101" y="83"/>
      <point x="87" y="-7"/>
      <point x="195" y="-7" type="curve" smooth="yes"/>
    </contour>
    <contour>
      <point x="331" y="303"/>
      <point x="314" y="319"/>
      <point x="314" y="339" type="curve" smooth="yes"/>
      <point x="314" y="361"/>
      <point x="329" y="377"/>
      <point x="350" y="377" type="curve" smooth="yes"/>
      <point x="375" y="377"/>
      <point x="390" y="357"/>
      <point x="390" y="338" type="curve" smooth="yes"/>
      <point x="390" y="320"/>
      <point x="378" y="303"/>
      <point x="353" y="303" type="curve" smooth="yes"/>
    </contour>
  </outline>
</glyph>
<glyph name="uni09DF" format="1">
  <advance width="511"/>
  <unicode hex="09DF"/>
  <note>
	uni09DF
  </note>
  <outline>
    <contour>
      <point x="220" y="46"/>
      <point x="247" y="61"/>
      <point x="247" y="91" type="curve" smooth="yes"/>
      <point x="247" y="124"/>
      <point x="226" y="147"/>
      <point x="192" y="147" type="curve" smooth="yes"/>
      <point x="169" y="147"/>
      <point x="145" y="127"/>
      <point x="145" y="102" type="curve" smooth="yes"/>
      <point x="145" y="73"/>
      <point x="164" y="46"/>
      <point x="200" y="46" type="curve" smooth="yes"/>
    </contour>
    <contour>
      <point x="221" y="80"/>
      <point x="212" y="70"/>
      <point x="197" y="70" type="curve" smooth="yes"/>
      <point x="182" y="70"/>
      <point x="171" y="85"/>
      <point x="171" y="98" type="curve" smooth="yes"/>
      <point x="171" y="114"/>
      <point x="182" y="125"/>
      <point x="195" y="125" type="curve" smooth="yes"/>
      <point x="214" y="125"/>
      <point x="221" y="110"/>
      <point x="221" y="96" type="curve" smooth="yes"/>
    </contour>
    <contour>
      <point x="301" y="554" type="line" smooth="yes"/>
      <point x="349" y="554"/>
      <point x="377" y="523"/>
      <point x="377" y="463" type="curve" smooth="yes"/>
      <point x="377" y="389"/>
      <point x="372" y="249"/>
      <point x="372" y="107" type="curve"/>
      <point x="379" y="113" type="line"/>
      <point x="324" y="192"/>
      <point x="209" y="249"/>
      <point x="113" y="279" type="curve"/>
      <point x="108" y="265" type="line"/>
      <point x="244" y="347" type="line" smooth="yes"/>
      <point x="259" y="356"/>
      <point x="272" y="365"/>
      <point x="272" y="376" type="curve" smooth="yes"/>
      <point x="272" y="384"/>
      <point x="266" y="394"/>
      <point x="249" y="406" type="curve" smooth="yes"/>
      <point x="125" y="496" type="line" smooth="yes"/>
      <point x="87" y="520"/>
      <point x="90" y="541"/>
      <point x="90" y="561" type="curve"/>
      <point x="50" y="565" type="line"/>
      <point x="49" y="523"/>
      <point x="72" y="495"/>
      <point x="106" y="471" type="curve" smooth="yes"/>
      <point x="248" y="369" type="line"/>
      <point x="249" y="390" type="line"/>
      <point x="75" y="288" type="line" smooth="yes"/>
      <point x="67" y="283"/>
      <point x="63" y="276"/>
      <point x="63" y="269" type="curve" smooth="yes"/>
      <point x="63" y="258"/>
      <point x="72" y="247"/>
      <point x="92" y="243" type="curve" smooth="yes"/>
      <point x="191" y="222"/>
      <point x="372" y="128"/>
      <point x="372" y="44" type="curve" smooth="yes"/>
      <point x="372" y="12"/>
      <point x="375" y="-12"/>
      <point x="393" y="-12" type="curve" smooth="yes"/>
      <point x="409" y="-12"/>
      <point x="411" y="4"/>
      <point x="411" y="30" type="curve" smooth="yes"/>
      <point x="411" y="262"/>
      <point x="412" y="485"/>
      <point x="420" y="573" type="curve"/>
      <point x="413" y="574" type="line"/>
      <point x="419" y="564"/>
      <point x="435" y="554"/>
      <point x="456" y="554" type="curve" smooth="yes"/>
      <point x="511" y="554" type="line" smooth="yes"/>
      <point x="520" y="554"/>
      <point x="531" y="559"/>
      <point x="531" y="570" type="curve" smooth="yes"/>
      <point x="531" y="582"/>
      <point x="520" y="587"/>
      <point x="511" y="587" type="curve" smooth="yes"/>
      <point x="438" y="587" type="line" smooth="yes"/>
      <point x="415" y="587"/>
      <point x="423" y="609"/>
      <point x="407" y="609" type="curve" smooth="yes"/>
      <point x="394" y="609"/>
      <point x="385" y="575"/>
      <point x="381" y="517" type="curve"/>
      <point x="388" y="529" type="line"/>
      <point x="373" y="567"/>
      <point x="339" y="587"/>
      <point x="284" y="587" type="curve" smooth="yes"/>
      <point x="0" y="587" type="line" smooth="yes"/>
      <point x="-11" y="587"/>
      <point x="-19" y="582"/>
      <point x="-19" y="571" type="curve" smooth="yes"/>
      <point x="-19" y="562"/>
      <point x="-13" y="554"/>
      <point x="0" y="554" type="curve" smooth="yes"/>
    </contour>
  </outline>
</glyph>
<glyph name="uni09F0" format="1">
  <advance width="485"/>
  <unicode hex="09F0"/>
  <note>
	uni09F0
  </note>
  <outline>
    <contour>
      <point x="380" y="244"/>
      <point x="383" y="253"/>
      <point x="364" y="272" type="curve" smooth="yes"/>
      <point x="327" y="309"/>
      <point x="229" y="364"/>
      <point x="181" y="386" type="curve" smooth="yes"/>
      <point x="170" y="391"/>
      <point x="162" y="396"/>
      <point x="156" y="389" type="curve" smooth="yes"/>
      <point x="152" y="384"/>
      <point x="145" y="374"/>
      <point x="161" y="365" type="curve" smooth="yes"/>
      <point x="247" y="319"/>
      <point x="284" y="303"/>
      <point x="348" y="250" type="curve" smooth="yes"/>
      <point x="361" y="240"/>
      <point x="366" y="232"/>
      <point x="374" y="239" type="curve" smooth="yes"/>
    </contour>
    <contour>
      <point x="379" y="-12"/>
      <point x="385" y="-1"/>
      <point x="385" y="24" type="curve" smooth="yes"/>
      <point x="385" y="325"/>
      <point x="387" y="498"/>
      <point x="393" y="572" type="curve"/>
      <point x="387" y="574" type="line"/>
      <point x="393" y="564"/>
      <point x="409" y="554"/>
      <point x="430" y="554" type="curve" smooth="yes"/>
      <point x="485" y="554" type="line" smooth="yes"/>
      <point x="494" y="554"/>
      <point x="505" y="559"/>
      <point x="505" y="570" type="curve" smooth="yes"/>
      <point x="505" y="582"/>
      <point x="494" y="587"/>
      <point x="485" y="587" type="curve" smooth="yes"/>
      <point x="412" y="587" type="line" smooth="yes"/>
      <point x="388" y="587"/>
      <point x="397" y="609"/>
      <point x="381" y="609" type="curve" smooth="yes"/>
      <point x="370" y="609"/>
      <point x="362" y="580"/>
      <point x="357" y="531" type="curve"/>
      <point x="365" y="546" type="line"/>
      <point x="351" y="573"/>
      <point x="314" y="587"/>
      <point x="264" y="587" type="curve" smooth="yes"/>
      <point x="0" y="587" type="line" smooth="yes"/>
      <point x="-7" y="587"/>
      <point x="-16" y="582"/>
      <point x="-16" y="571" type="curve" smooth="yes"/>
      <point x="-16" y="562"/>
      <point x="-9" y="554"/>
      <point x="0" y="554" type="curve" smooth="yes"/>
      <point x="270" y="554" type="line" smooth="yes"/>
      <point x="316" y="554"/>
      <point x="341" y="539"/>
      <point x="341" y="520" type="curve" smooth="yes"/>
      <point x="341" y="490"/>
      <point x="298" y="457"/>
      <point x="38" y="343" type="curve" smooth="yes"/>
      <point x="19" y="334"/>
      <point x="10" y="320"/>
      <point x="10" y="307" type="curve" smooth="yes"/>
      <point x="10" y="292"/>
      <point x="21" y="278"/>
      <point x="40" y="274" type="curve" smooth="yes"/>
      <point x="103" y="260"/>
      <point x="346" y="174"/>
      <point x="346" y="37" type="curve" smooth="yes"/>
      <point x="346" y="12"/>
      <point x="350" y="-12"/>
      <point x="368" y="-12" type="curve" smooth="yes"/>
    </contour>
    <contour>
      <point x="352" y="127" type="line"/>
      <point x="297" y="207"/>
      <point x="187" y="280"/>
      <point x="35" y="312" type="curve"/>
      <point x="30" y="300" type="line"/>
      <point x="226" y="389"/>
      <point x="322" y="427"/>
      <point x="356" y="473" type="curve"/>
      <point x="352" y="477" type="line"/>
      <point x="348" y="391"/>
      <point x="346" y="265"/>
      <point x="346" y="120" type="curve"/>
    </contour>
  </outline>
</glyph>
<glyph name="uni09F1" format="1">
  <advance width="485"/>
  <unicode hex="09F1"/>
  <note>
	uni09F1
  </note>
  <outline>
    <contour>
      <point x="379" y="-12"/>
      <point x="385" y="-1"/>
      <point x="385" y="24" type="curve" smooth="yes"/>
      <point x="385" y="325"/>
      <point x="387" y="498"/>
      <point x="393" y="572" type="curve"/>
      <point x="387" y="574" type="line"/>
      <point x="393" y="564"/>
      <point x="409" y="554"/>
      <point x="430" y="554" type="curve" smooth="yes"/>
      <point x="485" y="554" type="line" smooth="yes"/>
      <point x="494" y="554"/>
      <point x="505" y="559"/>
      <point x="505" y="570" type="curve" smooth="yes"/>
      <point x="505" y="582"/>
      <point x="494" y="587"/>
      <point x="485" y="587" type="curve" smooth="yes"/>
      <point x="412" y="587" type="line" smooth="yes"/>
      <point x="388" y="587"/>
      <point x="397" y="609"/>
      <point x="381" y="609" type="curve" smooth="yes"/>
      <point x="370" y="609"/>
      <point x="362" y="580"/>
      <point x="357" y="531" type="curve"/>
      <point x="365" y="546" type="line"/>
      <point x="351" y="573"/>
      <point x="314" y="587"/>
      <point x="264" y="587" type="curve" smooth="yes"/>
      <point x="0" y="587" type="line" smooth="yes"/>
      <point x="-7" y="587"/>
      <point x="-16" y="582"/>
      <point x="-16" y="571" type="curve" smooth="yes"/>
      <point x="-16" y="562"/>
      <point x="-9" y="554"/>
      <point x="0" y="554" type="curve" smooth="yes"/>
      <point x="270" y="554" type="line" smooth="yes"/>
      <point x="316" y="554"/>
      <point x="341" y="539"/>
      <point x="341" y="520" type="curve" smooth="yes"/>
      <point x="341" y="490"/>
      <point x="298" y="457"/>
      <point x="38" y="343" type="curve" smooth="yes"/>
      <point x="19" y="334"/>
      <point x="10" y="320"/>
      <point x="10" y="307" type="curve" smooth="yes"/>
      <point x="10" y="292"/>
      <point x="21" y="278"/>
      <point x="40" y="274" type="curve" smooth="yes"/>
      <point x="103" y="260"/>
      <point x="346" y="174"/>
      <point x="346" y="37" type="curve" smooth="yes"/>
      <point x="346" y="12"/>
      <point x="350" y="-12"/>
      <point x="368" y="-12" type="curve" smooth="yes"/>
    </contour>
    <contour>
      <point x="352" y="127" type="line"/>
      <point x="297" y="207"/>
      <point x="187" y="280"/>
      <point x="35" y="312" type="curve"/>
      <point x="30" y="300" type="line"/>
      <point x="226" y="389"/>
      <point x="322" y="427"/>
      <point x="356" y="473" type="curve"/>
      <point x="352" y="477" type="line"/>
      <point x="348" y="391"/>
      <point x="346" y="265"/>
      <point x="346" y="120" type="curve"/>
    </contour>
    <contour>
      <point x="289" y="13"/>
      <point x="311" y="32"/>
      <point x="290" y="57" type="curve" smooth="yes"/>
      <point x="223" y="137"/>
      <point x="143" y="183"/>
      <point x="63" y="210" type="curve" smooth="yes"/>
      <point x="34" y="220"/>
      <point x="19" y="194"/>
      <point x="51" y="182" type="curve" smooth="yes"/>
      <point x="129" y="153"/>
      <point x="202" y="113"/>
      <point x="270" y="35" type="curve" smooth="yes"/>
    </contour>
  </outline>
</glyph>
<glyph name="uni200D" format="1">
  <advance width="0"/>
  <unicode hex="200D"/>
  <note>
	uni200D
  </note>
  <outline>
    <contour>
      <point x="0" y="748" type="line"/>
      <point x="212" y="748" type="line"/>
      <point x="212" y="689" type="line"/>
      <point x="45" y="689" type="line"/>
      <point x="45" y="-243" type="line"/>
      <point x="0" y="-243" type="line"/>
    </contour>
  </outline>
</glyph>
<glyph name="daggerdbl" format="1">
  <advance width="537"/>
  <unicode hex="2021"/>
  <note>
	daggerdbl
  </note>
  <outline>
    <contour>
      <point x="254" y="250"/>
      <point x="245" y="285"/>
      <point x="226" y="327" type="curve"/>
      <point x="246" y="359"/>
      <point x="256" y="387"/>
      <point x="256" y="411" type="curve"/>
      <point x="122" y="390" type="line"/>
      <point x="97" y="390"/>
      <point x="75" y="407"/>
      <point x="75" y="428" type="curve" smooth="yes"/>
      <point x="75" y="449"/>
      <point x="97" y="466"/>
      <point x="122" y="466" type="curve"/>
      <point x="256" y="441" type="line"/>
      <point x="256" y="456"/>
      <point x="251" y="477"/>
      <point x="241" y="506" type="curve" smooth="yes"/>
      <point x="231" y="534"/>
      <point x="226" y="555"/>
      <point x="226" y="570" type="curve" smooth="yes"/>
      <point x="226" y="594"/>
      <point x="245" y="614"/>
      <point x="269" y="614" type="curve" smooth="yes"/>
      <point x="292" y="614"/>
      <point x="310" y="594"/>
      <point x="310" y="570" type="curve" smooth="yes"/>
      <point x="310" y="555"/>
      <point x="305" y="534"/>
      <point x="296" y="505" type="curve"/>
      <point x="286" y="477"/>
      <point x="281" y="456"/>
      <point x="281" y="441" type="curve"/>
      <point x="297" y="441"/>
      <point x="320" y="445"/>
      <point x="350" y="454" type="curve" smooth="yes"/>
      <point x="380" y="462"/>
      <point x="403" y="466"/>
      <point x="419" y="466" type="curve" smooth="yes"/>
      <point x="443" y="466"/>
      <point x="462" y="449"/>
      <point x="462" y="428" type="curve" smooth="yes"/>
      <point x="462" y="407"/>
      <point x="443" y="390"/>
      <point x="419" y="390" type="curve"/>
      <point x="281" y="411" type="line"/>
      <point x="281" y="386"/>
      <point x="291" y="358"/>
      <point x="310" y="327" type="curve"/>
      <point x="297" y="307"/>
      <point x="289" y="270"/>
      <point x="289" y="221" type="curve" smooth="yes"/>
      <point x="289" y="181"/>
      <point x="297" y="149"/>
      <point x="310" y="129" type="curve"/>
      <point x="291" y="98"/>
      <point x="281" y="71"/>
      <point x="281" y="46" type="curve"/>
      <point x="419" y="66" type="line"/>
      <point x="443" y="66"/>
      <point x="462" y="49"/>
      <point x="462" y="29" type="curve" smooth="yes"/>
      <point x="462" y="8"/>
      <point x="443" y="-10"/>
      <point x="419" y="-10" type="curve" smooth="yes"/>
      <point x="403" y="-10"/>
      <point x="380" y="-6"/>
      <point x="350" y="3" type="curve" smooth="yes"/>
      <point x="320" y="12"/>
      <point x="297" y="16"/>
      <point x="281" y="16" type="curve"/>
      <point x="281" y="1"/>
      <point x="286" y="-20"/>
      <point x="296" y="-49" type="curve" smooth="yes"/>
      <point x="305" y="-78"/>
      <point x="310" y="-99"/>
      <point x="310" y="-114" type="curve" smooth="yes"/>
      <point x="310" y="-138"/>
      <point x="292" y="-157"/>
      <point x="269" y="-157" type="curve" smooth="yes"/>
      <point x="245" y="-157"/>
      <point x="226" y="-138"/>
      <point x="226" y="-114" type="curve" smooth="yes"/>
      <point x="226" y="-99"/>
      <point x="231" y="-77"/>
      <point x="241" y="-49" type="curve" smooth="yes"/>
      <point x="251" y="-21"/>
      <point x="256" y="1"/>
      <point x="256" y="16" type="curve"/>
      <point x="122" y="-10" type="line"/>
      <point x="97" y="-10"/>
      <point x="75" y="8"/>
      <point x="75" y="29" type="curve" smooth="yes"/>
      <point x="75" y="49"/>
      <point x="97" y="66"/>
      <point x="122" y="66" type="curve"/>
      <point x="256" y="46" type="line"/>
      <point x="255" y="71"/>
      <point x="245" y="98"/>
      <point x="226" y="129" type="curve"/>
      <point x="245" y="171"/>
      <point x="254" y="202"/>
      <point x="254" y="222" type="curve" smooth="yes"/>
    </contour>
  </outline>
</glyph>
<glyph name="bullet" format="1">
  <advance width="390"/>
  <unicode hex="2022"/>
  <note>
	bullet
  </note>
  <outline>
    <contour>
      <point x="262" y="94"/>
      <point x="315" y="147"/>
      <point x="315" y="214" type="curve" smooth="yes"/>
      <point x="315" y="281"/>
      <point x="262" y="334"/>
      <point x="195" y="334" type="curve" smooth="yes"/>
      <point x="128" y="334"/>
      <point x="75" y="281"/>
      <point x="75" y="214" type="curve" smooth="yes"/>
      <point x="75" y="147"/>
      <point x="128" y="94"/>
      <point x="195" y="94" type="curve" smooth="yes"/>
    </contour>
  </outline>
</glyph>
